<svg width="1366" height="975" viewBox="0 0 1366 975" fill="none" xmlns="http://www.w3.org/2000/svg">
<g opacity="0.2" filter="url(#filter0_f_175_198)">
<ellipse cx="703" cy="196.195" rx="847" ry="546.195" fill="#35875D"/>
</g>
<path d="M97.3222 564.487C99.2112 564.487 100.641 565.47 101.612 567.438C102.601 569.384 103.095 572.216 103.095 575.935C103.095 579.654 102.601 582.497 101.612 584.465C100.641 586.432 99.2112 587.416 97.3222 587.416C95.4509 587.416 94.021 586.432 93.0324 584.465C92.0438 582.497 91.5495 579.654 91.5495 575.935C91.5495 572.238 92.0438 569.405 93.0324 567.438C94.021 565.47 95.4509 564.487 97.3222 564.487ZM93.4296 575.935C93.4296 578.573 93.6238 580.638 94.0122 582.13L99.8908 567.762C99.2729 566.746 98.4167 566.238 97.3222 566.238C96.1041 566.238 95.1508 567.038 94.4623 568.638C93.7738 570.216 93.4296 572.649 93.4296 575.935ZM97.3222 585.632C98.558 585.632 99.5201 584.843 100.209 583.265C100.897 581.665 101.241 579.221 101.241 575.935C101.241 573.146 101.021 570.984 100.579 569.449L94.7007 583.946C95.3362 585.07 96.21 585.632 97.3222 585.632Z" fill="url(#paint0_linear_175_198)" fill-opacity="0.6"/>
<path d="M98.911 622.438H102.804V624.156H92.7146V622.438H97.2163V604.211L92.9265 607.357L92.185 605.897L97.4811 601.876H98.911V622.438Z" fill="url(#paint1_linear_175_198)" fill-opacity="0.6"/>
<path d="M97.3222 638.616C99.2112 638.616 100.641 639.6 101.612 641.568C102.601 643.514 103.095 646.346 103.095 650.065C103.095 653.784 102.601 656.627 101.612 658.594C100.641 660.562 99.2112 661.546 97.3222 661.546C95.4509 661.546 94.021 660.562 93.0324 658.594C92.0438 656.627 91.5495 653.784 91.5495 650.065C91.5495 646.368 92.0438 643.535 93.0324 641.568C94.021 639.6 95.4509 638.616 97.3222 638.616ZM93.4296 650.065C93.4296 652.703 93.6238 654.767 94.0122 656.259L99.8908 641.892C99.2729 640.876 98.4167 640.368 97.3222 640.368C96.1041 640.368 95.1508 641.168 94.4623 642.768C93.7738 644.346 93.4296 646.778 93.4296 650.065ZM97.3222 659.762C98.558 659.762 99.5201 658.973 100.209 657.394C100.897 655.794 101.241 653.351 101.241 650.065C101.241 647.276 101.021 645.114 100.579 643.578L94.7007 658.075C95.3362 659.2 96.21 659.762 97.3222 659.762Z" fill="url(#paint2_linear_175_198)" fill-opacity="0.6"/>
<path d="M98.911 696.567H102.804V698.286H92.7146V696.567H97.2163V678.341L92.9265 681.487L92.185 680.027L97.4811 676.006H98.911V696.567Z" fill="url(#paint3_linear_175_198)" fill-opacity="0.6"/>
<path d="M98.911 733.632H102.804V735.351H92.7146V733.632H97.2163V715.406L92.9265 718.551L92.185 717.092L97.4811 713.071H98.911V733.632Z" fill="url(#paint4_linear_175_198)" fill-opacity="0.6"/>
<path d="M97.3222 749.811C99.2112 749.811 100.641 750.795 101.612 752.762C102.601 754.708 103.095 757.541 103.095 761.26C103.095 764.978 102.601 767.822 101.612 769.789C100.641 771.757 99.2112 772.74 97.3222 772.74C95.4509 772.74 94.021 771.757 93.0324 769.789C92.0438 767.822 91.5495 764.978 91.5495 761.26C91.5495 757.562 92.0438 754.73 93.0324 752.762C94.021 750.795 95.4509 749.811 97.3222 749.811ZM93.4296 761.26C93.4296 763.897 93.6238 765.962 94.0122 767.454L99.8908 753.087C99.2729 752.071 98.4167 751.562 97.3222 751.562C96.1041 751.562 95.1508 752.362 94.4623 753.962C93.7738 755.541 93.4296 757.973 93.4296 761.26ZM97.3222 770.957C98.558 770.957 99.5201 770.167 100.209 768.589C100.897 766.989 101.241 764.546 101.241 761.26C101.241 758.47 101.021 756.308 100.579 754.773L94.7007 769.27C95.3362 770.394 96.21 770.957 97.3222 770.957Z" fill="url(#paint5_linear_175_198)" fill-opacity="0.6"/>
<path d="M98.911 807.762H102.804V809.481H92.7146V807.762H97.2163V789.535L92.9265 792.681L92.185 791.222L97.4811 787.2H98.911V807.762Z" fill="url(#paint6_linear_175_198)" fill-opacity="0.6"/>
<path d="M97.3222 823.941C99.2112 823.941 100.641 824.925 101.612 826.892C102.601 828.838 103.095 831.67 103.095 835.389C103.095 839.108 102.601 841.951 101.612 843.919C100.641 845.886 99.2112 846.87 97.3222 846.87C95.4509 846.87 94.021 845.886 93.0324 843.919C92.0438 841.951 91.5495 839.108 91.5495 835.389C91.5495 831.692 92.0438 828.86 93.0324 826.892C94.021 824.925 95.4509 823.941 97.3222 823.941ZM93.4296 835.389C93.4296 838.027 93.6238 840.092 94.0122 841.584L99.8908 827.216C99.2729 826.2 98.4167 825.692 97.3222 825.692C96.1041 825.692 95.1508 826.492 94.4623 828.092C93.7738 829.67 93.4296 832.103 93.4296 835.389ZM97.3222 845.086C98.558 845.086 99.5201 844.297 100.209 842.719C100.897 841.119 101.241 838.676 101.241 835.389C101.241 832.6 101.021 830.438 100.579 828.903L94.7007 843.4C95.3362 844.524 96.21 845.086 97.3222 845.086Z" fill="url(#paint7_linear_175_198)" fill-opacity="0.6"/>
<path d="M97.3222 861.006C99.2112 861.006 100.641 861.99 101.612 863.957C102.601 865.903 103.095 868.735 103.095 872.454C103.095 876.173 102.601 879.016 101.612 880.984C100.641 882.951 99.2112 883.935 97.3222 883.935C95.4509 883.935 94.021 882.951 93.0324 880.984C92.0438 879.016 91.5495 876.173 91.5495 872.454C91.5495 868.757 92.0438 865.925 93.0324 863.957C94.021 861.99 95.4509 861.006 97.3222 861.006ZM93.4296 872.454C93.4296 875.092 93.6238 877.157 94.0122 878.649L99.8908 864.281C99.2729 863.265 98.4167 862.757 97.3222 862.757C96.1041 862.757 95.1508 863.557 94.4623 865.157C93.7738 866.735 93.4296 869.168 93.4296 872.454ZM97.3222 882.151C98.558 882.151 99.5201 881.362 100.209 879.784C100.897 878.184 101.241 875.741 101.241 872.454C101.241 869.665 101.021 867.503 100.579 865.968L94.7007 880.465C95.3362 881.589 96.21 882.151 97.3222 882.151Z" fill="url(#paint8_linear_175_198)" fill-opacity="0.6"/>
<path d="M98.911 918.957H102.804V920.676H92.7146V918.957H97.2163V900.73L92.9265 903.876L92.185 902.417L97.4811 898.395H98.911V918.957Z" fill="url(#paint9_linear_175_198)" fill-opacity="0.6"/>
<path d="M97.3222 935.136C99.2112 935.136 100.641 936.119 101.612 938.087C102.601 940.033 103.095 942.865 103.095 946.584C103.095 950.303 102.601 953.146 101.612 955.113C100.641 957.081 99.2112 958.065 97.3222 958.065C95.4509 958.065 94.021 957.081 93.0324 955.113C92.0438 953.146 91.5495 950.303 91.5495 946.584C91.5495 942.887 92.0438 940.054 93.0324 938.087C94.021 936.119 95.4509 935.136 97.3222 935.136ZM93.4296 946.584C93.4296 949.222 93.6238 951.287 94.0122 952.778L99.8908 938.411C99.2729 937.395 98.4167 936.887 97.3222 936.887C96.1041 936.887 95.1508 937.687 94.4623 939.287C93.7738 940.865 93.4296 943.298 93.4296 946.584ZM97.3222 956.281C98.558 956.281 99.5201 955.492 100.209 953.914C100.897 952.314 101.241 949.87 101.241 946.584C101.241 943.795 101.021 941.633 100.579 940.098L94.7007 954.595C95.3362 955.719 96.21 956.281 97.3222 956.281Z" fill="url(#paint10_linear_175_198)" fill-opacity="0.6"/>
<path d="M98.911 993.087H102.804V994.805H92.7146V993.087H97.2163V974.86L92.9265 978.006L92.185 976.546L97.4811 972.525H98.911V993.087Z" fill="url(#paint11_linear_175_198)" fill-opacity="0.6"/>
<path d="M98.911 1030.15H102.804V1031.87H92.7146V1030.15H97.2163V1011.92L92.9265 1015.07L92.185 1013.61L97.4811 1009.59H98.911V1030.15Z" fill="url(#paint12_linear_175_198)" fill-opacity="0.6"/>
<path d="M146.5 638.616C148.389 638.616 149.819 639.6 150.79 641.568C151.779 643.514 152.273 646.346 152.273 650.065C152.273 653.784 151.779 656.627 150.79 658.594C149.819 660.562 148.389 661.546 146.5 661.546C144.629 661.546 143.199 660.562 142.21 658.594C141.222 656.627 140.728 653.784 140.728 650.065C140.728 646.368 141.222 643.535 142.21 641.568C143.199 639.6 144.629 638.616 146.5 638.616ZM142.608 650.065C142.608 652.703 142.802 654.767 143.19 656.259L149.069 641.892C148.451 640.876 147.595 640.368 146.5 640.368C145.282 640.368 144.329 641.168 143.64 642.768C142.952 644.346 142.608 646.778 142.608 650.065ZM146.5 659.762C147.736 659.762 148.698 658.973 149.387 657.394C150.075 655.794 150.419 653.351 150.419 650.065C150.419 647.276 150.199 645.114 149.757 643.578L143.879 658.075C144.514 659.2 145.388 659.762 146.5 659.762Z" fill="url(#paint13_linear_175_198)" fill-opacity="0.6"/>
<path d="M148.089 696.567H151.982V698.286H141.893V696.567H146.394V678.341L142.105 681.487L141.363 680.027L146.659 676.006H148.089V696.567Z" fill="url(#paint14_linear_175_198)" fill-opacity="0.6"/>
<path d="M146.5 712.746C148.389 712.746 149.819 713.73 150.79 715.697C151.779 717.643 152.273 720.476 152.273 724.195C152.273 727.913 151.779 730.757 150.79 732.724C149.819 734.692 148.389 735.675 146.5 735.675C144.629 735.675 143.199 734.692 142.21 732.724C141.222 730.757 140.728 727.913 140.728 724.195C140.728 720.497 141.222 717.665 142.21 715.697C143.199 713.73 144.629 712.746 146.5 712.746ZM142.608 724.195C142.608 726.832 142.802 728.897 143.19 730.389L149.069 716.022C148.451 715.006 147.595 714.498 146.5 714.498C145.282 714.498 144.329 715.297 143.64 716.897C142.952 718.476 142.608 720.908 142.608 724.195ZM146.5 733.892C147.736 733.892 148.698 733.103 149.387 731.524C150.075 729.924 150.419 727.481 150.419 724.195C150.419 721.405 150.199 719.243 149.757 717.708L143.879 732.205C144.514 733.33 145.388 733.892 146.5 733.892Z" fill="url(#paint15_linear_175_198)" fill-opacity="0.6"/>
<path d="M146.5 749.811C148.389 749.811 149.819 750.795 150.79 752.762C151.779 754.708 152.273 757.541 152.273 761.26C152.273 764.978 151.779 767.822 150.79 769.789C149.819 771.757 148.389 772.74 146.5 772.74C144.629 772.74 143.199 771.757 142.21 769.789C141.222 767.822 140.728 764.978 140.728 761.26C140.728 757.562 141.222 754.73 142.21 752.762C143.199 750.795 144.629 749.811 146.5 749.811ZM142.608 761.26C142.608 763.897 142.802 765.962 143.19 767.454L149.069 753.087C148.451 752.071 147.595 751.562 146.5 751.562C145.282 751.562 144.329 752.362 143.64 753.962C142.952 755.541 142.608 757.973 142.608 761.26ZM146.5 770.957C147.736 770.957 148.698 770.167 149.387 768.589C150.075 766.989 150.419 764.546 150.419 761.26C150.419 758.47 150.199 756.308 149.757 754.773L143.879 769.27C144.514 770.394 145.388 770.957 146.5 770.957Z" fill="url(#paint16_linear_175_198)" fill-opacity="0.6"/>
<path d="M148.089 807.762H151.982V809.481H141.893V807.762H146.394V789.535L142.105 792.681L141.363 791.222L146.659 787.2H148.089V807.762Z" fill="url(#paint17_linear_175_198)" fill-opacity="0.6"/>
<path d="M146.5 823.941C148.389 823.941 149.819 824.925 150.79 826.892C151.779 828.838 152.273 831.67 152.273 835.389C152.273 839.108 151.779 841.951 150.79 843.919C149.819 845.886 148.389 846.87 146.5 846.87C144.629 846.87 143.199 845.886 142.21 843.919C141.222 841.951 140.728 839.108 140.728 835.389C140.728 831.692 141.222 828.86 142.21 826.892C143.199 824.925 144.629 823.941 146.5 823.941ZM142.608 835.389C142.608 838.027 142.802 840.092 143.19 841.584L149.069 827.216C148.451 826.2 147.595 825.692 146.5 825.692C145.282 825.692 144.329 826.492 143.64 828.092C142.952 829.67 142.608 832.103 142.608 835.389ZM146.5 845.086C147.736 845.086 148.698 844.297 149.387 842.719C150.075 841.119 150.419 838.676 150.419 835.389C150.419 832.6 150.199 830.438 149.757 828.903L143.879 843.4C144.514 844.524 145.388 845.086 146.5 845.086Z" fill="url(#paint18_linear_175_198)" fill-opacity="0.6"/>
<path d="M148.089 881.892H151.982V883.611H141.893V881.892H146.394V863.665L142.105 866.811L141.363 865.352L146.659 861.33H148.089V881.892Z" fill="url(#paint19_linear_175_198)" fill-opacity="0.6"/>
<path d="M146.5 898.071C148.389 898.071 149.819 899.054 150.79 901.022C151.779 902.968 152.273 905.8 152.273 909.519C152.273 913.238 151.779 916.081 150.79 918.049C149.819 920.016 148.389 921 146.5 921C144.629 921 143.199 920.016 142.21 918.049C141.222 916.081 140.728 913.238 140.728 909.519C140.728 905.822 141.222 902.989 142.21 901.022C143.199 899.054 144.629 898.071 146.5 898.071ZM142.608 909.519C142.608 912.157 142.802 914.222 143.19 915.714L149.069 901.346C148.451 900.33 147.595 899.822 146.5 899.822C145.282 899.822 144.329 900.622 143.64 902.222C142.952 903.8 142.608 906.233 142.608 909.519ZM146.5 919.216C147.736 919.216 148.698 918.427 149.387 916.849C150.075 915.249 150.419 912.805 150.419 909.519C150.419 906.73 150.199 904.568 149.757 903.033L143.879 917.53C144.514 918.654 145.388 919.216 146.5 919.216Z" fill="url(#paint20_linear_175_198)" fill-opacity="0.6"/>
<path d="M146.5 935.136C148.389 935.136 149.819 936.119 150.79 938.087C151.779 940.033 152.273 942.865 152.273 946.584C152.273 950.303 151.779 953.146 150.79 955.113C149.819 957.081 148.389 958.065 146.5 958.065C144.629 958.065 143.199 957.081 142.21 955.113C141.222 953.146 140.728 950.303 140.728 946.584C140.728 942.887 141.222 940.054 142.21 938.087C143.199 936.119 144.629 935.136 146.5 935.136ZM142.608 946.584C142.608 949.222 142.802 951.287 143.19 952.778L149.069 938.411C148.451 937.395 147.595 936.887 146.5 936.887C145.282 936.887 144.329 937.687 143.64 939.287C142.952 940.865 142.608 943.298 142.608 946.584ZM146.5 956.281C147.736 956.281 148.698 955.492 149.387 953.914C150.075 952.314 150.419 949.87 150.419 946.584C150.419 943.795 150.199 941.633 149.757 940.098L143.879 954.595C144.514 955.719 145.388 956.281 146.5 956.281Z" fill="url(#paint21_linear_175_198)" fill-opacity="0.6"/>
<path d="M148.089 993.087H151.982V994.805H141.893V993.087H146.394V974.86L142.105 978.006L141.363 976.546L146.659 972.525H148.089V993.087Z" fill="url(#paint22_linear_175_198)" fill-opacity="0.6"/>
<path d="M146.5 1009.27C148.389 1009.27 149.819 1010.25 150.79 1012.22C151.779 1014.16 152.273 1016.99 152.273 1020.71C152.273 1024.43 151.779 1027.28 150.79 1029.24C149.819 1031.21 148.389 1032.19 146.5 1032.19C144.629 1032.19 143.199 1031.21 142.21 1029.24C141.222 1027.28 140.728 1024.43 140.728 1020.71C140.728 1017.02 141.222 1014.18 142.21 1012.22C143.199 1010.25 144.629 1009.27 146.5 1009.27ZM142.608 1020.71C142.608 1023.35 142.802 1025.42 143.19 1026.91L149.069 1012.54C148.451 1011.52 147.595 1011.02 146.5 1011.02C145.282 1011.02 144.329 1011.82 143.64 1013.42C142.952 1014.99 142.608 1017.43 142.608 1020.71ZM146.5 1030.41C147.736 1030.41 148.698 1029.62 149.387 1028.04C150.075 1026.44 150.419 1024 150.419 1020.71C150.419 1017.92 150.199 1015.76 149.757 1014.23L143.879 1028.72C144.514 1029.85 145.388 1030.41 146.5 1030.41Z" fill="url(#paint23_linear_175_198)" fill-opacity="0.6"/>
<path d="M148.089 1067.22H151.982V1068.94H141.893V1067.22H146.394V1048.99L142.105 1052.14L141.363 1050.68L146.659 1046.65H148.089V1067.22Z" fill="url(#paint24_linear_175_198)" fill-opacity="0.6"/>
<path d="M148.089 1104.28H151.982V1106H141.893V1104.28H146.394V1086.05L142.105 1089.2L141.363 1087.74L146.659 1083.72H148.089V1104.28Z" fill="url(#paint25_linear_175_198)" fill-opacity="0.6"/>
<path d="M72.7332 675.681C74.6221 675.681 76.0521 676.665 77.023 678.633C78.0116 680.579 78.5059 683.411 78.5059 687.13C78.5059 690.849 78.0116 693.692 77.023 695.659C76.0521 697.627 74.6221 698.611 72.7332 698.611C70.8619 698.611 69.432 697.627 68.4434 695.659C67.4548 693.692 66.9604 690.849 66.9604 687.13C66.9604 683.433 67.4548 680.6 68.4434 678.633C69.432 676.665 70.8619 675.681 72.7332 675.681ZM68.8406 687.13C68.8406 689.768 69.0348 691.832 69.4231 693.324L75.3018 678.957C74.6839 677.941 73.8277 677.433 72.7332 677.433C71.5151 677.433 70.5618 678.233 69.8733 679.833C69.1848 681.411 68.8406 683.843 68.8406 687.13ZM72.7332 696.827C73.969 696.827 74.9311 696.038 75.6196 694.459C76.3081 692.859 76.6523 690.416 76.6523 687.13C76.6523 684.341 76.4316 682.178 75.9903 680.643L70.1116 695.14C70.7472 696.265 71.621 696.827 72.7332 696.827Z" fill="url(#paint26_linear_175_198)" fill-opacity="0.6"/>
<path d="M72.7332 712.746C74.6221 712.746 76.0521 713.73 77.023 715.697C78.0116 717.643 78.5059 720.476 78.5059 724.195C78.5059 727.913 78.0116 730.757 77.023 732.724C76.0521 734.692 74.6221 735.675 72.7332 735.675C70.8619 735.675 69.432 734.692 68.4434 732.724C67.4548 730.757 66.9604 727.913 66.9604 724.195C66.9604 720.497 67.4548 717.665 68.4434 715.697C69.432 713.73 70.8619 712.746 72.7332 712.746ZM68.8406 724.195C68.8406 726.832 69.0348 728.897 69.4231 730.389L75.3018 716.022C74.6839 715.006 73.8277 714.498 72.7332 714.498C71.5151 714.498 70.5618 715.297 69.8733 716.897C69.1848 718.476 68.8406 720.908 68.8406 724.195ZM72.7332 733.892C73.969 733.892 74.9311 733.103 75.6196 731.524C76.3081 729.924 76.6523 727.481 76.6523 724.195C76.6523 721.405 76.4316 719.243 75.9903 717.708L70.1116 732.205C70.7472 733.33 71.621 733.892 72.7332 733.892Z" fill="url(#paint27_linear_175_198)" fill-opacity="0.6"/>
<path d="M74.322 770.697H78.2147V772.416H68.1256V770.697H72.6273V752.471L68.3374 755.616L67.596 754.157L72.8921 750.135H74.322V770.697Z" fill="url(#paint28_linear_175_198)" fill-opacity="0.6"/>
<path d="M72.7332 786.876C74.6221 786.876 76.0521 787.86 77.023 789.827C78.0116 791.773 78.5059 794.606 78.5059 798.324C78.5059 802.043 78.0116 804.886 77.023 806.854C76.0521 808.821 74.6221 809.805 72.7332 809.805C70.8619 809.805 69.432 808.821 68.4434 806.854C67.4548 804.886 66.9604 802.043 66.9604 798.324C66.9604 794.627 67.4548 791.795 68.4434 789.827C69.432 787.86 70.8619 786.876 72.7332 786.876ZM68.8406 798.324C68.8406 800.962 69.0348 803.027 69.4231 804.519L75.3018 790.152C74.6839 789.135 73.8277 788.627 72.7332 788.627C71.5151 788.627 70.5618 789.427 69.8733 791.027C69.1848 792.606 68.8406 795.038 68.8406 798.324ZM72.7332 808.021C73.969 808.021 74.9311 807.232 75.6196 805.654C76.3081 804.054 76.6523 801.611 76.6523 798.324C76.6523 795.535 76.4316 793.373 75.9903 791.838L70.1116 806.335C70.7472 807.459 71.621 808.021 72.7332 808.021Z" fill="url(#paint29_linear_175_198)" fill-opacity="0.6"/>
<path d="M74.322 844.827H78.2147V846.546H68.1256V844.827H72.6273V826.6L68.3374 829.746L67.596 828.287L72.8921 824.265H74.322V844.827Z" fill="url(#paint30_linear_175_198)" fill-opacity="0.6"/>
<path d="M74.322 881.892H78.2147V883.611H68.1256V881.892H72.6273V863.665L68.3374 866.811L67.596 865.352L72.8921 861.33H74.322V881.892Z" fill="url(#paint31_linear_175_198)" fill-opacity="0.6"/>
<path d="M123.5 622.438H127.393V624.156H117.304V622.438H121.805V604.211L117.515 607.357L116.774 605.897L122.07 601.876H123.5V622.438Z" fill="url(#paint32_linear_175_198)" fill-opacity="0.6"/>
<path d="M121.911 638.616C123.8 638.616 125.23 639.6 126.201 641.568C127.19 643.514 127.684 646.346 127.684 650.065C127.684 653.784 127.19 656.627 126.201 658.594C125.23 660.562 123.8 661.546 121.911 661.546C120.04 661.546 118.61 660.562 117.621 658.594C116.633 656.627 116.138 653.784 116.138 650.065C116.138 646.368 116.633 643.535 117.621 641.568C118.61 639.6 120.04 638.616 121.911 638.616ZM118.019 650.065C118.019 652.703 118.213 654.767 118.601 656.259L124.48 641.892C123.862 640.876 123.006 640.368 121.911 640.368C120.693 640.368 119.74 641.168 119.051 642.768C118.363 644.346 118.019 646.778 118.019 650.065ZM121.911 659.762C123.147 659.762 124.109 658.973 124.798 657.394C125.486 655.794 125.83 653.351 125.83 650.065C125.83 647.276 125.61 645.114 125.168 643.578L119.29 658.075C119.925 659.2 120.799 659.762 121.911 659.762Z" fill="url(#paint33_linear_175_198)" fill-opacity="0.6"/>
<path d="M123.5 696.567H127.393V698.286H117.304V696.567H121.805V678.341L117.515 681.487L116.774 680.027L122.07 676.006H123.5V696.567Z" fill="url(#paint34_linear_175_198)" fill-opacity="0.6"/>
<path d="M123.5 733.632H127.393V735.351H117.304V733.632H121.805V715.406L117.515 718.551L116.774 717.092L122.07 713.071H123.5V733.632Z" fill="url(#paint35_linear_175_198)" fill-opacity="0.6"/>
<path d="M121.911 749.811C123.8 749.811 125.23 750.795 126.201 752.762C127.19 754.708 127.684 757.541 127.684 761.26C127.684 764.978 127.19 767.822 126.201 769.789C125.23 771.757 123.8 772.74 121.911 772.74C120.04 772.74 118.61 771.757 117.621 769.789C116.633 767.822 116.138 764.978 116.138 761.26C116.138 757.562 116.633 754.73 117.621 752.762C118.61 750.795 120.04 749.811 121.911 749.811ZM118.019 761.26C118.019 763.897 118.213 765.962 118.601 767.454L124.48 753.087C123.862 752.071 123.006 751.562 121.911 751.562C120.693 751.562 119.74 752.362 119.051 753.962C118.363 755.541 118.019 757.973 118.019 761.26ZM121.911 770.957C123.147 770.957 124.109 770.167 124.798 768.589C125.486 766.989 125.83 764.546 125.83 761.26C125.83 758.47 125.61 756.308 125.168 754.773L119.29 769.27C119.925 770.394 120.799 770.957 121.911 770.957Z" fill="url(#paint36_linear_175_198)" fill-opacity="0.6"/>
<path d="M123.5 807.762H127.393V809.481H117.304V807.762H121.805V789.535L117.515 792.681L116.774 791.222L122.07 787.2H123.5V807.762Z" fill="url(#paint37_linear_175_198)" fill-opacity="0.6"/>
<path d="M123.5 844.827H127.393V846.546H117.304V844.827H121.805V826.6L117.515 829.746L116.774 828.287L122.07 824.265H123.5V844.827Z" fill="url(#paint38_linear_175_198)" fill-opacity="0.6"/>
<path d="M121.911 861.006C123.8 861.006 125.23 861.99 126.201 863.957C127.19 865.903 127.684 868.735 127.684 872.454C127.684 876.173 127.19 879.016 126.201 880.984C125.23 882.951 123.8 883.935 121.911 883.935C120.04 883.935 118.61 882.951 117.621 880.984C116.633 879.016 116.138 876.173 116.138 872.454C116.138 868.757 116.633 865.925 117.621 863.957C118.61 861.99 120.04 861.006 121.911 861.006ZM118.019 872.454C118.019 875.092 118.213 877.157 118.601 878.649L124.48 864.281C123.862 863.265 123.006 862.757 121.911 862.757C120.693 862.757 119.74 863.557 119.051 865.157C118.363 866.735 118.019 869.168 118.019 872.454ZM121.911 882.151C123.147 882.151 124.109 881.362 124.798 879.784C125.486 878.184 125.83 875.741 125.83 872.454C125.83 869.665 125.61 867.503 125.168 865.968L119.29 880.465C119.925 881.589 120.799 882.151 121.911 882.151Z" fill="url(#paint39_linear_175_198)" fill-opacity="0.6"/>
<path d="M123.5 918.957H127.393V920.676H117.304V918.957H121.805V900.73L117.515 903.876L116.774 902.417L122.07 898.395H123.5V918.957Z" fill="url(#paint40_linear_175_198)" fill-opacity="0.6"/>
<path d="M121.911 935.136C123.8 935.136 125.23 936.119 126.201 938.087C127.19 940.033 127.684 942.865 127.684 946.584C127.684 950.303 127.19 953.146 126.201 955.113C125.23 957.081 123.8 958.065 121.911 958.065C120.04 958.065 118.61 957.081 117.621 955.113C116.633 953.146 116.138 950.303 116.138 946.584C116.138 942.887 116.633 940.054 117.621 938.087C118.61 936.119 120.04 935.136 121.911 935.136ZM118.019 946.584C118.019 949.222 118.213 951.287 118.601 952.778L124.48 938.411C123.862 937.395 123.006 936.887 121.911 936.887C120.693 936.887 119.74 937.687 119.051 939.287C118.363 940.865 118.019 943.298 118.019 946.584ZM121.911 956.281C123.147 956.281 124.109 955.492 124.798 953.914C125.486 952.314 125.83 949.87 125.83 946.584C125.83 943.795 125.61 941.633 125.168 940.098L119.29 954.595C119.925 955.719 120.799 956.281 121.911 956.281Z" fill="url(#paint41_linear_175_198)" fill-opacity="0.6"/>
<path d="M171.089 601.552C172.978 601.552 174.408 602.535 175.379 604.503C176.368 606.449 176.862 609.281 176.862 613C176.862 616.719 176.368 619.562 175.379 621.53C174.408 623.497 172.978 624.481 171.089 624.481C169.218 624.481 167.788 623.497 166.799 621.53C165.811 619.562 165.317 616.719 165.317 613C165.317 609.303 165.811 606.47 166.799 604.503C167.788 602.535 169.218 601.552 171.089 601.552ZM167.197 613C167.197 615.638 167.391 617.703 167.779 619.194L173.658 604.827C173.04 603.811 172.184 603.303 171.089 603.303C169.871 603.303 168.918 604.103 168.229 605.703C167.541 607.281 167.197 609.714 167.197 613ZM171.089 622.697C172.325 622.697 173.287 621.908 173.976 620.33C174.664 618.73 175.008 616.286 175.008 613C175.008 610.211 174.788 608.049 174.346 606.514L168.468 621.011C169.103 622.135 169.977 622.697 171.089 622.697Z" fill="url(#paint42_linear_175_198)" fill-opacity="0.6"/>
<path d="M172.678 659.502H176.571V661.221H166.482V659.502H170.983V641.276L166.694 644.422L165.952 642.962L171.248 638.941H172.678V659.502Z" fill="url(#paint43_linear_175_198)" fill-opacity="0.6"/>
<path d="M172.678 696.567H176.571V698.286H166.482V696.567H170.983V678.341L166.694 681.487L165.952 680.027L171.248 676.006H172.678V696.567Z" fill="url(#paint44_linear_175_198)" fill-opacity="0.6"/>
<path d="M171.089 712.746C172.978 712.746 174.408 713.73 175.379 715.697C176.368 717.643 176.862 720.476 176.862 724.195C176.862 727.913 176.368 730.757 175.379 732.724C174.408 734.692 172.978 735.675 171.089 735.675C169.218 735.675 167.788 734.692 166.799 732.724C165.811 730.757 165.317 727.913 165.317 724.195C165.317 720.497 165.811 717.665 166.799 715.697C167.788 713.73 169.218 712.746 171.089 712.746ZM167.197 724.195C167.197 726.832 167.391 728.897 167.779 730.389L173.658 716.022C173.04 715.006 172.184 714.498 171.089 714.498C169.871 714.498 168.918 715.297 168.229 716.897C167.541 718.476 167.197 720.908 167.197 724.195ZM171.089 733.892C172.325 733.892 173.287 733.103 173.976 731.524C174.664 729.924 175.008 727.481 175.008 724.195C175.008 721.405 174.788 719.243 174.346 717.708L168.468 732.205C169.103 733.33 169.977 733.892 171.089 733.892Z" fill="url(#paint45_linear_175_198)" fill-opacity="0.6"/>
<path d="M171.089 749.811C172.978 749.811 174.408 750.795 175.379 752.762C176.368 754.708 176.862 757.541 176.862 761.26C176.862 764.978 176.368 767.822 175.379 769.789C174.408 771.757 172.978 772.74 171.089 772.74C169.218 772.74 167.788 771.757 166.799 769.789C165.811 767.822 165.317 764.978 165.317 761.26C165.317 757.562 165.811 754.73 166.799 752.762C167.788 750.795 169.218 749.811 171.089 749.811ZM167.197 761.26C167.197 763.897 167.391 765.962 167.779 767.454L173.658 753.087C173.04 752.071 172.184 751.562 171.089 751.562C169.871 751.562 168.918 752.362 168.229 753.962C167.541 755.541 167.197 757.973 167.197 761.26ZM171.089 770.957C172.325 770.957 173.287 770.167 173.976 768.589C174.664 766.989 175.008 764.546 175.008 761.26C175.008 758.47 174.788 756.308 174.346 754.773L168.468 769.27C169.103 770.394 169.977 770.957 171.089 770.957Z" fill="url(#paint46_linear_175_198)" fill-opacity="0.6"/>
<g opacity="0.6">
<path d="M1217.68 96.3194C1219.48 96.3194 1220.85 97.2635 1221.77 99.1516C1222.72 101.019 1223.19 103.737 1223.19 107.306C1223.19 110.875 1222.72 113.603 1221.77 115.491C1220.85 117.379 1219.48 118.324 1217.68 118.324C1215.89 118.324 1214.53 117.379 1213.59 115.491C1212.64 113.603 1212.17 110.875 1212.17 107.306C1212.17 103.758 1212.64 101.04 1213.59 99.1516C1214.53 97.2635 1215.89 96.3194 1217.68 96.3194ZM1213.97 107.306C1213.97 109.837 1214.15 111.819 1214.52 113.25L1220.13 99.4629C1219.54 98.4877 1218.72 98.0001 1217.68 98.0001C1216.52 98.0001 1215.61 98.7678 1214.95 100.303C1214.29 101.818 1213.97 104.152 1213.97 107.306ZM1217.68 116.612C1218.86 116.612 1219.78 115.854 1220.43 114.34C1221.09 112.804 1221.42 110.46 1221.42 107.306C1221.42 104.629 1221.21 102.554 1220.79 101.081L1215.18 114.993C1215.79 116.072 1216.62 116.612 1217.68 116.612Z" fill="url(#paint47_linear_175_198)"/>
<path d="M1219.2 151.932H1222.91V153.582H1213.28V151.932H1217.58V134.441L1213.49 137.46L1212.78 136.059L1217.83 132.2H1219.2V151.932Z" fill="url(#paint48_linear_175_198)"/>
<path d="M1217.68 167.458C1219.48 167.458 1220.85 168.402 1221.77 170.291C1222.72 172.158 1223.19 174.876 1223.19 178.445C1223.19 182.014 1222.72 184.742 1221.77 186.63C1220.85 188.518 1219.48 189.463 1217.68 189.463C1215.89 189.463 1214.53 188.518 1213.59 186.63C1212.64 184.742 1212.17 182.014 1212.17 178.445C1212.17 174.897 1212.64 172.179 1213.59 170.291C1214.53 168.402 1215.89 167.458 1217.68 167.458ZM1213.97 178.445C1213.97 180.976 1214.15 182.958 1214.52 184.389L1220.13 170.602C1219.54 169.627 1218.72 169.139 1217.68 169.139C1216.52 169.139 1215.61 169.907 1214.95 171.442C1214.29 172.957 1213.97 175.291 1213.97 178.445ZM1217.68 187.751C1218.86 187.751 1219.78 186.993 1220.43 185.479C1221.09 183.943 1221.42 181.599 1221.42 178.445C1221.42 175.768 1221.21 173.693 1220.79 172.22L1215.18 186.132C1215.79 187.211 1216.62 187.751 1217.68 187.751Z" fill="url(#paint49_linear_175_198)"/>
<path d="M1219.2 223.071H1222.91V224.721H1213.28V223.071H1217.58V205.58L1213.49 208.599L1212.78 207.198L1217.83 203.339H1219.2V223.071Z" fill="url(#paint50_linear_175_198)"/>
<path d="M1219.2 258.641H1222.91V260.29H1213.28V258.641H1217.58V241.149L1213.49 244.168L1212.78 242.768L1217.83 238.909H1219.2V258.641Z" fill="url(#paint51_linear_175_198)"/>
<path d="M1217.68 274.167C1219.48 274.167 1220.85 275.111 1221.77 276.999C1222.72 278.866 1223.19 281.585 1223.19 285.153C1223.19 288.722 1222.72 291.451 1221.77 293.339C1220.85 295.227 1219.48 296.171 1217.68 296.171C1215.89 296.171 1214.53 295.227 1213.59 293.339C1212.64 291.451 1212.17 288.722 1212.17 285.153C1212.17 281.605 1212.64 278.887 1213.59 276.999C1214.53 275.111 1215.89 274.167 1217.68 274.167ZM1213.97 285.153C1213.97 287.685 1214.15 289.666 1214.52 291.098L1220.13 277.31C1219.54 276.335 1218.72 275.847 1217.68 275.847C1216.52 275.847 1215.61 276.615 1214.95 278.151C1214.29 279.665 1213.97 281.999 1213.97 285.153ZM1217.68 294.459C1218.86 294.459 1219.78 293.702 1220.43 292.187C1221.09 290.652 1221.42 288.307 1221.42 285.153C1221.42 282.477 1221.21 280.402 1220.79 278.929L1215.18 292.841C1215.79 293.92 1216.62 294.459 1217.68 294.459Z" fill="url(#paint52_linear_175_198)"/>
<path d="M1219.2 329.78H1222.91V331.429H1213.28V329.78H1217.58V312.288L1213.49 315.307L1212.78 313.907L1217.83 310.048H1219.2V329.78Z" fill="url(#paint53_linear_175_198)"/>
<path d="M1217.68 345.306C1219.48 345.306 1220.85 346.25 1221.77 348.138C1222.72 350.005 1223.19 352.723 1223.19 356.292C1223.19 359.861 1222.72 362.59 1221.77 364.478C1220.85 366.366 1219.48 367.31 1217.68 367.31C1215.89 367.31 1214.53 366.366 1213.59 364.478C1212.64 362.59 1212.17 359.861 1212.17 356.292C1212.17 352.744 1212.64 350.026 1213.59 348.138C1214.53 346.25 1215.89 345.306 1217.68 345.306ZM1213.97 356.292C1213.97 358.824 1214.15 360.805 1214.52 362.237L1220.13 348.449C1219.54 347.474 1218.72 346.986 1217.68 346.986C1216.52 346.986 1215.61 347.754 1214.95 349.29C1214.29 350.804 1213.97 353.138 1213.97 356.292ZM1217.68 365.598C1218.86 365.598 1219.78 364.841 1220.43 363.326C1221.09 361.791 1221.42 359.446 1221.42 356.292C1221.42 353.616 1221.21 351.541 1220.79 350.068L1215.18 363.98C1215.79 365.059 1216.62 365.598 1217.68 365.598Z" fill="url(#paint54_linear_175_198)"/>
<path d="M1217.68 380.875C1219.48 380.875 1220.85 381.819 1221.77 383.707C1222.72 385.575 1223.19 388.293 1223.19 391.862C1223.19 395.431 1222.72 398.159 1221.77 400.047C1220.85 401.935 1219.48 402.879 1217.68 402.879C1215.89 402.879 1214.53 401.935 1213.59 400.047C1212.64 398.159 1212.17 395.431 1212.17 391.862C1212.17 388.314 1212.64 385.596 1213.59 383.707C1214.53 381.819 1215.89 380.875 1217.68 380.875ZM1213.97 391.862C1213.97 394.393 1214.15 396.375 1214.52 397.806L1220.13 384.019C1219.54 383.043 1218.72 382.556 1217.68 382.556C1216.52 382.556 1215.61 383.324 1214.95 384.859C1214.29 386.374 1213.97 388.708 1213.97 391.862ZM1217.68 401.168C1218.86 401.168 1219.78 400.41 1220.43 398.896C1221.09 397.36 1221.42 395.016 1221.42 391.862C1221.42 389.185 1221.21 387.11 1220.79 385.637L1215.18 399.549C1215.79 400.628 1216.62 401.168 1217.68 401.168Z" fill="url(#paint55_linear_175_198)"/>
<path d="M1219.2 436.488H1222.91V438.138H1213.28V436.488H1217.58V418.997L1213.49 422.016L1212.78 420.615L1217.83 416.756H1219.2V436.488Z" fill="url(#paint56_linear_175_198)"/>
<path d="M1217.68 452.014C1219.48 452.014 1220.85 452.958 1221.77 454.846C1222.72 456.714 1223.19 459.432 1223.19 463.001C1223.19 466.57 1222.72 469.298 1221.77 471.186C1220.85 473.074 1219.48 474.018 1217.68 474.018C1215.89 474.018 1214.53 473.074 1213.59 471.186C1212.64 469.298 1212.17 466.57 1212.17 463.001C1212.17 459.453 1212.64 456.735 1213.59 454.846C1214.53 452.958 1215.89 452.014 1217.68 452.014ZM1213.97 463.001C1213.97 465.532 1214.15 467.514 1214.52 468.945L1220.13 455.158C1219.54 454.182 1218.72 453.695 1217.68 453.695C1216.52 453.695 1215.61 454.463 1214.95 455.998C1214.29 457.513 1213.97 459.847 1213.97 463.001ZM1217.68 472.307C1218.86 472.307 1219.78 471.549 1220.43 470.035C1221.09 468.499 1221.42 466.155 1221.42 463.001C1221.42 460.324 1221.21 458.249 1220.79 456.776L1215.18 470.688C1215.79 471.767 1216.62 472.307 1217.68 472.307Z" fill="url(#paint57_linear_175_198)"/>
<path d="M1219.2 507.627H1222.91V509.277H1213.28V507.627H1217.58V490.136L1213.49 493.155L1212.78 491.754L1217.83 487.895H1219.2V507.627Z" fill="url(#paint58_linear_175_198)"/>
<path d="M1219.2 543.197H1222.91V544.846H1213.28V543.197H1217.58V525.705L1213.49 528.724L1212.78 527.324L1217.83 523.464H1219.2V543.197Z" fill="url(#paint59_linear_175_198)"/>
<path d="M1264.6 167.458C1266.4 167.458 1267.76 168.402 1268.69 170.291C1269.63 172.158 1270.1 174.876 1270.1 178.445C1270.1 182.014 1269.63 184.742 1268.69 186.63C1267.76 188.518 1266.4 189.463 1264.6 189.463C1262.81 189.463 1261.45 188.518 1260.5 186.63C1259.56 184.742 1259.09 182.014 1259.09 178.445C1259.09 174.897 1259.56 172.179 1260.5 170.291C1261.45 168.402 1262.81 167.458 1264.6 167.458ZM1260.88 178.445C1260.88 180.976 1261.07 182.958 1261.44 184.389L1267.05 170.602C1266.46 169.627 1265.64 169.139 1264.6 169.139C1263.44 169.139 1262.53 169.907 1261.87 171.442C1261.21 172.957 1260.88 175.291 1260.88 178.445ZM1264.6 187.751C1265.78 187.751 1266.69 186.993 1267.35 185.479C1268.01 183.943 1268.34 181.599 1268.34 178.445C1268.34 175.768 1268.13 173.693 1267.7 172.22L1262.1 186.132C1262.7 187.211 1263.54 187.751 1264.6 187.751Z" fill="url(#paint60_linear_175_198)"/>
<path d="M1266.11 223.071H1269.83V224.721H1260.2V223.071H1264.5V205.58L1260.4 208.599L1259.7 207.198L1264.75 203.339H1266.11V223.071Z" fill="url(#paint61_linear_175_198)"/>
<path d="M1264.6 238.597C1266.4 238.597 1267.76 239.541 1268.69 241.43C1269.63 243.297 1270.1 246.015 1270.1 249.584C1270.1 253.153 1269.63 255.881 1268.69 257.769C1267.76 259.657 1266.4 260.601 1264.6 260.601C1262.81 260.601 1261.45 259.657 1260.5 257.769C1259.56 255.881 1259.09 253.153 1259.09 249.584C1259.09 246.036 1259.56 243.318 1260.5 241.43C1261.45 239.541 1262.81 238.597 1264.6 238.597ZM1260.88 249.584C1260.88 252.115 1261.07 254.097 1261.44 255.528L1267.05 241.741C1266.46 240.766 1265.64 240.278 1264.6 240.278C1263.44 240.278 1262.53 241.046 1261.87 242.581C1261.21 244.096 1260.88 246.43 1260.88 249.584ZM1264.6 258.89C1265.78 258.89 1266.69 258.132 1267.35 256.618C1268.01 255.082 1268.34 252.738 1268.34 249.584C1268.34 246.907 1268.13 244.832 1267.7 243.359L1262.1 257.271C1262.7 258.35 1263.54 258.89 1264.6 258.89Z" fill="url(#paint62_linear_175_198)"/>
<path d="M1264.6 274.167C1266.4 274.167 1267.76 275.111 1268.69 276.999C1269.63 278.866 1270.1 281.585 1270.1 285.153C1270.1 288.722 1269.63 291.451 1268.69 293.339C1267.76 295.227 1266.4 296.171 1264.6 296.171C1262.81 296.171 1261.45 295.227 1260.5 293.339C1259.56 291.451 1259.09 288.722 1259.09 285.153C1259.09 281.605 1259.56 278.887 1260.5 276.999C1261.45 275.111 1262.81 274.167 1264.6 274.167ZM1260.88 285.153C1260.88 287.685 1261.07 289.666 1261.44 291.098L1267.05 277.31C1266.46 276.335 1265.64 275.847 1264.6 275.847C1263.44 275.847 1262.53 276.615 1261.87 278.151C1261.21 279.665 1260.88 281.999 1260.88 285.153ZM1264.6 294.459C1265.78 294.459 1266.69 293.702 1267.35 292.187C1268.01 290.652 1268.34 288.307 1268.34 285.153C1268.34 282.477 1268.13 280.402 1267.7 278.929L1262.1 292.841C1262.7 293.92 1263.54 294.459 1264.6 294.459Z" fill="url(#paint63_linear_175_198)"/>
<path d="M1266.11 329.78H1269.83V331.429H1260.2V329.78H1264.5V312.288L1260.4 315.307L1259.7 313.907L1264.75 310.048H1266.11V329.78Z" fill="url(#paint64_linear_175_198)"/>
<path d="M1264.6 345.306C1266.4 345.306 1267.76 346.25 1268.69 348.138C1269.63 350.005 1270.1 352.723 1270.1 356.292C1270.1 359.861 1269.63 362.59 1268.69 364.478C1267.76 366.366 1266.4 367.31 1264.6 367.31C1262.81 367.31 1261.45 366.366 1260.5 364.478C1259.56 362.59 1259.09 359.861 1259.09 356.292C1259.09 352.744 1259.56 350.026 1260.5 348.138C1261.45 346.25 1262.81 345.306 1264.6 345.306ZM1260.88 356.292C1260.88 358.824 1261.07 360.805 1261.44 362.237L1267.05 348.449C1266.46 347.474 1265.64 346.986 1264.6 346.986C1263.44 346.986 1262.53 347.754 1261.87 349.29C1261.21 350.804 1260.88 353.138 1260.88 356.292ZM1264.6 365.598C1265.78 365.598 1266.69 364.841 1267.35 363.326C1268.01 361.791 1268.34 359.446 1268.34 356.292C1268.34 353.616 1268.13 351.541 1267.7 350.068L1262.1 363.98C1262.7 365.059 1263.54 365.598 1264.6 365.598Z" fill="url(#paint65_linear_175_198)"/>
<path d="M1266.11 400.919H1269.83V402.568H1260.2V400.919H1264.5V383.427L1260.4 386.446L1259.7 385.046L1264.75 381.186H1266.11V400.919Z" fill="url(#paint66_linear_175_198)"/>
<path d="M1264.6 416.445C1266.4 416.445 1267.76 417.389 1268.69 419.277C1269.63 421.144 1270.1 423.862 1270.1 427.431C1270.1 431 1269.63 433.728 1268.69 435.617C1267.76 437.505 1266.4 438.449 1264.6 438.449C1262.81 438.449 1261.45 437.505 1260.5 435.617C1259.56 433.728 1259.09 431 1259.09 427.431C1259.09 423.883 1259.56 421.165 1260.5 419.277C1261.45 417.389 1262.81 416.445 1264.6 416.445ZM1260.88 427.431C1260.88 429.963 1261.07 431.944 1261.44 433.376L1267.05 419.588C1266.46 418.613 1265.64 418.125 1264.6 418.125C1263.44 418.125 1262.53 418.893 1261.87 420.429C1261.21 421.943 1260.88 424.277 1260.88 427.431ZM1264.6 436.737C1265.78 436.737 1266.69 435.98 1267.35 434.465C1268.01 432.93 1268.34 430.585 1268.34 427.431C1268.34 424.755 1268.13 422.68 1267.7 421.207L1262.1 435.119C1262.7 436.198 1263.54 436.737 1264.6 436.737Z" fill="url(#paint67_linear_175_198)"/>
<path d="M1264.6 452.014C1266.4 452.014 1267.76 452.958 1268.69 454.846C1269.63 456.714 1270.1 459.432 1270.1 463.001C1270.1 466.57 1269.63 469.298 1268.69 471.186C1267.76 473.074 1266.4 474.018 1264.6 474.018C1262.81 474.018 1261.45 473.074 1260.5 471.186C1259.56 469.298 1259.09 466.57 1259.09 463.001C1259.09 459.453 1259.56 456.735 1260.5 454.846C1261.45 452.958 1262.81 452.014 1264.6 452.014ZM1260.88 463.001C1260.88 465.532 1261.07 467.514 1261.44 468.945L1267.05 455.158C1266.46 454.182 1265.64 453.695 1264.6 453.695C1263.44 453.695 1262.53 454.463 1261.87 455.998C1261.21 457.513 1260.88 459.847 1260.88 463.001ZM1264.6 472.307C1265.78 472.307 1266.69 471.549 1267.35 470.035C1268.01 468.499 1268.34 466.155 1268.34 463.001C1268.34 460.324 1268.13 458.249 1267.7 456.776L1262.1 470.688C1262.7 471.767 1263.54 472.307 1264.6 472.307Z" fill="url(#paint68_linear_175_198)"/>
<path d="M1266.11 507.627H1269.83V509.277H1260.2V507.627H1264.5V490.136L1260.4 493.155L1259.7 491.754L1264.75 487.895H1266.11V507.627Z" fill="url(#paint69_linear_175_198)"/>
<path d="M1264.6 523.153C1266.4 523.153 1267.76 524.097 1268.69 525.985C1269.63 527.853 1270.1 530.571 1270.1 534.14C1270.1 537.708 1269.63 540.437 1268.69 542.325C1267.76 544.213 1266.4 545.157 1264.6 545.157C1262.81 545.157 1261.45 544.213 1260.5 542.325C1259.56 540.437 1259.09 537.708 1259.09 534.14C1259.09 530.592 1259.56 527.874 1260.5 525.985C1261.45 524.097 1262.81 523.153 1264.6 523.153ZM1260.88 534.14C1260.88 536.671 1261.07 538.653 1261.44 540.084L1267.05 526.297C1266.46 525.321 1265.64 524.834 1264.6 524.834C1263.44 524.834 1262.53 525.602 1261.87 527.137C1261.21 528.652 1260.88 530.986 1260.88 534.14ZM1264.6 543.446C1265.78 543.446 1266.69 542.688 1267.35 541.174C1268.01 539.638 1268.34 537.294 1268.34 534.14C1268.34 531.463 1268.13 529.388 1267.7 527.915L1262.1 541.827C1262.7 542.906 1263.54 543.446 1264.6 543.446Z" fill="url(#paint70_linear_175_198)"/>
<path d="M1266.11 578.766H1269.83V580.416H1260.2V578.766H1264.5V561.275L1260.4 564.294L1259.7 562.893L1264.75 559.034H1266.11V578.766Z" fill="url(#paint71_linear_175_198)"/>
<path d="M1266.11 614.336H1269.83V615.985H1260.2V614.336H1264.5V596.844L1260.4 599.863L1259.7 598.463L1264.75 594.603H1266.11V614.336Z" fill="url(#paint72_linear_175_198)"/>
<path d="M1194.22 203.028C1196.02 203.028 1197.39 203.972 1198.31 205.86C1199.26 207.727 1199.73 210.446 1199.73 214.014C1199.73 217.583 1199.26 220.312 1198.31 222.2C1197.39 224.088 1196.02 225.032 1194.22 225.032C1192.44 225.032 1191.07 224.088 1190.13 222.2C1189.19 220.312 1188.71 217.583 1188.71 214.014C1188.71 210.466 1189.19 207.748 1190.13 205.86C1191.07 203.972 1192.44 203.028 1194.22 203.028ZM1190.51 214.014C1190.51 216.546 1190.69 218.527 1191.06 219.959L1196.67 206.171C1196.08 205.196 1195.27 204.708 1194.22 204.708C1193.06 204.708 1192.15 205.476 1191.49 207.012C1190.84 208.526 1190.51 210.861 1190.51 214.014ZM1194.22 223.32C1195.4 223.32 1196.32 222.563 1196.98 221.048C1197.63 219.513 1197.96 217.168 1197.96 214.014C1197.96 211.338 1197.75 209.263 1197.33 207.79L1191.72 221.702C1192.33 222.781 1193.16 223.32 1194.22 223.32Z" fill="url(#paint73_linear_175_198)"/>
<path d="M1194.22 238.597C1196.02 238.597 1197.39 239.541 1198.31 241.43C1199.26 243.297 1199.73 246.015 1199.73 249.584C1199.73 253.153 1199.26 255.881 1198.31 257.769C1197.39 259.657 1196.02 260.601 1194.22 260.601C1192.44 260.601 1191.07 259.657 1190.13 257.769C1189.19 255.881 1188.71 253.153 1188.71 249.584C1188.71 246.036 1189.19 243.318 1190.13 241.43C1191.07 239.541 1192.44 238.597 1194.22 238.597ZM1190.51 249.584C1190.51 252.115 1190.69 254.097 1191.06 255.528L1196.67 241.741C1196.08 240.766 1195.27 240.278 1194.22 240.278C1193.06 240.278 1192.15 241.046 1191.49 242.581C1190.84 244.096 1190.51 246.43 1190.51 249.584ZM1194.22 258.89C1195.4 258.89 1196.32 258.132 1196.98 256.618C1197.63 255.082 1197.96 252.738 1197.96 249.584C1197.96 246.907 1197.75 244.832 1197.33 243.359L1191.72 257.271C1192.33 258.35 1193.16 258.89 1194.22 258.89Z" fill="url(#paint74_linear_175_198)"/>
<path d="M1195.74 294.21H1199.45V295.86H1189.83V294.21H1194.12V276.719L1190.03 279.738L1189.32 278.337L1194.37 274.478H1195.74V294.21Z" fill="url(#paint75_linear_175_198)"/>
<path d="M1194.22 309.736C1196.02 309.736 1197.39 310.68 1198.31 312.569C1199.26 314.436 1199.73 317.154 1199.73 320.723C1199.73 324.292 1199.26 327.02 1198.31 328.908C1197.39 330.796 1196.02 331.74 1194.22 331.74C1192.44 331.74 1191.07 330.796 1190.13 328.908C1189.19 327.02 1188.71 324.292 1188.71 320.723C1188.71 317.175 1189.19 314.457 1190.13 312.569C1191.07 310.68 1192.44 309.736 1194.22 309.736ZM1190.51 320.723C1190.51 323.254 1190.69 325.236 1191.06 326.667L1196.67 312.88C1196.08 311.905 1195.27 311.417 1194.22 311.417C1193.06 311.417 1192.15 312.185 1191.49 313.72C1190.84 315.235 1190.51 317.569 1190.51 320.723ZM1194.22 330.029C1195.4 330.029 1196.32 329.271 1196.98 327.757C1197.63 326.221 1197.96 323.877 1197.96 320.723C1197.96 318.046 1197.75 315.971 1197.33 314.498L1191.72 328.41C1192.33 329.489 1193.16 330.029 1194.22 330.029Z" fill="url(#paint76_linear_175_198)"/>
<path d="M1195.74 365.349H1199.45V366.999H1189.83V365.349H1194.12V347.858L1190.03 350.877L1189.32 349.476L1194.37 345.617H1195.74V365.349Z" fill="url(#paint77_linear_175_198)"/>
<path d="M1195.74 400.919H1199.45V402.568H1189.83V400.919H1194.12V383.427L1190.03 386.446L1189.32 385.046L1194.37 381.186H1195.74V400.919Z" fill="url(#paint78_linear_175_198)"/>
<path d="M1242.65 151.932H1246.37V153.582H1236.74V151.932H1241.04V134.441L1236.95 137.46L1236.24 136.059L1241.29 132.2H1242.65V151.932Z" fill="url(#paint79_linear_175_198)"/>
<path d="M1241.14 167.458C1242.94 167.458 1244.3 168.402 1245.23 170.291C1246.17 172.158 1246.65 174.876 1246.65 178.445C1246.65 182.014 1246.17 184.742 1245.23 186.63C1244.3 188.518 1242.94 189.463 1241.14 189.463C1239.35 189.463 1237.99 188.518 1237.05 186.63C1236.1 184.742 1235.63 182.014 1235.63 178.445C1235.63 174.897 1236.1 172.179 1237.05 170.291C1237.99 168.402 1239.35 167.458 1241.14 167.458ZM1237.43 178.445C1237.43 180.976 1237.61 182.958 1237.98 184.389L1243.59 170.602C1243 169.627 1242.18 169.139 1241.14 169.139C1239.98 169.139 1239.07 169.907 1238.41 171.442C1237.75 172.957 1237.43 175.291 1237.43 178.445ZM1241.14 187.751C1242.32 187.751 1243.24 186.993 1243.89 185.479C1244.55 183.943 1244.88 181.599 1244.88 178.445C1244.88 175.768 1244.67 173.693 1244.25 172.22L1238.64 186.132C1239.24 187.211 1240.08 187.751 1241.14 187.751Z" fill="url(#paint80_linear_175_198)"/>
<path d="M1242.65 223.071H1246.37V224.721H1236.74V223.071H1241.04V205.58L1236.95 208.599L1236.24 207.198L1241.29 203.339H1242.65V223.071Z" fill="url(#paint81_linear_175_198)"/>
<path d="M1242.65 258.641H1246.37V260.29H1236.74V258.641H1241.04V241.149L1236.95 244.168L1236.24 242.768L1241.29 238.909H1242.65V258.641Z" fill="url(#paint82_linear_175_198)"/>
<path d="M1241.14 274.167C1242.94 274.167 1244.3 275.111 1245.23 276.999C1246.17 278.866 1246.65 281.585 1246.65 285.153C1246.65 288.722 1246.17 291.451 1245.23 293.339C1244.3 295.227 1242.94 296.171 1241.14 296.171C1239.35 296.171 1237.99 295.227 1237.05 293.339C1236.1 291.451 1235.63 288.722 1235.63 285.153C1235.63 281.605 1236.1 278.887 1237.05 276.999C1237.99 275.111 1239.35 274.167 1241.14 274.167ZM1237.43 285.153C1237.43 287.685 1237.61 289.666 1237.98 291.098L1243.59 277.31C1243 276.335 1242.18 275.847 1241.14 275.847C1239.98 275.847 1239.07 276.615 1238.41 278.151C1237.75 279.665 1237.43 281.999 1237.43 285.153ZM1241.14 294.459C1242.32 294.459 1243.24 293.702 1243.89 292.187C1244.55 290.652 1244.88 288.307 1244.88 285.153C1244.88 282.477 1244.67 280.402 1244.25 278.929L1238.64 292.841C1239.24 293.92 1240.08 294.459 1241.14 294.459Z" fill="url(#paint83_linear_175_198)"/>
<path d="M1242.65 329.78H1246.37V331.429H1236.74V329.78H1241.04V312.288L1236.95 315.307L1236.24 313.907L1241.29 310.048H1242.65V329.78Z" fill="url(#paint84_linear_175_198)"/>
<path d="M1242.65 365.349H1246.37V366.999H1236.74V365.349H1241.04V347.858L1236.95 350.877L1236.24 349.476L1241.29 345.617H1242.65V365.349Z" fill="url(#paint85_linear_175_198)"/>
<path d="M1241.14 380.875C1242.94 380.875 1244.3 381.819 1245.23 383.707C1246.17 385.575 1246.65 388.293 1246.65 391.862C1246.65 395.431 1246.17 398.159 1245.23 400.047C1244.3 401.935 1242.94 402.879 1241.14 402.879C1239.35 402.879 1237.99 401.935 1237.05 400.047C1236.1 398.159 1235.63 395.431 1235.63 391.862C1235.63 388.314 1236.1 385.596 1237.05 383.707C1237.99 381.819 1239.35 380.875 1241.14 380.875ZM1237.43 391.862C1237.43 394.393 1237.61 396.375 1237.98 397.806L1243.59 384.019C1243 383.043 1242.18 382.556 1241.14 382.556C1239.98 382.556 1239.07 383.324 1238.41 384.859C1237.75 386.374 1237.43 388.708 1237.43 391.862ZM1241.14 401.168C1242.32 401.168 1243.24 400.41 1243.89 398.896C1244.55 397.36 1244.88 395.016 1244.88 391.862C1244.88 389.185 1244.67 387.11 1244.25 385.637L1238.64 399.549C1239.24 400.628 1240.08 401.168 1241.14 401.168Z" fill="url(#paint86_linear_175_198)"/>
<path d="M1242.65 436.488H1246.37V438.138H1236.74V436.488H1241.04V418.997L1236.95 422.016L1236.24 420.615L1241.29 416.756H1242.65V436.488Z" fill="url(#paint87_linear_175_198)"/>
<path d="M1241.14 452.014C1242.94 452.014 1244.3 452.958 1245.23 454.846C1246.17 456.714 1246.65 459.432 1246.65 463.001C1246.65 466.57 1246.17 469.298 1245.23 471.186C1244.3 473.074 1242.94 474.018 1241.14 474.018C1239.35 474.018 1237.99 473.074 1237.05 471.186C1236.1 469.298 1235.63 466.57 1235.63 463.001C1235.63 459.453 1236.1 456.735 1237.05 454.846C1237.99 452.958 1239.35 452.014 1241.14 452.014ZM1237.43 463.001C1237.43 465.532 1237.61 467.514 1237.98 468.945L1243.59 455.158C1243 454.182 1242.18 453.695 1241.14 453.695C1239.98 453.695 1239.07 454.463 1238.41 455.998C1237.75 457.513 1237.43 459.847 1237.43 463.001ZM1241.14 472.307C1242.32 472.307 1243.24 471.549 1243.89 470.035C1244.55 468.499 1244.88 466.155 1244.88 463.001C1244.88 460.324 1244.67 458.249 1244.25 456.776L1238.64 470.688C1239.24 471.767 1240.08 472.307 1241.14 472.307Z" fill="url(#paint88_linear_175_198)"/>
<path d="M1288.06 131.889C1289.86 131.889 1291.22 132.833 1292.15 134.721C1293.09 136.588 1293.56 139.307 1293.56 142.875C1293.56 146.444 1293.09 149.173 1292.15 151.061C1291.22 152.949 1289.86 153.893 1288.06 153.893C1286.27 153.893 1284.91 152.949 1283.96 151.061C1283.02 149.173 1282.55 146.444 1282.55 142.875C1282.55 139.327 1283.02 136.609 1283.96 134.721C1284.91 132.833 1286.27 131.889 1288.06 131.889ZM1284.34 142.875C1284.34 145.407 1284.53 147.388 1284.9 148.82L1290.51 135.032C1289.92 134.057 1289.1 133.57 1288.06 133.57C1286.89 133.57 1285.98 134.337 1285.33 135.873C1284.67 137.387 1284.34 139.722 1284.34 142.875ZM1288.06 152.181C1289.23 152.181 1290.15 151.424 1290.81 149.909C1291.47 148.374 1291.79 146.029 1291.79 142.875C1291.79 140.199 1291.58 138.124 1291.16 136.651L1285.55 150.563C1286.16 151.642 1286.99 152.181 1288.06 152.181Z" fill="url(#paint89_linear_175_198)"/>
<path d="M1289.57 187.502H1293.29V189.151H1283.66V187.502H1287.95V170.01L1283.86 173.029L1283.15 171.629L1288.21 167.77H1289.57V187.502Z" fill="url(#paint90_linear_175_198)"/>
<path d="M1289.57 223.071H1293.29V224.721H1283.66V223.071H1287.95V205.58L1283.86 208.599L1283.15 207.198L1288.21 203.339H1289.57V223.071Z" fill="url(#paint91_linear_175_198)"/>
<path d="M1288.06 238.597C1289.86 238.597 1291.22 239.541 1292.15 241.43C1293.09 243.297 1293.56 246.015 1293.56 249.584C1293.56 253.153 1293.09 255.881 1292.15 257.769C1291.22 259.657 1289.86 260.601 1288.06 260.601C1286.27 260.601 1284.91 259.657 1283.96 257.769C1283.02 255.881 1282.55 253.153 1282.55 249.584C1282.55 246.036 1283.02 243.318 1283.96 241.43C1284.91 239.541 1286.27 238.597 1288.06 238.597ZM1284.34 249.584C1284.34 252.115 1284.53 254.097 1284.9 255.528L1290.51 241.741C1289.92 240.766 1289.1 240.278 1288.06 240.278C1286.89 240.278 1285.98 241.046 1285.33 242.581C1284.67 244.096 1284.34 246.43 1284.34 249.584ZM1288.06 258.89C1289.23 258.89 1290.15 258.132 1290.81 256.618C1291.47 255.082 1291.79 252.738 1291.79 249.584C1291.79 246.907 1291.58 244.832 1291.16 243.359L1285.55 257.271C1286.16 258.35 1286.99 258.89 1288.06 258.89Z" fill="url(#paint92_linear_175_198)"/>
<path d="M1288.06 274.167C1289.86 274.167 1291.22 275.111 1292.15 276.999C1293.09 278.866 1293.56 281.585 1293.56 285.153C1293.56 288.722 1293.09 291.451 1292.15 293.339C1291.22 295.227 1289.86 296.171 1288.06 296.171C1286.27 296.171 1284.91 295.227 1283.96 293.339C1283.02 291.451 1282.55 288.722 1282.55 285.153C1282.55 281.605 1283.02 278.887 1283.96 276.999C1284.91 275.111 1286.27 274.167 1288.06 274.167ZM1284.34 285.153C1284.34 287.685 1284.53 289.666 1284.9 291.098L1290.51 277.31C1289.92 276.335 1289.1 275.847 1288.06 275.847C1286.89 275.847 1285.98 276.615 1285.33 278.151C1284.67 279.665 1284.34 281.999 1284.34 285.153ZM1288.06 294.459C1289.23 294.459 1290.15 293.702 1290.81 292.187C1291.47 290.652 1291.79 288.307 1291.79 285.153C1291.79 282.477 1291.58 280.402 1291.16 278.929L1285.55 292.841C1286.16 293.92 1286.99 294.459 1288.06 294.459Z" fill="url(#paint93_linear_175_198)"/>
</g>
<defs>
<filter id="filter0_f_175_198" x="-699.115" y="-905.115" width="2804.23" height="2202.62" filterUnits="userSpaceOnUse" color-interpolation-filters="sRGB">
<feFlood flood-opacity="0" result="BackgroundImageFix"/>
<feBlend mode="normal" in="SourceGraphic" in2="BackgroundImageFix" result="shape"/>
<feGaussianBlur stdDeviation="277.557" result="effect1_foregroundBlur_175_198"/>
</filter>
<linearGradient id="paint0_linear_175_198" x1="121.911" y1="564.487" x2="121.911" y2="1050.41" gradientUnits="userSpaceOnUse">
<stop stop-color="#F7DD43"/>
<stop offset="1" stop-color="#F7DD43" stop-opacity="0"/>
</linearGradient>
<linearGradient id="paint1_linear_175_198" x1="121.911" y1="564.487" x2="121.911" y2="1050.41" gradientUnits="userSpaceOnUse">
<stop stop-color="#F7DD43"/>
<stop offset="1" stop-color="#F7DD43" stop-opacity="0"/>
</linearGradient>
<linearGradient id="paint2_linear_175_198" x1="121.911" y1="564.487" x2="121.911" y2="1050.41" gradientUnits="userSpaceOnUse">
<stop stop-color="#F7DD43"/>
<stop offset="1" stop-color="#F7DD43" stop-opacity="0"/>
</linearGradient>
<linearGradient id="paint3_linear_175_198" x1="121.911" y1="564.487" x2="121.911" y2="1050.41" gradientUnits="userSpaceOnUse">
<stop stop-color="#F7DD43"/>
<stop offset="1" stop-color="#F7DD43" stop-opacity="0"/>
</linearGradient>
<linearGradient id="paint4_linear_175_198" x1="121.911" y1="564.487" x2="121.911" y2="1050.41" gradientUnits="userSpaceOnUse">
<stop stop-color="#F7DD43"/>
<stop offset="1" stop-color="#F7DD43" stop-opacity="0"/>
</linearGradient>
<linearGradient id="paint5_linear_175_198" x1="121.911" y1="564.487" x2="121.911" y2="1050.41" gradientUnits="userSpaceOnUse">
<stop stop-color="#F7DD43"/>
<stop offset="1" stop-color="#F7DD43" stop-opacity="0"/>
</linearGradient>
<linearGradient id="paint6_linear_175_198" x1="121.911" y1="564.487" x2="121.911" y2="1050.41" gradientUnits="userSpaceOnUse">
<stop stop-color="#F7DD43"/>
<stop offset="1" stop-color="#F7DD43" stop-opacity="0"/>
</linearGradient>
<linearGradient id="paint7_linear_175_198" x1="121.911" y1="564.487" x2="121.911" y2="1050.41" gradientUnits="userSpaceOnUse">
<stop stop-color="#F7DD43"/>
<stop offset="1" stop-color="#F7DD43" stop-opacity="0"/>
</linearGradient>
<linearGradient id="paint8_linear_175_198" x1="121.911" y1="564.487" x2="121.911" y2="1050.41" gradientUnits="userSpaceOnUse">
<stop stop-color="#F7DD43"/>
<stop offset="1" stop-color="#F7DD43" stop-opacity="0"/>
</linearGradient>
<linearGradient id="paint9_linear_175_198" x1="121.911" y1="564.487" x2="121.911" y2="1050.41" gradientUnits="userSpaceOnUse">
<stop stop-color="#F7DD43"/>
<stop offset="1" stop-color="#F7DD43" stop-opacity="0"/>
</linearGradient>
<linearGradient id="paint10_linear_175_198" x1="121.911" y1="564.487" x2="121.911" y2="1050.41" gradientUnits="userSpaceOnUse">
<stop stop-color="#F7DD43"/>
<stop offset="1" stop-color="#F7DD43" stop-opacity="0"/>
</linearGradient>
<linearGradient id="paint11_linear_175_198" x1="121.911" y1="564.487" x2="121.911" y2="1050.41" gradientUnits="userSpaceOnUse">
<stop stop-color="#F7DD43"/>
<stop offset="1" stop-color="#F7DD43" stop-opacity="0"/>
</linearGradient>
<linearGradient id="paint12_linear_175_198" x1="121.911" y1="564.487" x2="121.911" y2="1050.41" gradientUnits="userSpaceOnUse">
<stop stop-color="#F7DD43"/>
<stop offset="1" stop-color="#F7DD43" stop-opacity="0"/>
</linearGradient>
<linearGradient id="paint13_linear_175_198" x1="121.911" y1="564.487" x2="121.911" y2="1050.41" gradientUnits="userSpaceOnUse">
<stop stop-color="#F7DD43"/>
<stop offset="1" stop-color="#F7DD43" stop-opacity="0"/>
</linearGradient>
<linearGradient id="paint14_linear_175_198" x1="121.911" y1="564.487" x2="121.911" y2="1050.41" gradientUnits="userSpaceOnUse">
<stop stop-color="#F7DD43"/>
<stop offset="1" stop-color="#F7DD43" stop-opacity="0"/>
</linearGradient>
<linearGradient id="paint15_linear_175_198" x1="121.911" y1="564.487" x2="121.911" y2="1050.41" gradientUnits="userSpaceOnUse">
<stop stop-color="#F7DD43"/>
<stop offset="1" stop-color="#F7DD43" stop-opacity="0"/>
</linearGradient>
<linearGradient id="paint16_linear_175_198" x1="121.911" y1="564.487" x2="121.911" y2="1050.41" gradientUnits="userSpaceOnUse">
<stop stop-color="#F7DD43"/>
<stop offset="1" stop-color="#F7DD43" stop-opacity="0"/>
</linearGradient>
<linearGradient id="paint17_linear_175_198" x1="121.911" y1="564.487" x2="121.911" y2="1050.41" gradientUnits="userSpaceOnUse">
<stop stop-color="#F7DD43"/>
<stop offset="1" stop-color="#F7DD43" stop-opacity="0"/>
</linearGradient>
<linearGradient id="paint18_linear_175_198" x1="121.911" y1="564.487" x2="121.911" y2="1050.41" gradientUnits="userSpaceOnUse">
<stop stop-color="#F7DD43"/>
<stop offset="1" stop-color="#F7DD43" stop-opacity="0"/>
</linearGradient>
<linearGradient id="paint19_linear_175_198" x1="121.911" y1="564.487" x2="121.911" y2="1050.41" gradientUnits="userSpaceOnUse">
<stop stop-color="#F7DD43"/>
<stop offset="1" stop-color="#F7DD43" stop-opacity="0"/>
</linearGradient>
<linearGradient id="paint20_linear_175_198" x1="121.911" y1="564.487" x2="121.911" y2="1050.41" gradientUnits="userSpaceOnUse">
<stop stop-color="#F7DD43"/>
<stop offset="1" stop-color="#F7DD43" stop-opacity="0"/>
</linearGradient>
<linearGradient id="paint21_linear_175_198" x1="121.911" y1="564.487" x2="121.911" y2="1050.41" gradientUnits="userSpaceOnUse">
<stop stop-color="#F7DD43"/>
<stop offset="1" stop-color="#F7DD43" stop-opacity="0"/>
</linearGradient>
<linearGradient id="paint22_linear_175_198" x1="121.911" y1="564.487" x2="121.911" y2="1050.41" gradientUnits="userSpaceOnUse">
<stop stop-color="#F7DD43"/>
<stop offset="1" stop-color="#F7DD43" stop-opacity="0"/>
</linearGradient>
<linearGradient id="paint23_linear_175_198" x1="121.911" y1="564.487" x2="121.911" y2="1050.41" gradientUnits="userSpaceOnUse">
<stop stop-color="#F7DD43"/>
<stop offset="1" stop-color="#F7DD43" stop-opacity="0"/>
</linearGradient>
<linearGradient id="paint24_linear_175_198" x1="121.911" y1="564.487" x2="121.911" y2="1050.41" gradientUnits="userSpaceOnUse">
<stop stop-color="#F7DD43"/>
<stop offset="1" stop-color="#F7DD43" stop-opacity="0"/>
</linearGradient>
<linearGradient id="paint25_linear_175_198" x1="121.911" y1="564.487" x2="121.911" y2="1050.41" gradientUnits="userSpaceOnUse">
<stop stop-color="#F7DD43"/>
<stop offset="1" stop-color="#F7DD43" stop-opacity="0"/>
</linearGradient>
<linearGradient id="paint26_linear_175_198" x1="121.911" y1="564.487" x2="121.911" y2="1050.41" gradientUnits="userSpaceOnUse">
<stop stop-color="#F7DD43"/>
<stop offset="1" stop-color="#F7DD43" stop-opacity="0"/>
</linearGradient>
<linearGradient id="paint27_linear_175_198" x1="121.911" y1="564.487" x2="121.911" y2="1050.41" gradientUnits="userSpaceOnUse">
<stop stop-color="#F7DD43"/>
<stop offset="1" stop-color="#F7DD43" stop-opacity="0"/>
</linearGradient>
<linearGradient id="paint28_linear_175_198" x1="121.911" y1="564.487" x2="121.911" y2="1050.41" gradientUnits="userSpaceOnUse">
<stop stop-color="#F7DD43"/>
<stop offset="1" stop-color="#F7DD43" stop-opacity="0"/>
</linearGradient>
<linearGradient id="paint29_linear_175_198" x1="121.911" y1="564.487" x2="121.911" y2="1050.41" gradientUnits="userSpaceOnUse">
<stop stop-color="#F7DD43"/>
<stop offset="1" stop-color="#F7DD43" stop-opacity="0"/>
</linearGradient>
<linearGradient id="paint30_linear_175_198" x1="121.911" y1="564.487" x2="121.911" y2="1050.41" gradientUnits="userSpaceOnUse">
<stop stop-color="#F7DD43"/>
<stop offset="1" stop-color="#F7DD43" stop-opacity="0"/>
</linearGradient>
<linearGradient id="paint31_linear_175_198" x1="121.911" y1="564.487" x2="121.911" y2="1050.41" gradientUnits="userSpaceOnUse">
<stop stop-color="#F7DD43"/>
<stop offset="1" stop-color="#F7DD43" stop-opacity="0"/>
</linearGradient>
<linearGradient id="paint32_linear_175_198" x1="121.911" y1="564.487" x2="121.911" y2="1050.41" gradientUnits="userSpaceOnUse">
<stop stop-color="#F7DD43"/>
<stop offset="1" stop-color="#F7DD43" stop-opacity="0"/>
</linearGradient>
<linearGradient id="paint33_linear_175_198" x1="121.911" y1="564.487" x2="121.911" y2="1050.41" gradientUnits="userSpaceOnUse">
<stop stop-color="#F7DD43"/>
<stop offset="1" stop-color="#F7DD43" stop-opacity="0"/>
</linearGradient>
<linearGradient id="paint34_linear_175_198" x1="121.911" y1="564.487" x2="121.911" y2="1050.41" gradientUnits="userSpaceOnUse">
<stop stop-color="#F7DD43"/>
<stop offset="1" stop-color="#F7DD43" stop-opacity="0"/>
</linearGradient>
<linearGradient id="paint35_linear_175_198" x1="121.911" y1="564.487" x2="121.911" y2="1050.41" gradientUnits="userSpaceOnUse">
<stop stop-color="#F7DD43"/>
<stop offset="1" stop-color="#F7DD43" stop-opacity="0"/>
</linearGradient>
<linearGradient id="paint36_linear_175_198" x1="121.911" y1="564.487" x2="121.911" y2="1050.41" gradientUnits="userSpaceOnUse">
<stop stop-color="#F7DD43"/>
<stop offset="1" stop-color="#F7DD43" stop-opacity="0"/>
</linearGradient>
<linearGradient id="paint37_linear_175_198" x1="121.911" y1="564.487" x2="121.911" y2="1050.41" gradientUnits="userSpaceOnUse">
<stop stop-color="#F7DD43"/>
<stop offset="1" stop-color="#F7DD43" stop-opacity="0"/>
</linearGradient>
<linearGradient id="paint38_linear_175_198" x1="121.911" y1="564.487" x2="121.911" y2="1050.41" gradientUnits="userSpaceOnUse">
<stop stop-color="#F7DD43"/>
<stop offset="1" stop-color="#F7DD43" stop-opacity="0"/>
</linearGradient>
<linearGradient id="paint39_linear_175_198" x1="121.911" y1="564.487" x2="121.911" y2="1050.41" gradientUnits="userSpaceOnUse">
<stop stop-color="#F7DD43"/>
<stop offset="1" stop-color="#F7DD43" stop-opacity="0"/>
</linearGradient>
<linearGradient id="paint40_linear_175_198" x1="121.911" y1="564.487" x2="121.911" y2="1050.41" gradientUnits="userSpaceOnUse">
<stop stop-color="#F7DD43"/>
<stop offset="1" stop-color="#F7DD43" stop-opacity="0"/>
</linearGradient>
<linearGradient id="paint41_linear_175_198" x1="121.911" y1="564.487" x2="121.911" y2="1050.41" gradientUnits="userSpaceOnUse">
<stop stop-color="#F7DD43"/>
<stop offset="1" stop-color="#F7DD43" stop-opacity="0"/>
</linearGradient>
<linearGradient id="paint42_linear_175_198" x1="121.911" y1="564.487" x2="121.911" y2="1050.41" gradientUnits="userSpaceOnUse">
<stop stop-color="#F7DD43"/>
<stop offset="1" stop-color="#F7DD43" stop-opacity="0"/>
</linearGradient>
<linearGradient id="paint43_linear_175_198" x1="121.911" y1="564.487" x2="121.911" y2="1050.41" gradientUnits="userSpaceOnUse">
<stop stop-color="#F7DD43"/>
<stop offset="1" stop-color="#F7DD43" stop-opacity="0"/>
</linearGradient>
<linearGradient id="paint44_linear_175_198" x1="121.911" y1="564.487" x2="121.911" y2="1050.41" gradientUnits="userSpaceOnUse">
<stop stop-color="#F7DD43"/>
<stop offset="1" stop-color="#F7DD43" stop-opacity="0"/>
</linearGradient>
<linearGradient id="paint45_linear_175_198" x1="121.911" y1="564.487" x2="121.911" y2="1050.41" gradientUnits="userSpaceOnUse">
<stop stop-color="#F7DD43"/>
<stop offset="1" stop-color="#F7DD43" stop-opacity="0"/>
</linearGradient>
<linearGradient id="paint46_linear_175_198" x1="121.911" y1="564.487" x2="121.911" y2="1050.41" gradientUnits="userSpaceOnUse">
<stop stop-color="#F7DD43"/>
<stop offset="1" stop-color="#F7DD43" stop-opacity="0"/>
</linearGradient>
<linearGradient id="paint47_linear_175_198" x1="1241.14" y1="96.3194" x2="1241.14" y2="562.642" gradientUnits="userSpaceOnUse">
<stop stop-color="#F7DD43"/>
<stop offset="1" stop-color="#F7DD43" stop-opacity="0"/>
</linearGradient>
<linearGradient id="paint48_linear_175_198" x1="1241.14" y1="96.3194" x2="1241.14" y2="562.642" gradientUnits="userSpaceOnUse">
<stop stop-color="#F7DD43"/>
<stop offset="1" stop-color="#F7DD43" stop-opacity="0"/>
</linearGradient>
<linearGradient id="paint49_linear_175_198" x1="1241.14" y1="96.3194" x2="1241.14" y2="562.642" gradientUnits="userSpaceOnUse">
<stop stop-color="#F7DD43"/>
<stop offset="1" stop-color="#F7DD43" stop-opacity="0"/>
</linearGradient>
<linearGradient id="paint50_linear_175_198" x1="1241.14" y1="96.3194" x2="1241.14" y2="562.642" gradientUnits="userSpaceOnUse">
<stop stop-color="#F7DD43"/>
<stop offset="1" stop-color="#F7DD43" stop-opacity="0"/>
</linearGradient>
<linearGradient id="paint51_linear_175_198" x1="1241.14" y1="96.3194" x2="1241.14" y2="562.642" gradientUnits="userSpaceOnUse">
<stop stop-color="#F7DD43"/>
<stop offset="1" stop-color="#F7DD43" stop-opacity="0"/>
</linearGradient>
<linearGradient id="paint52_linear_175_198" x1="1241.14" y1="96.3194" x2="1241.14" y2="562.642" gradientUnits="userSpaceOnUse">
<stop stop-color="#F7DD43"/>
<stop offset="1" stop-color="#F7DD43" stop-opacity="0"/>
</linearGradient>
<linearGradient id="paint53_linear_175_198" x1="1241.14" y1="96.3194" x2="1241.14" y2="562.642" gradientUnits="userSpaceOnUse">
<stop stop-color="#F7DD43"/>
<stop offset="1" stop-color="#F7DD43" stop-opacity="0"/>
</linearGradient>
<linearGradient id="paint54_linear_175_198" x1="1241.14" y1="96.3194" x2="1241.14" y2="562.642" gradientUnits="userSpaceOnUse">
<stop stop-color="#F7DD43"/>
<stop offset="1" stop-color="#F7DD43" stop-opacity="0"/>
</linearGradient>
<linearGradient id="paint55_linear_175_198" x1="1241.14" y1="96.3194" x2="1241.14" y2="562.642" gradientUnits="userSpaceOnUse">
<stop stop-color="#F7DD43"/>
<stop offset="1" stop-color="#F7DD43" stop-opacity="0"/>
</linearGradient>
<linearGradient id="paint56_linear_175_198" x1="1241.14" y1="96.3194" x2="1241.14" y2="562.642" gradientUnits="userSpaceOnUse">
<stop stop-color="#F7DD43"/>
<stop offset="1" stop-color="#F7DD43" stop-opacity="0"/>
</linearGradient>
<linearGradient id="paint57_linear_175_198" x1="1241.14" y1="96.3194" x2="1241.14" y2="562.642" gradientUnits="userSpaceOnUse">
<stop stop-color="#F7DD43"/>
<stop offset="1" stop-color="#F7DD43" stop-opacity="0"/>
</linearGradient>
<linearGradient id="paint58_linear_175_198" x1="1241.14" y1="96.3194" x2="1241.14" y2="562.642" gradientUnits="userSpaceOnUse">
<stop stop-color="#F7DD43"/>
<stop offset="1" stop-color="#F7DD43" stop-opacity="0"/>
</linearGradient>
<linearGradient id="paint59_linear_175_198" x1="1241.14" y1="96.3194" x2="1241.14" y2="562.642" gradientUnits="userSpaceOnUse">
<stop stop-color="#F7DD43"/>
<stop offset="1" stop-color="#F7DD43" stop-opacity="0"/>
</linearGradient>
<linearGradient id="paint60_linear_175_198" x1="1241.14" y1="96.3194" x2="1241.14" y2="562.642" gradientUnits="userSpaceOnUse">
<stop stop-color="#F7DD43"/>
<stop offset="1" stop-color="#F7DD43" stop-opacity="0"/>
</linearGradient>
<linearGradient id="paint61_linear_175_198" x1="1241.14" y1="96.3194" x2="1241.14" y2="562.642" gradientUnits="userSpaceOnUse">
<stop stop-color="#F7DD43"/>
<stop offset="1" stop-color="#F7DD43" stop-opacity="0"/>
</linearGradient>
<linearGradient id="paint62_linear_175_198" x1="1241.14" y1="96.3194" x2="1241.14" y2="562.642" gradientUnits="userSpaceOnUse">
<stop stop-color="#F7DD43"/>
<stop offset="1" stop-color="#F7DD43" stop-opacity="0"/>
</linearGradient>
<linearGradient id="paint63_linear_175_198" x1="1241.14" y1="96.3194" x2="1241.14" y2="562.642" gradientUnits="userSpaceOnUse">
<stop stop-color="#F7DD43"/>
<stop offset="1" stop-color="#F7DD43" stop-opacity="0"/>
</linearGradient>
<linearGradient id="paint64_linear_175_198" x1="1241.14" y1="96.3194" x2="1241.14" y2="562.642" gradientUnits="userSpaceOnUse">
<stop stop-color="#F7DD43"/>
<stop offset="1" stop-color="#F7DD43" stop-opacity="0"/>
</linearGradient>
<linearGradient id="paint65_linear_175_198" x1="1241.14" y1="96.3194" x2="1241.14" y2="562.642" gradientUnits="userSpaceOnUse">
<stop stop-color="#F7DD43"/>
<stop offset="1" stop-color="#F7DD43" stop-opacity="0"/>
</linearGradient>
<linearGradient id="paint66_linear_175_198" x1="1241.14" y1="96.3194" x2="1241.14" y2="562.642" gradientUnits="userSpaceOnUse">
<stop stop-color="#F7DD43"/>
<stop offset="1" stop-color="#F7DD43" stop-opacity="0"/>
</linearGradient>
<linearGradient id="paint67_linear_175_198" x1="1241.14" y1="96.3194" x2="1241.14" y2="562.642" gradientUnits="userSpaceOnUse">
<stop stop-color="#F7DD43"/>
<stop offset="1" stop-color="#F7DD43" stop-opacity="0"/>
</linearGradient>
<linearGradient id="paint68_linear_175_198" x1="1241.14" y1="96.3194" x2="1241.14" y2="562.642" gradientUnits="userSpaceOnUse">
<stop stop-color="#F7DD43"/>
<stop offset="1" stop-color="#F7DD43" stop-opacity="0"/>
</linearGradient>
<linearGradient id="paint69_linear_175_198" x1="1241.14" y1="96.3194" x2="1241.14" y2="562.642" gradientUnits="userSpaceOnUse">
<stop stop-color="#F7DD43"/>
<stop offset="1" stop-color="#F7DD43" stop-opacity="0"/>
</linearGradient>
<linearGradient id="paint70_linear_175_198" x1="1241.14" y1="96.3194" x2="1241.14" y2="562.642" gradientUnits="userSpaceOnUse">
<stop stop-color="#F7DD43"/>
<stop offset="1" stop-color="#F7DD43" stop-opacity="0"/>
</linearGradient>
<linearGradient id="paint71_linear_175_198" x1="1241.14" y1="96.3194" x2="1241.14" y2="562.642" gradientUnits="userSpaceOnUse">
<stop stop-color="#F7DD43"/>
<stop offset="1" stop-color="#F7DD43" stop-opacity="0"/>
</linearGradient>
<linearGradient id="paint72_linear_175_198" x1="1241.14" y1="96.3194" x2="1241.14" y2="562.642" gradientUnits="userSpaceOnUse">
<stop stop-color="#F7DD43"/>
<stop offset="1" stop-color="#F7DD43" stop-opacity="0"/>
</linearGradient>
<linearGradient id="paint73_linear_175_198" x1="1241.14" y1="96.3194" x2="1241.14" y2="562.642" gradientUnits="userSpaceOnUse">
<stop stop-color="#F7DD43"/>
<stop offset="1" stop-color="#F7DD43" stop-opacity="0"/>
</linearGradient>
<linearGradient id="paint74_linear_175_198" x1="1241.14" y1="96.3194" x2="1241.14" y2="562.642" gradientUnits="userSpaceOnUse">
<stop stop-color="#F7DD43"/>
<stop offset="1" stop-color="#F7DD43" stop-opacity="0"/>
</linearGradient>
<linearGradient id="paint75_linear_175_198" x1="1241.14" y1="96.3194" x2="1241.14" y2="562.642" gradientUnits="userSpaceOnUse">
<stop stop-color="#F7DD43"/>
<stop offset="1" stop-color="#F7DD43" stop-opacity="0"/>
</linearGradient>
<linearGradient id="paint76_linear_175_198" x1="1241.14" y1="96.3194" x2="1241.14" y2="562.642" gradientUnits="userSpaceOnUse">
<stop stop-color="#F7DD43"/>
<stop offset="1" stop-color="#F7DD43" stop-opacity="0"/>
</linearGradient>
<linearGradient id="paint77_linear_175_198" x1="1241.14" y1="96.3194" x2="1241.14" y2="562.642" gradientUnits="userSpaceOnUse">
<stop stop-color="#F7DD43"/>
<stop offset="1" stop-color="#F7DD43" stop-opacity="0"/>
</linearGradient>
<linearGradient id="paint78_linear_175_198" x1="1241.14" y1="96.3194" x2="1241.14" y2="562.642" gradientUnits="userSpaceOnUse">
<stop stop-color="#F7DD43"/>
<stop offset="1" stop-color="#F7DD43" stop-opacity="0"/>
</linearGradient>
<linearGradient id="paint79_linear_175_198" x1="1241.14" y1="96.3194" x2="1241.14" y2="562.642" gradientUnits="userSpaceOnUse">
<stop stop-color="#F7DD43"/>
<stop offset="1" stop-color="#F7DD43" stop-opacity="0"/>
</linearGradient>
<linearGradient id="paint80_linear_175_198" x1="1241.14" y1="96.3194" x2="1241.14" y2="562.642" gradientUnits="userSpaceOnUse">
<stop stop-color="#F7DD43"/>
<stop offset="1" stop-color="#F7DD43" stop-opacity="0"/>
</linearGradient>
<linearGradient id="paint81_linear_175_198" x1="1241.14" y1="96.3194" x2="1241.14" y2="562.642" gradientUnits="userSpaceOnUse">
<stop stop-color="#F7DD43"/>
<stop offset="1" stop-color="#F7DD43" stop-opacity="0"/>
</linearGradient>
<linearGradient id="paint82_linear_175_198" x1="1241.14" y1="96.3194" x2="1241.14" y2="562.642" gradientUnits="userSpaceOnUse">
<stop stop-color="#F7DD43"/>
<stop offset="1" stop-color="#F7DD43" stop-opacity="0"/>
</linearGradient>
<linearGradient id="paint83_linear_175_198" x1="1241.14" y1="96.3194" x2="1241.14" y2="562.642" gradientUnits="userSpaceOnUse">
<stop stop-color="#F7DD43"/>
<stop offset="1" stop-color="#F7DD43" stop-opacity="0"/>
</linearGradient>
<linearGradient id="paint84_linear_175_198" x1="1241.14" y1="96.3194" x2="1241.14" y2="562.642" gradientUnits="userSpaceOnUse">
<stop stop-color="#F7DD43"/>
<stop offset="1" stop-color="#F7DD43" stop-opacity="0"/>
</linearGradient>
<linearGradient id="paint85_linear_175_198" x1="1241.14" y1="96.3194" x2="1241.14" y2="562.642" gradientUnits="userSpaceOnUse">
<stop stop-color="#F7DD43"/>
<stop offset="1" stop-color="#F7DD43" stop-opacity="0"/>
</linearGradient>
<linearGradient id="paint86_linear_175_198" x1="1241.14" y1="96.3194" x2="1241.14" y2="562.642" gradientUnits="userSpaceOnUse">
<stop stop-color="#F7DD43"/>
<stop offset="1" stop-color="#F7DD43" stop-opacity="0"/>
</linearGradient>
<linearGradient id="paint87_linear_175_198" x1="1241.14" y1="96.3194" x2="1241.14" y2="562.642" gradientUnits="userSpaceOnUse">
<stop stop-color="#F7DD43"/>
<stop offset="1" stop-color="#F7DD43" stop-opacity="0"/>
</linearGradient>
<linearGradient id="paint88_linear_175_198" x1="1241.14" y1="96.3194" x2="1241.14" y2="562.642" gradientUnits="userSpaceOnUse">
<stop stop-color="#F7DD43"/>
<stop offset="1" stop-color="#F7DD43" stop-opacity="0"/>
</linearGradient>
<linearGradient id="paint89_linear_175_198" x1="1241.14" y1="96.3194" x2="1241.14" y2="562.642" gradientUnits="userSpaceOnUse">
<stop stop-color="#F7DD43"/>
<stop offset="1" stop-color="#F7DD43" stop-opacity="0"/>
</linearGradient>
<linearGradient id="paint90_linear_175_198" x1="1241.14" y1="96.3194" x2="1241.14" y2="562.642" gradientUnits="userSpaceOnUse">
<stop stop-color="#F7DD43"/>
<stop offset="1" stop-color="#F7DD43" stop-opacity="0"/>
</linearGradient>
<linearGradient id="paint91_linear_175_198" x1="1241.14" y1="96.3194" x2="1241.14" y2="562.642" gradientUnits="userSpaceOnUse">
<stop stop-color="#F7DD43"/>
<stop offset="1" stop-color="#F7DD43" stop-opacity="0"/>
</linearGradient>
<linearGradient id="paint92_linear_175_198" x1="1241.14" y1="96.3194" x2="1241.14" y2="562.642" gradientUnits="userSpaceOnUse">
<stop stop-color="#F7DD43"/>
<stop offset="1" stop-color="#F7DD43" stop-opacity="0"/>
</linearGradient>
<linearGradient id="paint93_linear_175_198" x1="1241.14" y1="96.3194" x2="1241.14" y2="562.642" gradientUnits="userSpaceOnUse">
<stop stop-color="#F7DD43"/>
<stop offset="1" stop-color="#F7DD43" stop-opacity="0"/>
</linearGradient>
</defs>
</svg>
