<svg width="1366" height="889" viewBox="0 0 1366 889" fill="none" xmlns="http://www.w3.org/2000/svg">
<g opacity="0.2" filter="url(#filter0_f_175_198)">
<ellipse cx="713.5" cy="159.197" rx="864.5" ry="552.197" fill="#B3A659"/>
</g>
<path d="M95.3082 531.536C97.2361 531.536 98.6956 532.53 99.6866 534.52C100.696 536.487 101.2 539.35 101.2 543.11C101.2 546.87 100.696 549.744 99.6866 551.733C98.6956 553.723 97.2361 554.717 95.3082 554.717C93.3982 554.717 91.9387 553.723 90.9297 551.733C89.9207 549.744 89.4161 546.87 89.4161 543.11C89.4161 539.372 89.9207 536.509 90.9297 534.52C91.9387 532.53 93.3982 531.536 95.3082 531.536ZM91.3351 543.11C91.3351 545.777 91.5333 547.864 91.9297 549.373L97.9298 534.847C97.2992 533.82 96.4253 533.306 95.3082 533.306C94.0649 533.306 93.0919 534.115 92.3892 535.733C91.6865 537.328 91.3351 539.788 91.3351 543.11ZM95.3082 552.914C96.5695 552.914 97.5515 552.116 98.2542 550.52C98.9569 548.903 99.3083 546.433 99.3083 543.11C99.3083 540.29 99.083 538.104 98.6326 536.552L92.6324 551.209C93.2811 552.345 94.173 552.914 95.3082 552.914Z" fill="url(#paint0_linear_175_198)" fill-opacity="0.6"/>
<path d="M96.9298 590.124H100.903V591.861H90.6054V590.124H95.2001V571.697L90.8216 574.877L90.0648 573.402L95.4703 569.336H96.9298V590.124Z" fill="url(#paint1_linear_175_198)" fill-opacity="0.6"/>
<path d="M95.3082 606.48C97.2361 606.48 98.6956 607.475 99.6866 609.464C100.696 611.431 101.2 614.295 101.2 618.055C101.2 621.814 100.696 624.689 99.6866 626.678C98.6956 628.667 97.2361 629.662 95.3082 629.662C93.3982 629.662 91.9387 628.667 90.9297 626.678C89.9207 624.689 89.4161 621.814 89.4161 618.055C89.4161 614.317 89.9207 611.453 90.9297 609.464C91.9387 607.475 93.3982 606.48 95.3082 606.48ZM91.3351 618.055C91.3351 620.721 91.5333 622.809 91.9297 624.317L97.9298 609.792C97.2992 608.765 96.4253 608.251 95.3082 608.251C94.0649 608.251 93.0919 609.06 92.3892 610.677C91.6865 612.273 91.3351 614.732 91.3351 618.055ZM95.3082 627.858C96.5695 627.858 97.5515 627.06 98.2542 625.465C98.9569 623.847 99.3083 621.377 99.3083 618.055C99.3083 615.235 99.083 613.049 98.6326 611.497L92.6324 626.153C93.2811 627.29 94.173 627.858 95.3082 627.858Z" fill="url(#paint2_linear_175_198)" fill-opacity="0.6"/>
<path d="M96.9298 665.068H100.903V666.806H90.6054V665.068H95.2001V646.641L90.8216 649.822L90.0648 648.346L95.4703 644.28H96.9298V665.068Z" fill="url(#paint3_linear_175_198)" fill-opacity="0.6"/>
<path d="M96.9298 702.54H100.903V704.278H90.6054V702.54H95.2001V684.113L90.8216 687.294L90.0648 685.818L95.4703 681.753H96.9298V702.54Z" fill="url(#paint4_linear_175_198)" fill-opacity="0.6"/>
<path d="M95.3082 718.897C97.2361 718.897 98.6956 719.891 99.6866 721.881C100.696 723.848 101.2 726.711 101.2 730.471C101.2 734.231 100.696 737.105 99.6866 739.094C98.6956 741.084 97.2361 742.078 95.3082 742.078C93.3982 742.078 91.9387 741.084 90.9297 739.094C89.9207 737.105 89.4161 734.231 89.4161 730.471C89.4161 726.733 89.9207 723.87 90.9297 721.881C91.9387 719.891 93.3982 718.897 95.3082 718.897ZM91.3351 730.471C91.3351 733.138 91.5333 735.225 91.9297 736.734L97.9298 722.208C97.2992 721.181 96.4253 720.667 95.3082 720.667C94.0649 720.667 93.0919 721.476 92.3892 723.094C91.6865 724.689 91.3351 727.149 91.3351 730.471ZM95.3082 740.275C96.5695 740.275 97.5515 739.477 98.2542 737.881C98.9569 736.264 99.3083 733.794 99.3083 730.471C99.3083 727.651 99.083 725.465 98.6326 723.913L92.6324 738.57C93.2811 739.706 94.173 740.275 95.3082 740.275Z" fill="url(#paint5_linear_175_198)" fill-opacity="0.6"/>
<path d="M96.9298 777.485H100.903V779.222H90.6054V777.485H95.2001V759.058L90.8216 762.238L90.0648 760.763L95.4703 756.697H96.9298V777.485Z" fill="url(#paint6_linear_175_198)" fill-opacity="0.6"/>
<path d="M95.3082 793.841C97.2361 793.841 98.6956 794.836 99.6866 796.825C100.696 798.792 101.2 801.656 101.2 805.416C101.2 809.175 100.696 812.05 99.6866 814.039C98.6956 816.028 97.2361 817.023 95.3082 817.023C93.3982 817.023 91.9387 816.028 90.9297 814.039C89.9207 812.05 89.4161 809.175 89.4161 805.416C89.4161 801.678 89.9207 798.814 90.9297 796.825C91.9387 794.836 93.3982 793.841 95.3082 793.841ZM91.3351 805.416C91.3351 808.082 91.5333 810.17 91.9297 811.678L97.9298 797.153C97.2992 796.126 96.4253 795.612 95.3082 795.612C94.0649 795.612 93.0919 796.421 92.3892 798.038C91.6865 799.634 91.3351 802.093 91.3351 805.416ZM95.3082 815.219C96.5695 815.219 97.5515 814.421 98.2542 812.826C98.9569 811.208 99.3083 808.738 99.3083 805.416C99.3083 802.596 99.083 800.41 98.6326 798.858L92.6324 813.514C93.2811 814.651 94.173 815.219 95.3082 815.219Z" fill="url(#paint7_linear_175_198)" fill-opacity="0.6"/>
<path d="M95.3082 831.313C97.2361 831.313 98.6956 832.308 99.6866 834.297C100.696 836.265 101.2 839.128 101.2 842.888C101.2 846.647 100.696 849.522 99.6866 851.511C98.6956 853.5 97.2361 854.495 95.3082 854.495C93.3982 854.495 91.9387 853.5 90.9297 851.511C89.9207 849.522 89.4161 846.647 89.4161 842.888C89.4161 839.15 89.9207 836.286 90.9297 834.297C91.9387 832.308 93.3982 831.313 95.3082 831.313ZM91.3351 842.888C91.3351 845.554 91.5333 847.642 91.9297 849.15L97.9298 834.625C97.2992 833.598 96.4253 833.084 95.3082 833.084C94.0649 833.084 93.0919 833.893 92.3892 835.51C91.6865 837.106 91.3351 839.565 91.3351 842.888ZM95.3082 852.691C96.5695 852.691 97.5515 851.894 98.2542 850.298C98.9569 848.68 99.3083 846.21 99.3083 842.888C99.3083 840.068 99.083 837.882 98.6326 836.33L92.6324 850.986C93.2811 852.123 94.173 852.691 95.3082 852.691Z" fill="url(#paint8_linear_175_198)" fill-opacity="0.6"/>
<path d="M96.9298 889.901H100.903V891.639H90.6054V889.901H95.2001V871.474L90.8216 874.655L90.0648 873.179L95.4703 869.114H96.9298V889.901Z" fill="url(#paint9_linear_175_198)" fill-opacity="0.6"/>
<path d="M95.3082 906.258C97.2361 906.258 98.6956 907.252 99.6866 909.242C100.696 911.209 101.2 914.072 101.2 917.832C101.2 921.592 100.696 924.466 99.6866 926.455C98.6956 928.445 97.2361 929.439 95.3082 929.439C93.3982 929.439 91.9387 928.445 90.9297 926.455C89.9207 924.466 89.4161 921.592 89.4161 917.832C89.4161 914.094 89.9207 911.231 90.9297 909.242C91.9387 907.252 93.3982 906.258 95.3082 906.258ZM91.3351 917.832C91.3351 920.499 91.5333 922.586 91.9297 924.095L97.9298 909.569C97.2992 908.542 96.4253 908.028 95.3082 908.028C94.0649 908.028 93.0919 908.837 92.3892 910.455C91.6865 912.05 91.3351 914.51 91.3351 917.832ZM95.3082 927.636C96.5695 927.636 97.5515 926.838 98.2542 925.242C98.9569 923.625 99.3083 921.155 99.3083 917.832C99.3083 915.012 99.083 912.826 98.6326 911.274L92.6324 925.931C93.2811 927.067 94.173 927.636 95.3082 927.636Z" fill="url(#paint10_linear_175_198)" fill-opacity="0.6"/>
<path d="M96.9298 964.846H100.903V966.583H90.6054V964.846H95.2001V946.419L90.8216 949.599L90.0648 948.124L95.4703 944.058H96.9298V964.846Z" fill="url(#paint11_linear_175_198)" fill-opacity="0.6"/>
<path d="M96.9298 1002.32H100.903V1004.06H90.6054V1002.32H95.2001V983.891L90.8216 987.071L90.0648 985.596L95.4703 981.53H96.9298V1002.32Z" fill="url(#paint12_linear_175_198)" fill-opacity="0.6"/>
<path d="M145.502 606.48C147.43 606.48 148.89 607.475 149.881 609.464C150.89 611.431 151.394 614.295 151.394 618.055C151.394 621.814 150.89 624.689 149.881 626.678C148.89 628.667 147.43 629.662 145.502 629.662C143.592 629.662 142.133 628.667 141.124 626.678C140.115 624.689 139.61 621.814 139.61 618.055C139.61 614.317 140.115 611.453 141.124 609.464C142.133 607.475 143.592 606.48 145.502 606.48ZM141.529 618.055C141.529 620.721 141.727 622.809 142.124 624.317L148.124 609.792C147.493 608.765 146.619 608.251 145.502 608.251C144.259 608.251 143.286 609.06 142.583 610.677C141.881 612.273 141.529 614.732 141.529 618.055ZM145.502 627.858C146.764 627.858 147.746 627.06 148.448 625.465C149.151 623.847 149.502 621.377 149.502 618.055C149.502 615.235 149.277 613.049 148.827 611.497L142.827 626.153C143.475 627.29 144.367 627.858 145.502 627.858Z" fill="url(#paint13_linear_175_198)" fill-opacity="0.6"/>
<path d="M147.124 665.068H151.097V666.806H140.799V665.068H145.394V646.641L141.016 649.822L140.259 648.346L145.664 644.28H147.124V665.068Z" fill="url(#paint14_linear_175_198)" fill-opacity="0.6"/>
<path d="M145.502 681.425C147.43 681.425 148.89 682.419 149.881 684.408C150.89 686.376 151.394 689.239 151.394 692.999C151.394 696.759 150.89 699.633 149.881 701.622C148.89 703.611 147.43 704.606 145.502 704.606C143.592 704.606 142.133 703.611 141.124 701.622C140.115 699.633 139.61 696.759 139.61 692.999C139.61 689.261 140.115 686.398 141.124 684.408C142.133 682.419 143.592 681.425 145.502 681.425ZM141.529 692.999C141.529 695.666 141.727 697.753 142.124 699.261L148.124 684.736C147.493 683.709 146.619 683.195 145.502 683.195C144.259 683.195 143.286 684.004 142.583 685.622C141.881 687.217 141.529 689.676 141.529 692.999ZM145.502 702.803C146.764 702.803 147.746 702.005 148.448 700.409C149.151 698.791 149.502 696.321 149.502 692.999C149.502 690.179 149.277 687.993 148.827 686.441L142.827 701.098C143.475 702.234 144.367 702.803 145.502 702.803Z" fill="url(#paint15_linear_175_198)" fill-opacity="0.6"/>
<path d="M145.502 718.897C147.43 718.897 148.89 719.891 149.881 721.881C150.89 723.848 151.394 726.711 151.394 730.471C151.394 734.231 150.89 737.105 149.881 739.094C148.89 741.084 147.43 742.078 145.502 742.078C143.592 742.078 142.133 741.084 141.124 739.094C140.115 737.105 139.61 734.231 139.61 730.471C139.61 726.733 140.115 723.87 141.124 721.881C142.133 719.891 143.592 718.897 145.502 718.897ZM141.529 730.471C141.529 733.138 141.727 735.225 142.124 736.734L148.124 722.208C147.493 721.181 146.619 720.667 145.502 720.667C144.259 720.667 143.286 721.476 142.583 723.094C141.881 724.689 141.529 727.149 141.529 730.471ZM145.502 740.275C146.764 740.275 147.746 739.477 148.448 737.881C149.151 736.264 149.502 733.794 149.502 730.471C149.502 727.651 149.277 725.465 148.827 723.913L142.827 738.57C143.475 739.706 144.367 740.275 145.502 740.275Z" fill="url(#paint16_linear_175_198)" fill-opacity="0.6"/>
<path d="M147.124 777.485H151.097V779.222H140.799V777.485H145.394V759.058L141.016 762.238L140.259 760.763L145.664 756.697H147.124V777.485Z" fill="url(#paint17_linear_175_198)" fill-opacity="0.6"/>
<path d="M145.502 793.841C147.43 793.841 148.89 794.836 149.881 796.825C150.89 798.792 151.394 801.656 151.394 805.416C151.394 809.175 150.89 812.05 149.881 814.039C148.89 816.028 147.43 817.023 145.502 817.023C143.592 817.023 142.133 816.028 141.124 814.039C140.115 812.05 139.61 809.175 139.61 805.416C139.61 801.678 140.115 798.814 141.124 796.825C142.133 794.836 143.592 793.841 145.502 793.841ZM141.529 805.416C141.529 808.082 141.727 810.17 142.124 811.678L148.124 797.153C147.493 796.126 146.619 795.612 145.502 795.612C144.259 795.612 143.286 796.421 142.583 798.038C141.881 799.634 141.529 802.093 141.529 805.416ZM145.502 815.219C146.764 815.219 147.746 814.421 148.448 812.826C149.151 811.208 149.502 808.738 149.502 805.416C149.502 802.596 149.277 800.41 148.827 798.858L142.827 813.514C143.475 814.651 144.367 815.219 145.502 815.219Z" fill="url(#paint18_linear_175_198)" fill-opacity="0.6"/>
<path d="M147.124 852.429H151.097V854.167H140.799V852.429H145.394V834.002L141.016 837.183L140.259 835.707L145.664 831.641H147.124V852.429Z" fill="url(#paint19_linear_175_198)" fill-opacity="0.6"/>
<path d="M145.502 868.786C147.43 868.786 148.89 869.78 149.881 871.769C150.89 873.737 151.394 876.6 151.394 880.36C151.394 884.12 150.89 886.994 149.881 888.983C148.89 890.972 147.43 891.967 145.502 891.967C143.592 891.967 142.133 890.972 141.124 888.983C140.115 886.994 139.61 884.12 139.61 880.36C139.61 876.622 140.115 873.759 141.124 871.769C142.133 869.78 143.592 868.786 145.502 868.786ZM141.529 880.36C141.529 883.027 141.727 885.114 142.124 886.622L148.124 872.097C147.493 871.07 146.619 870.556 145.502 870.556C144.259 870.556 143.286 871.365 142.583 872.983C141.881 874.578 141.529 877.037 141.529 880.36ZM145.502 890.164C146.764 890.164 147.746 889.366 148.448 887.77C149.151 886.152 149.502 883.682 149.502 880.36C149.502 877.54 149.277 875.354 148.827 873.802L142.827 888.459C143.475 889.595 144.367 890.164 145.502 890.164Z" fill="url(#paint20_linear_175_198)" fill-opacity="0.6"/>
<path d="M145.502 906.258C147.43 906.258 148.89 907.252 149.881 909.242C150.89 911.209 151.394 914.072 151.394 917.832C151.394 921.592 150.89 924.466 149.881 926.455C148.89 928.445 147.43 929.439 145.502 929.439C143.592 929.439 142.133 928.445 141.124 926.455C140.115 924.466 139.61 921.592 139.61 917.832C139.61 914.094 140.115 911.231 141.124 909.242C142.133 907.252 143.592 906.258 145.502 906.258ZM141.529 917.832C141.529 920.499 141.727 922.586 142.124 924.095L148.124 909.569C147.493 908.542 146.619 908.028 145.502 908.028C144.259 908.028 143.286 908.837 142.583 910.455C141.881 912.05 141.529 914.51 141.529 917.832ZM145.502 927.636C146.764 927.636 147.746 926.838 148.448 925.242C149.151 923.625 149.502 921.155 149.502 917.832C149.502 915.012 149.277 912.826 148.827 911.274L142.827 925.931C143.475 927.067 144.367 927.636 145.502 927.636Z" fill="url(#paint21_linear_175_198)" fill-opacity="0.6"/>
<path d="M147.124 964.846H151.097V966.583H140.799V964.846H145.394V946.419L141.016 949.599L140.259 948.124L145.664 944.058H147.124V964.846Z" fill="url(#paint22_linear_175_198)" fill-opacity="0.6"/>
<path d="M145.502 981.202C147.43 981.202 148.89 982.197 149.881 984.186C150.89 986.153 151.394 989.017 151.394 992.776C151.394 996.536 150.89 999.411 149.881 1001.4C148.89 1003.39 147.43 1004.38 145.502 1004.38C143.592 1004.38 142.133 1003.39 141.124 1001.4C140.115 999.411 139.61 996.536 139.61 992.776C139.61 989.039 140.115 986.175 141.124 984.186C142.133 982.197 143.592 981.202 145.502 981.202ZM141.529 992.776C141.529 995.443 141.727 997.531 142.124 999.039L148.124 984.514C147.493 983.487 146.619 982.973 145.502 982.973C144.259 982.973 143.286 983.782 142.583 985.399C141.881 986.995 141.529 989.454 141.529 992.776ZM145.502 1002.58C146.764 1002.58 147.746 1001.78 148.448 1000.19C149.151 998.569 149.502 996.099 149.502 992.776C149.502 989.957 149.277 987.771 148.827 986.219L142.827 1000.88C143.475 1002.01 144.367 1002.58 145.502 1002.58Z" fill="url(#paint23_linear_175_198)" fill-opacity="0.6"/>
<path d="M147.124 1039.79H151.097V1041.53H140.799V1039.79H145.394V1021.36L141.016 1024.54L140.259 1023.07L145.664 1019H147.124V1039.79Z" fill="url(#paint24_linear_175_198)" fill-opacity="0.6"/>
<path d="M147.124 1077.26H151.097V1079H140.799V1077.26H145.394V1058.84L141.016 1062.02L140.259 1060.54L145.664 1056.47H147.124V1077.26Z" fill="url(#paint25_linear_175_198)" fill-opacity="0.6"/>
<path d="M70.2111 643.952C72.1391 643.952 73.5986 644.947 74.5896 646.936C75.5986 648.904 76.1031 651.767 76.1031 655.527C76.1031 659.286 75.5986 662.161 74.5896 664.15C73.5986 666.139 72.1391 667.134 70.2111 667.134C68.3012 667.134 66.8417 666.139 65.8326 664.15C64.8236 662.161 64.3191 659.286 64.3191 655.527C64.3191 651.789 64.8236 648.925 65.8326 646.936C66.8417 644.947 68.3012 643.952 70.2111 643.952ZM66.2381 655.527C66.2381 658.193 66.4363 660.281 66.8327 661.789L72.8328 647.264C72.2021 646.237 71.3282 645.723 70.2111 645.723C68.9678 645.723 67.9948 646.532 67.2921 648.149C66.5894 649.745 66.2381 652.204 66.2381 655.527ZM70.2111 665.33C71.4724 665.33 72.4544 664.533 73.1571 662.937C73.8598 661.319 74.2112 658.849 74.2112 655.527C74.2112 652.707 73.986 650.521 73.5355 648.969L67.5354 663.625C68.184 664.762 69.0759 665.33 70.2111 665.33Z" fill="url(#paint26_linear_175_198)" fill-opacity="0.6"/>
<path d="M70.2111 681.425C72.1391 681.425 73.5986 682.419 74.5896 684.408C75.5986 686.376 76.1031 689.239 76.1031 692.999C76.1031 696.759 75.5986 699.633 74.5896 701.622C73.5986 703.611 72.1391 704.606 70.2111 704.606C68.3012 704.606 66.8417 703.611 65.8326 701.622C64.8236 699.633 64.3191 696.759 64.3191 692.999C64.3191 689.261 64.8236 686.398 65.8326 684.408C66.8417 682.419 68.3012 681.425 70.2111 681.425ZM66.2381 692.999C66.2381 695.666 66.4363 697.753 66.8327 699.261L72.8328 684.736C72.2021 683.709 71.3282 683.195 70.2111 683.195C68.9678 683.195 67.9948 684.004 67.2921 685.622C66.5894 687.217 66.2381 689.676 66.2381 692.999ZM70.2111 702.803C71.4724 702.803 72.4544 702.005 73.1571 700.409C73.8598 698.791 74.2112 696.321 74.2112 692.999C74.2112 690.179 73.986 687.993 73.5355 686.441L67.5354 701.098C68.184 702.234 69.0759 702.803 70.2111 702.803Z" fill="url(#paint27_linear_175_198)" fill-opacity="0.6"/>
<path d="M71.8328 740.012H75.8058V741.75H65.5083V740.012H70.103V721.586L65.7245 724.766L64.9678 723.29L70.3733 719.225H71.8328V740.012Z" fill="url(#paint28_linear_175_198)" fill-opacity="0.6"/>
<path d="M70.2111 756.369C72.1391 756.369 73.5986 757.364 74.5896 759.353C75.5986 761.32 76.1031 764.184 76.1031 767.943C76.1031 771.703 75.5986 774.577 74.5896 776.567C73.5986 778.556 72.1391 779.55 70.2111 779.55C68.3012 779.55 66.8417 778.556 65.8326 776.567C64.8236 774.577 64.3191 771.703 64.3191 767.943C64.3191 764.205 64.8236 761.342 65.8326 759.353C66.8417 757.364 68.3012 756.369 70.2111 756.369ZM66.2381 767.943C66.2381 770.61 66.4363 772.698 66.8327 774.206L72.8328 759.681C72.2021 758.653 71.3282 758.14 70.2111 758.14C68.9678 758.14 67.9948 758.948 67.2921 760.566C66.5894 762.162 66.2381 764.621 66.2381 767.943ZM70.2111 777.747C71.4724 777.747 72.4544 776.949 73.1571 775.353C73.8598 773.736 74.2112 771.266 74.2112 767.943C74.2112 765.124 73.986 762.938 73.5355 761.386L67.5354 776.042C68.184 777.179 69.0759 777.747 70.2111 777.747Z" fill="url(#paint29_linear_175_198)" fill-opacity="0.6"/>
<path d="M71.8328 814.957H75.8058V816.695H65.5083V814.957H70.103V796.53L65.7245 799.71L64.9678 798.235L70.3733 794.169H71.8328V814.957Z" fill="url(#paint30_linear_175_198)" fill-opacity="0.6"/>
<path d="M71.8328 852.429H75.8058V854.167H65.5083V852.429H70.103V834.002L65.7245 837.183L64.9678 835.707L70.3733 831.641H71.8328V852.429Z" fill="url(#paint31_linear_175_198)" fill-opacity="0.6"/>
<path d="M122.027 590.124H126V591.861H115.702V590.124H120.297V571.697L115.919 574.877L115.162 573.402L120.567 569.336H122.027V590.124Z" fill="url(#paint32_linear_175_198)" fill-opacity="0.6"/>
<path d="M120.405 606.48C122.333 606.48 123.793 607.475 124.784 609.464C125.793 611.431 126.297 614.295 126.297 618.055C126.297 621.814 125.793 624.689 124.784 626.678C123.793 628.667 122.333 629.662 120.405 629.662C118.495 629.662 117.036 628.667 116.027 626.678C115.018 624.689 114.513 621.814 114.513 618.055C114.513 614.317 115.018 611.453 116.027 609.464C117.036 607.475 118.495 606.48 120.405 606.48ZM116.432 618.055C116.432 620.721 116.63 622.809 117.027 624.317L123.027 609.792C122.396 608.765 121.522 608.251 120.405 608.251C119.162 608.251 118.189 609.06 117.486 610.677C116.784 612.273 116.432 614.732 116.432 618.055ZM120.405 627.858C121.667 627.858 122.649 627.06 123.351 625.465C124.054 623.847 124.405 621.377 124.405 618.055C124.405 615.235 124.18 613.049 123.73 611.497L117.729 626.153C118.378 627.29 119.27 627.858 120.405 627.858Z" fill="url(#paint33_linear_175_198)" fill-opacity="0.6"/>
<path d="M122.027 665.068H126V666.806H115.702V665.068H120.297V646.641L115.919 649.822L115.162 648.346L120.567 644.28H122.027V665.068Z" fill="url(#paint34_linear_175_198)" fill-opacity="0.6"/>
<path d="M122.027 702.54H126V704.278H115.702V702.54H120.297V684.113L115.919 687.294L115.162 685.818L120.567 681.753H122.027V702.54Z" fill="url(#paint35_linear_175_198)" fill-opacity="0.6"/>
<path d="M120.405 718.897C122.333 718.897 123.793 719.891 124.784 721.881C125.793 723.848 126.297 726.711 126.297 730.471C126.297 734.231 125.793 737.105 124.784 739.094C123.793 741.084 122.333 742.078 120.405 742.078C118.495 742.078 117.036 741.084 116.027 739.094C115.018 737.105 114.513 734.231 114.513 730.471C114.513 726.733 115.018 723.87 116.027 721.881C117.036 719.891 118.495 718.897 120.405 718.897ZM116.432 730.471C116.432 733.138 116.63 735.225 117.027 736.734L123.027 722.208C122.396 721.181 121.522 720.667 120.405 720.667C119.162 720.667 118.189 721.476 117.486 723.094C116.784 724.689 116.432 727.149 116.432 730.471ZM120.405 740.275C121.667 740.275 122.649 739.477 123.351 737.881C124.054 736.264 124.405 733.794 124.405 730.471C124.405 727.651 124.18 725.465 123.73 723.913L117.729 738.57C118.378 739.706 119.27 740.275 120.405 740.275Z" fill="url(#paint36_linear_175_198)" fill-opacity="0.6"/>
<path d="M122.027 777.485H126V779.222H115.702V777.485H120.297V759.058L115.919 762.238L115.162 760.763L120.567 756.697H122.027V777.485Z" fill="url(#paint37_linear_175_198)" fill-opacity="0.6"/>
<path d="M122.027 814.957H126V816.695H115.702V814.957H120.297V796.53L115.919 799.71L115.162 798.235L120.567 794.169H122.027V814.957Z" fill="url(#paint38_linear_175_198)" fill-opacity="0.6"/>
<path d="M120.405 831.313C122.333 831.313 123.793 832.308 124.784 834.297C125.793 836.265 126.297 839.128 126.297 842.888C126.297 846.647 125.793 849.522 124.784 851.511C123.793 853.5 122.333 854.495 120.405 854.495C118.495 854.495 117.036 853.5 116.027 851.511C115.018 849.522 114.513 846.647 114.513 842.888C114.513 839.15 115.018 836.286 116.027 834.297C117.036 832.308 118.495 831.313 120.405 831.313ZM116.432 842.888C116.432 845.554 116.63 847.642 117.027 849.15L123.027 834.625C122.396 833.598 121.522 833.084 120.405 833.084C119.162 833.084 118.189 833.893 117.486 835.51C116.784 837.106 116.432 839.565 116.432 842.888ZM120.405 852.691C121.667 852.691 122.649 851.894 123.351 850.298C124.054 848.68 124.405 846.21 124.405 842.888C124.405 840.068 124.18 837.882 123.73 836.33L117.729 850.986C118.378 852.123 119.27 852.691 120.405 852.691Z" fill="url(#paint39_linear_175_198)" fill-opacity="0.6"/>
<path d="M122.027 889.901H126V891.639H115.702V889.901H120.297V871.474L115.919 874.655L115.162 873.179L120.567 869.114H122.027V889.901Z" fill="url(#paint40_linear_175_198)" fill-opacity="0.6"/>
<path d="M120.405 906.258C122.333 906.258 123.793 907.252 124.784 909.242C125.793 911.209 126.297 914.072 126.297 917.832C126.297 921.592 125.793 924.466 124.784 926.455C123.793 928.445 122.333 929.439 120.405 929.439C118.495 929.439 117.036 928.445 116.027 926.455C115.018 924.466 114.513 921.592 114.513 917.832C114.513 914.094 115.018 911.231 116.027 909.242C117.036 907.252 118.495 906.258 120.405 906.258ZM116.432 917.832C116.432 920.499 116.63 922.586 117.027 924.095L123.027 909.569C122.396 908.542 121.522 908.028 120.405 908.028C119.162 908.028 118.189 908.837 117.486 910.455C116.784 912.05 116.432 914.51 116.432 917.832ZM120.405 927.636C121.667 927.636 122.649 926.838 123.351 925.242C124.054 923.625 124.405 921.155 124.405 917.832C124.405 915.012 124.18 912.826 123.73 911.274L117.729 925.931C118.378 927.067 119.27 927.636 120.405 927.636Z" fill="url(#paint41_linear_175_198)" fill-opacity="0.6"/>
<path d="M170.599 569.008C172.527 569.008 173.987 570.003 174.978 571.992C175.987 573.959 176.491 576.823 176.491 580.582C176.491 584.342 175.987 587.216 174.978 589.206C173.987 591.195 172.527 592.189 170.599 592.189C168.689 592.189 167.23 591.195 166.221 589.206C165.212 587.216 164.707 584.342 164.707 580.582C164.707 576.844 165.212 573.981 166.221 571.992C167.23 570.003 168.689 569.008 170.599 569.008ZM166.626 580.582C166.626 583.249 166.824 585.337 167.221 586.845L173.221 572.32C172.59 571.292 171.716 570.779 170.599 570.779C169.356 570.779 168.383 571.587 167.68 573.205C166.978 574.801 166.626 577.26 166.626 580.582ZM170.599 590.386C171.861 590.386 172.843 589.588 173.545 587.992C174.248 586.375 174.599 583.905 174.599 580.582C174.599 577.763 174.374 575.577 173.924 574.025L167.924 588.681C168.572 589.818 169.464 590.386 170.599 590.386Z" fill="url(#paint42_linear_175_198)" fill-opacity="0.6"/>
<path d="M172.221 627.596H176.194V629.334H165.897V627.596H170.491V609.169L166.113 612.349L165.356 610.874L170.762 606.808H172.221V627.596Z" fill="url(#paint43_linear_175_198)" fill-opacity="0.6"/>
<path d="M172.221 665.068H176.194V666.806H165.897V665.068H170.491V646.641L166.113 649.822L165.356 648.346L170.762 644.28H172.221V665.068Z" fill="url(#paint44_linear_175_198)" fill-opacity="0.6"/>
<path d="M170.599 681.425C172.527 681.425 173.987 682.419 174.978 684.408C175.987 686.376 176.491 689.239 176.491 692.999C176.491 696.759 175.987 699.633 174.978 701.622C173.987 703.611 172.527 704.606 170.599 704.606C168.689 704.606 167.23 703.611 166.221 701.622C165.212 699.633 164.707 696.759 164.707 692.999C164.707 689.261 165.212 686.398 166.221 684.408C167.23 682.419 168.689 681.425 170.599 681.425ZM166.626 692.999C166.626 695.666 166.824 697.753 167.221 699.261L173.221 684.736C172.59 683.709 171.716 683.195 170.599 683.195C169.356 683.195 168.383 684.004 167.68 685.622C166.978 687.217 166.626 689.676 166.626 692.999ZM170.599 702.803C171.861 702.803 172.843 702.005 173.545 700.409C174.248 698.791 174.599 696.321 174.599 692.999C174.599 690.179 174.374 687.993 173.924 686.441L167.924 701.098C168.572 702.234 169.464 702.803 170.599 702.803Z" fill="url(#paint45_linear_175_198)" fill-opacity="0.6"/>
<path d="M170.599 718.897C172.527 718.897 173.987 719.891 174.978 721.881C175.987 723.848 176.491 726.711 176.491 730.471C176.491 734.231 175.987 737.105 174.978 739.094C173.987 741.084 172.527 742.078 170.599 742.078C168.689 742.078 167.23 741.084 166.221 739.094C165.212 737.105 164.707 734.231 164.707 730.471C164.707 726.733 165.212 723.87 166.221 721.881C167.23 719.891 168.689 718.897 170.599 718.897ZM166.626 730.471C166.626 733.138 166.824 735.225 167.221 736.734L173.221 722.208C172.59 721.181 171.716 720.667 170.599 720.667C169.356 720.667 168.383 721.476 167.68 723.094C166.978 724.689 166.626 727.149 166.626 730.471ZM170.599 740.275C171.861 740.275 172.843 739.477 173.545 737.881C174.248 736.264 174.599 733.794 174.599 730.471C174.599 727.651 174.374 725.465 173.924 723.913L167.924 738.57C168.572 739.706 169.464 740.275 170.599 740.275Z" fill="url(#paint46_linear_175_198)" fill-opacity="0.6"/>
<g opacity="0.6">
<path d="M1238.81 58.224C1240.65 58.224 1242.05 59.1784 1242.99 61.0873C1243.95 62.9753 1244.44 65.7232 1244.44 69.3313C1244.44 72.9393 1243.95 75.6977 1242.99 77.6066C1242.05 79.5155 1240.65 80.47 1238.81 80.47C1236.99 80.47 1235.6 79.5155 1234.64 77.6066C1233.67 75.6977 1233.19 72.9393 1233.19 69.3313C1233.19 65.7442 1233.67 62.9962 1234.64 61.0873C1235.6 59.1784 1236.99 58.224 1238.81 58.224ZM1235.02 69.3313C1235.02 71.8904 1235.21 73.8937 1235.59 75.3411L1241.32 61.402C1240.71 60.4161 1239.88 59.9231 1238.81 59.9231C1237.63 59.9231 1236.7 60.6993 1236.03 62.2516C1235.36 63.7829 1235.02 66.1428 1235.02 69.3313ZM1238.81 78.7394C1240.02 78.7394 1240.95 77.9737 1241.62 76.4424C1242.3 74.8901 1242.63 72.5197 1242.63 69.3313C1242.63 66.6252 1242.42 64.5275 1241.99 63.0382L1236.26 77.1032C1236.88 78.194 1237.73 78.7394 1238.81 78.7394Z" fill="url(#paint47_linear_175_198)"/>
<path d="M1240.36 114.448H1244.15V116.116H1234.33V114.448H1238.71V96.7645L1234.53 99.8166L1233.81 98.4007L1238.97 94.499H1240.36V114.448Z" fill="url(#paint48_linear_175_198)"/>
<path d="M1238.81 130.145C1240.65 130.145 1242.05 131.099 1242.99 133.008C1243.95 134.896 1244.44 137.644 1244.44 141.252C1244.44 144.86 1243.95 147.618 1242.99 149.527C1242.05 151.436 1240.65 152.391 1238.81 152.391C1236.99 152.391 1235.6 151.436 1234.64 149.527C1233.67 147.618 1233.19 144.86 1233.19 141.252C1233.19 137.665 1233.67 134.917 1234.64 133.008C1235.6 131.099 1236.99 130.145 1238.81 130.145ZM1235.02 141.252C1235.02 143.811 1235.21 145.814 1235.59 147.262L1241.32 133.323C1240.71 132.337 1239.88 131.844 1238.81 131.844C1237.63 131.844 1236.7 132.62 1236.03 134.172C1235.36 135.704 1235.02 138.063 1235.02 141.252ZM1238.81 150.66C1240.02 150.66 1240.95 149.894 1241.62 148.363C1242.3 146.811 1242.63 144.44 1242.63 141.252C1242.63 138.546 1242.42 136.448 1241.99 134.959L1236.26 149.024C1236.88 150.115 1237.73 150.66 1238.81 150.66Z" fill="url(#paint49_linear_175_198)"/>
<path d="M1240.36 186.369H1244.15V188.036H1234.33V186.369H1238.71V168.685L1234.53 171.737L1233.81 170.321L1238.97 166.42H1240.36V186.369Z" fill="url(#paint50_linear_175_198)"/>
<path d="M1240.36 222.329H1244.15V223.997H1234.33V222.329H1238.71V204.646L1234.53 207.698L1233.81 206.282L1238.97 202.38H1240.36V222.329Z" fill="url(#paint51_linear_175_198)"/>
<path d="M1238.81 238.026C1240.65 238.026 1242.05 238.98 1242.99 240.889C1243.95 242.777 1244.44 245.525 1244.44 249.133C1244.44 252.741 1243.95 255.499 1242.99 257.408C1242.05 259.317 1240.65 260.272 1238.81 260.272C1236.99 260.272 1235.6 259.317 1234.64 257.408C1233.67 255.499 1233.19 252.741 1233.19 249.133C1233.19 245.546 1233.67 242.798 1234.64 240.889C1235.6 238.98 1236.99 238.026 1238.81 238.026ZM1235.02 249.133C1235.02 251.692 1235.21 253.695 1235.59 255.143L1241.32 241.204C1240.71 240.218 1239.88 239.725 1238.81 239.725C1237.63 239.725 1236.7 240.501 1236.03 242.053C1235.36 243.585 1235.02 245.945 1235.02 249.133ZM1238.81 258.541C1240.02 258.541 1240.95 257.775 1241.62 256.244C1242.3 254.692 1242.63 252.321 1242.63 249.133C1242.63 246.427 1242.42 244.329 1241.99 242.84L1236.26 256.905C1236.88 257.996 1237.73 258.541 1238.81 258.541Z" fill="url(#paint52_linear_175_198)"/>
<path d="M1240.36 294.25H1244.15V295.917H1234.33V294.25H1238.71V276.566L1234.53 279.618L1233.81 278.202L1238.97 274.301H1240.36V294.25Z" fill="url(#paint53_linear_175_198)"/>
<path d="M1238.81 309.946C1240.65 309.946 1242.05 310.901 1242.99 312.81C1243.95 314.698 1244.44 317.446 1244.44 321.054C1244.44 324.662 1243.95 327.42 1242.99 329.329C1242.05 331.238 1240.65 332.192 1238.81 332.192C1236.99 332.192 1235.6 331.238 1234.64 329.329C1233.67 327.42 1233.19 324.662 1233.19 321.054C1233.19 317.467 1233.67 314.719 1234.64 312.81C1235.6 310.901 1236.99 309.946 1238.81 309.946ZM1235.02 321.054C1235.02 323.613 1235.21 325.616 1235.59 327.064L1241.32 313.124C1240.71 312.139 1239.88 311.646 1238.81 311.646C1237.63 311.646 1236.7 312.422 1236.03 313.974C1235.36 315.505 1235.02 317.865 1235.02 321.054ZM1238.81 330.462C1240.02 330.462 1240.95 329.696 1241.62 328.165C1242.3 326.613 1242.63 324.242 1242.63 321.054C1242.63 318.348 1242.42 316.25 1241.99 314.761L1236.26 328.826C1236.88 329.916 1237.73 330.462 1238.81 330.462Z" fill="url(#paint54_linear_175_198)"/>
<path d="M1238.81 345.907C1240.65 345.907 1242.05 346.861 1242.99 348.77C1243.95 350.658 1244.44 353.406 1244.44 357.014C1244.44 360.622 1243.95 363.38 1242.99 365.289C1242.05 367.198 1240.65 368.153 1238.81 368.153C1236.99 368.153 1235.6 367.198 1234.64 365.289C1233.67 363.38 1233.19 360.622 1233.19 357.014C1233.19 353.427 1233.67 350.679 1234.64 348.77C1235.6 346.861 1236.99 345.907 1238.81 345.907ZM1235.02 357.014C1235.02 359.573 1235.21 361.576 1235.59 363.024L1241.32 349.085C1240.71 348.099 1239.88 347.606 1238.81 347.606C1237.63 347.606 1236.7 348.382 1236.03 349.934C1235.36 351.466 1235.02 353.826 1235.02 357.014ZM1238.81 366.422C1240.02 366.422 1240.95 365.656 1241.62 364.125C1242.3 362.573 1242.63 360.203 1242.63 357.014C1242.63 354.308 1242.42 352.21 1241.99 350.721L1236.26 364.786C1236.88 365.877 1237.73 366.422 1238.81 366.422Z" fill="url(#paint55_linear_175_198)"/>
<path d="M1240.36 402.131H1244.15V403.798H1234.33V402.131H1238.71V384.447L1234.53 387.499L1233.81 386.083L1238.97 382.182H1240.36V402.131Z" fill="url(#paint56_linear_175_198)"/>
<path d="M1238.81 417.827C1240.65 417.827 1242.05 418.782 1242.99 420.691C1243.95 422.579 1244.44 425.327 1244.44 428.935C1244.44 432.543 1243.95 435.301 1242.99 437.21C1242.05 439.119 1240.65 440.073 1238.81 440.073C1236.99 440.073 1235.6 439.119 1234.64 437.21C1233.67 435.301 1233.19 432.543 1233.19 428.935C1233.19 425.348 1233.67 422.6 1234.64 420.691C1235.6 418.782 1236.99 417.827 1238.81 417.827ZM1235.02 428.935C1235.02 431.494 1235.21 433.497 1235.59 434.945L1241.32 421.005C1240.71 420.02 1239.88 419.527 1238.81 419.527C1237.63 419.527 1236.7 420.303 1236.03 421.855C1235.36 423.386 1235.02 425.746 1235.02 428.935ZM1238.81 438.343C1240.02 438.343 1240.95 437.577 1241.62 436.046C1242.3 434.494 1242.63 432.123 1242.63 428.935C1242.63 426.229 1242.42 424.131 1241.99 422.642L1236.26 436.707C1236.88 437.797 1237.73 438.343 1238.81 438.343Z" fill="url(#paint57_linear_175_198)"/>
<path d="M1240.36 474.051H1244.15V475.719H1234.33V474.051H1238.71V456.368L1234.53 459.42L1233.81 458.004L1238.97 454.102H1240.36V474.051Z" fill="url(#paint58_linear_175_198)"/>
<path d="M1240.36 510.012H1244.15V511.679H1234.33V510.012H1238.71V492.328L1234.53 495.38L1233.81 493.965L1238.97 490.063H1240.36V510.012Z" fill="url(#paint59_linear_175_198)"/>
<path d="M1286.7 130.145C1288.54 130.145 1289.93 131.099 1290.88 133.008C1291.84 134.896 1292.32 137.644 1292.32 141.252C1292.32 144.86 1291.84 147.618 1290.88 149.527C1289.93 151.436 1288.54 152.391 1286.7 152.391C1284.88 152.391 1283.49 151.436 1282.52 149.527C1281.56 147.618 1281.08 144.86 1281.08 141.252C1281.08 137.665 1281.56 134.917 1282.52 133.008C1283.49 131.099 1284.88 130.145 1286.7 130.145ZM1282.91 141.252C1282.91 143.811 1283.1 145.814 1283.48 147.262L1289.2 133.323C1288.6 132.337 1287.77 131.844 1286.7 131.844C1285.51 131.844 1284.59 132.62 1283.92 134.172C1283.25 135.704 1282.91 138.063 1282.91 141.252ZM1286.7 150.66C1287.9 150.66 1288.84 149.894 1289.51 148.363C1290.18 146.811 1290.52 144.44 1290.52 141.252C1290.52 138.546 1290.3 136.448 1289.87 134.959L1284.15 149.024C1284.77 150.115 1285.62 150.66 1286.7 150.66Z" fill="url(#paint60_linear_175_198)"/>
<path d="M1288.25 186.369H1292.04V188.036H1282.21V186.369H1286.6V168.685L1282.42 171.737L1281.7 170.321L1286.86 166.42H1288.25V186.369Z" fill="url(#paint61_linear_175_198)"/>
<path d="M1286.7 202.065C1288.54 202.065 1289.93 203.02 1290.88 204.929C1291.84 206.817 1292.32 209.565 1292.32 213.173C1292.32 216.781 1291.84 219.539 1290.88 221.448C1289.93 223.357 1288.54 224.311 1286.7 224.311C1284.88 224.311 1283.49 223.357 1282.52 221.448C1281.56 219.539 1281.08 216.781 1281.08 213.173C1281.08 209.586 1281.56 206.838 1282.52 204.929C1283.49 203.02 1284.88 202.065 1286.7 202.065ZM1282.91 213.173C1282.91 215.732 1283.1 217.735 1283.48 219.183L1289.2 205.243C1288.6 204.257 1287.77 203.765 1286.7 203.765C1285.51 203.765 1284.59 204.541 1283.92 206.093C1283.25 207.624 1282.91 209.984 1282.91 213.173ZM1286.7 222.581C1287.9 222.581 1288.84 221.815 1289.51 220.284C1290.18 218.732 1290.52 216.361 1290.52 213.173C1290.52 210.467 1290.3 208.369 1289.87 206.88L1284.15 220.945C1284.77 222.035 1285.62 222.581 1286.7 222.581Z" fill="url(#paint62_linear_175_198)"/>
<path d="M1286.7 238.026C1288.54 238.026 1289.93 238.98 1290.88 240.889C1291.84 242.777 1292.32 245.525 1292.32 249.133C1292.32 252.741 1291.84 255.499 1290.88 257.408C1289.93 259.317 1288.54 260.272 1286.7 260.272C1284.88 260.272 1283.49 259.317 1282.52 257.408C1281.56 255.499 1281.08 252.741 1281.08 249.133C1281.08 245.546 1281.56 242.798 1282.52 240.889C1283.49 238.98 1284.88 238.026 1286.7 238.026ZM1282.91 249.133C1282.91 251.692 1283.1 253.695 1283.48 255.143L1289.2 241.204C1288.6 240.218 1287.77 239.725 1286.7 239.725C1285.51 239.725 1284.59 240.501 1283.92 242.053C1283.25 243.585 1282.91 245.945 1282.91 249.133ZM1286.7 258.541C1287.9 258.541 1288.84 257.775 1289.51 256.244C1290.18 254.692 1290.52 252.321 1290.52 249.133C1290.52 246.427 1290.3 244.329 1289.87 242.84L1284.15 256.905C1284.77 257.996 1285.62 258.541 1286.7 258.541Z" fill="url(#paint63_linear_175_198)"/>
<path d="M1288.25 294.25H1292.04V295.917H1282.21V294.25H1286.6V276.566L1282.42 279.618L1281.7 278.202L1286.86 274.301H1288.25V294.25Z" fill="url(#paint64_linear_175_198)"/>
<path d="M1286.7 309.946C1288.54 309.946 1289.93 310.901 1290.88 312.81C1291.84 314.698 1292.32 317.446 1292.32 321.054C1292.32 324.662 1291.84 327.42 1290.88 329.329C1289.93 331.238 1288.54 332.192 1286.7 332.192C1284.88 332.192 1283.49 331.238 1282.52 329.329C1281.56 327.42 1281.08 324.662 1281.08 321.054C1281.08 317.467 1281.56 314.719 1282.52 312.81C1283.49 310.901 1284.88 309.946 1286.7 309.946ZM1282.91 321.054C1282.91 323.613 1283.1 325.616 1283.48 327.064L1289.2 313.124C1288.6 312.139 1287.77 311.646 1286.7 311.646C1285.51 311.646 1284.59 312.422 1283.92 313.974C1283.25 315.505 1282.91 317.865 1282.91 321.054ZM1286.7 330.462C1287.9 330.462 1288.84 329.696 1289.51 328.165C1290.18 326.613 1290.52 324.242 1290.52 321.054C1290.52 318.348 1290.3 316.25 1289.87 314.761L1284.15 328.826C1284.77 329.916 1285.62 330.462 1286.7 330.462Z" fill="url(#paint65_linear_175_198)"/>
<path d="M1288.25 366.17H1292.04V367.838H1282.21V366.17H1286.6V348.487L1282.42 351.539L1281.7 350.123L1286.86 346.221H1288.25V366.17Z" fill="url(#paint66_linear_175_198)"/>
<path d="M1286.7 381.867C1288.54 381.867 1289.93 382.822 1290.88 384.73C1291.84 386.618 1292.32 389.366 1292.32 392.974C1292.32 396.582 1291.84 399.341 1290.88 401.25C1289.93 403.159 1288.54 404.113 1286.7 404.113C1284.88 404.113 1283.49 403.159 1282.52 401.25C1281.56 399.341 1281.08 396.582 1281.08 392.974C1281.08 389.387 1281.56 386.639 1282.52 384.73C1283.49 382.822 1284.88 381.867 1286.7 381.867ZM1282.91 392.974C1282.91 395.534 1283.1 397.537 1283.48 398.984L1289.2 385.045C1288.6 384.059 1287.77 383.566 1286.7 383.566C1285.51 383.566 1284.59 384.342 1283.92 385.895C1283.25 387.426 1282.91 389.786 1282.91 392.974ZM1286.7 402.383C1287.9 402.383 1288.84 401.617 1289.51 400.086C1290.18 398.533 1290.52 396.163 1290.52 392.974C1290.52 390.268 1290.3 388.171 1289.87 386.681L1284.15 400.746C1284.77 401.837 1285.62 402.383 1286.7 402.383Z" fill="url(#paint67_linear_175_198)"/>
<path d="M1286.7 417.827C1288.54 417.827 1289.93 418.782 1290.88 420.691C1291.84 422.579 1292.32 425.327 1292.32 428.935C1292.32 432.543 1291.84 435.301 1290.88 437.21C1289.93 439.119 1288.54 440.073 1286.7 440.073C1284.88 440.073 1283.49 439.119 1282.52 437.21C1281.56 435.301 1281.08 432.543 1281.08 428.935C1281.08 425.348 1281.56 422.6 1282.52 420.691C1283.49 418.782 1284.88 417.827 1286.7 417.827ZM1282.91 428.935C1282.91 431.494 1283.1 433.497 1283.48 434.945L1289.2 421.005C1288.6 420.02 1287.77 419.527 1286.7 419.527C1285.51 419.527 1284.59 420.303 1283.92 421.855C1283.25 423.386 1282.91 425.746 1282.91 428.935ZM1286.7 438.343C1287.9 438.343 1288.84 437.577 1289.51 436.046C1290.18 434.494 1290.52 432.123 1290.52 428.935C1290.52 426.229 1290.3 424.131 1289.87 422.642L1284.15 436.707C1284.77 437.797 1285.62 438.343 1286.7 438.343Z" fill="url(#paint68_linear_175_198)"/>
<path d="M1288.25 474.051H1292.04V475.719H1282.21V474.051H1286.6V456.368L1282.42 459.42L1281.7 458.004L1286.86 454.102H1288.25V474.051Z" fill="url(#paint69_linear_175_198)"/>
<path d="M1286.7 489.748C1288.54 489.748 1289.93 490.703 1290.88 492.611C1291.84 494.499 1292.32 497.247 1292.32 500.855C1292.32 504.463 1291.84 507.222 1290.88 509.131C1289.93 511.04 1288.54 511.994 1286.7 511.994C1284.88 511.994 1283.49 511.04 1282.52 509.131C1281.56 507.222 1281.08 504.463 1281.08 500.855C1281.08 497.268 1281.56 494.52 1282.52 492.611C1283.49 490.703 1284.88 489.748 1286.7 489.748ZM1282.91 500.855C1282.91 503.415 1283.1 505.418 1283.48 506.865L1289.2 492.926C1288.6 491.94 1287.77 491.447 1286.7 491.447C1285.51 491.447 1284.59 492.223 1283.92 493.776C1283.25 495.307 1282.91 497.667 1282.91 500.855ZM1286.7 510.264C1287.9 510.264 1288.84 509.498 1289.51 507.967C1290.18 506.414 1290.52 504.044 1290.52 500.855C1290.52 498.149 1290.3 496.052 1289.87 494.562L1284.15 508.627C1284.77 509.718 1285.62 510.264 1286.7 510.264Z" fill="url(#paint70_linear_175_198)"/>
<path d="M1288.25 545.972H1292.04V547.64H1282.21V545.972H1286.6V528.289L1282.42 531.341L1281.7 529.925L1286.86 526.023H1288.25V545.972Z" fill="url(#paint71_linear_175_198)"/>
<path d="M1288.25 581.933H1292.04V583.6H1282.21V581.933H1286.6V564.249L1282.42 567.301L1281.7 565.885L1286.86 561.983H1288.25V581.933Z" fill="url(#paint72_linear_175_198)"/>
<path d="M1214.87 166.105C1216.71 166.105 1218.1 167.059 1219.05 168.968C1220.01 170.856 1220.49 173.604 1220.49 177.212C1220.49 180.82 1220.01 183.579 1219.05 185.488C1218.1 187.397 1216.71 188.351 1214.87 188.351C1213.05 188.351 1211.66 187.397 1210.69 185.488C1209.73 183.579 1209.25 180.82 1209.25 177.212C1209.25 173.625 1209.73 170.877 1210.69 168.968C1211.66 167.059 1213.05 166.105 1214.87 166.105ZM1211.08 177.212C1211.08 179.771 1211.27 181.775 1211.65 183.222L1217.37 169.283C1216.77 168.297 1215.94 167.804 1214.87 167.804C1213.68 167.804 1212.76 168.58 1212.09 170.133C1211.42 171.664 1211.08 174.024 1211.08 177.212ZM1214.87 186.62C1216.07 186.62 1217.01 185.855 1217.68 184.323C1218.35 182.771 1218.69 180.401 1218.69 177.212C1218.69 174.506 1218.47 172.409 1218.04 170.919L1212.32 184.984C1212.94 186.075 1213.79 186.62 1214.87 186.62Z" fill="url(#paint73_linear_175_198)"/>
<path d="M1214.87 202.065C1216.71 202.065 1218.1 203.02 1219.05 204.929C1220.01 206.817 1220.49 209.565 1220.49 213.173C1220.49 216.781 1220.01 219.539 1219.05 221.448C1218.1 223.357 1216.71 224.311 1214.87 224.311C1213.05 224.311 1211.66 223.357 1210.69 221.448C1209.73 219.539 1209.25 216.781 1209.25 213.173C1209.25 209.586 1209.73 206.838 1210.69 204.929C1211.66 203.02 1213.05 202.065 1214.87 202.065ZM1211.08 213.173C1211.08 215.732 1211.27 217.735 1211.65 219.183L1217.37 205.243C1216.77 204.257 1215.94 203.765 1214.87 203.765C1213.68 203.765 1212.76 204.541 1212.09 206.093C1211.42 207.624 1211.08 209.984 1211.08 213.173ZM1214.87 222.581C1216.07 222.581 1217.01 221.815 1217.68 220.284C1218.35 218.732 1218.69 216.361 1218.69 213.173C1218.69 210.467 1218.47 208.369 1218.04 206.88L1212.32 220.945C1212.94 222.035 1213.79 222.581 1214.87 222.581Z" fill="url(#paint74_linear_175_198)"/>
<path d="M1216.42 258.289H1220.21V259.957H1210.38V258.289H1214.77V240.606L1210.59 243.658L1209.87 242.242L1215.03 238.34H1216.42V258.289Z" fill="url(#paint75_linear_175_198)"/>
<path d="M1214.87 273.986C1216.71 273.986 1218.1 274.941 1219.05 276.849C1220.01 278.737 1220.49 281.485 1220.49 285.093C1220.49 288.701 1220.01 291.46 1219.05 293.369C1218.1 295.278 1216.71 296.232 1214.87 296.232C1213.05 296.232 1211.66 295.278 1210.69 293.369C1209.73 291.46 1209.25 288.701 1209.25 285.093C1209.25 281.506 1209.73 278.758 1210.69 276.849C1211.66 274.941 1213.05 273.986 1214.87 273.986ZM1211.08 285.093C1211.08 287.653 1211.27 289.656 1211.65 291.103L1217.37 277.164C1216.77 276.178 1215.94 275.685 1214.87 275.685C1213.68 275.685 1212.76 276.461 1212.09 278.014C1211.42 279.545 1211.08 281.905 1211.08 285.093ZM1214.87 294.501C1216.07 294.501 1217.01 293.736 1217.68 292.204C1218.35 290.652 1218.69 288.282 1218.69 285.093C1218.69 282.387 1218.47 280.29 1218.04 278.8L1212.32 292.865C1212.94 293.956 1213.79 294.501 1214.87 294.501Z" fill="url(#paint76_linear_175_198)"/>
<path d="M1216.42 330.21H1220.21V331.878H1210.38V330.21H1214.77V312.527L1210.59 315.579L1209.87 314.163L1215.03 310.261H1216.42V330.21Z" fill="url(#paint77_linear_175_198)"/>
<path d="M1216.42 366.17H1220.21V367.838H1210.38V366.17H1214.77V348.487L1210.59 351.539L1209.87 350.123L1215.03 346.221H1216.42V366.17Z" fill="url(#paint78_linear_175_198)"/>
<path d="M1264.3 114.448H1268.09V116.116H1258.27V114.448H1262.65V96.7645L1258.48 99.8166L1257.75 98.4007L1262.91 94.499H1264.3V114.448Z" fill="url(#paint79_linear_175_198)"/>
<path d="M1262.76 130.145C1264.6 130.145 1265.99 131.099 1266.93 133.008C1267.9 134.896 1268.38 137.644 1268.38 141.252C1268.38 144.86 1267.9 147.618 1266.93 149.527C1265.99 151.436 1264.6 152.391 1262.76 152.391C1260.94 152.391 1259.54 151.436 1258.58 149.527C1257.62 147.618 1257.14 144.86 1257.14 141.252C1257.14 137.665 1257.62 134.917 1258.58 133.008C1259.54 131.099 1260.94 130.145 1262.76 130.145ZM1258.97 141.252C1258.97 143.811 1259.16 145.814 1259.53 147.262L1265.26 133.323C1264.66 132.337 1263.82 131.844 1262.76 131.844C1261.57 131.844 1260.64 132.62 1259.97 134.172C1259.3 135.704 1258.97 138.063 1258.97 141.252ZM1262.76 150.66C1263.96 150.66 1264.9 149.894 1265.57 148.363C1266.24 146.811 1266.57 144.44 1266.57 141.252C1266.57 138.546 1266.36 136.448 1265.93 134.959L1260.2 149.024C1260.82 150.115 1261.67 150.66 1262.76 150.66Z" fill="url(#paint80_linear_175_198)"/>
<path d="M1264.3 186.369H1268.09V188.036H1258.27V186.369H1262.65V168.685L1258.48 171.737L1257.75 170.321L1262.91 166.42H1264.3V186.369Z" fill="url(#paint81_linear_175_198)"/>
<path d="M1264.3 222.329H1268.09V223.997H1258.27V222.329H1262.65V204.646L1258.48 207.698L1257.75 206.282L1262.91 202.38H1264.3V222.329Z" fill="url(#paint82_linear_175_198)"/>
<path d="M1262.76 238.026C1264.6 238.026 1265.99 238.98 1266.93 240.889C1267.9 242.777 1268.38 245.525 1268.38 249.133C1268.38 252.741 1267.9 255.499 1266.93 257.408C1265.99 259.317 1264.6 260.272 1262.76 260.272C1260.94 260.272 1259.54 259.317 1258.58 257.408C1257.62 255.499 1257.14 252.741 1257.14 249.133C1257.14 245.546 1257.62 242.798 1258.58 240.889C1259.54 238.98 1260.94 238.026 1262.76 238.026ZM1258.97 249.133C1258.97 251.692 1259.16 253.695 1259.53 255.143L1265.26 241.204C1264.66 240.218 1263.82 239.725 1262.76 239.725C1261.57 239.725 1260.64 240.501 1259.97 242.053C1259.3 243.585 1258.97 245.945 1258.97 249.133ZM1262.76 258.541C1263.96 258.541 1264.9 257.775 1265.57 256.244C1266.24 254.692 1266.57 252.321 1266.57 249.133C1266.57 246.427 1266.36 244.329 1265.93 242.84L1260.2 256.905C1260.82 257.996 1261.67 258.541 1262.76 258.541Z" fill="url(#paint83_linear_175_198)"/>
<path d="M1264.3 294.25H1268.09V295.917H1258.27V294.25H1262.65V276.566L1258.48 279.618L1257.75 278.202L1262.91 274.301H1264.3V294.25Z" fill="url(#paint84_linear_175_198)"/>
<path d="M1264.3 330.21H1268.09V331.878H1258.27V330.21H1262.65V312.527L1258.48 315.579L1257.75 314.163L1262.91 310.261H1264.3V330.21Z" fill="url(#paint85_linear_175_198)"/>
<path d="M1262.76 345.907C1264.6 345.907 1265.99 346.861 1266.93 348.77C1267.9 350.658 1268.38 353.406 1268.38 357.014C1268.38 360.622 1267.9 363.38 1266.93 365.289C1265.99 367.198 1264.6 368.153 1262.76 368.153C1260.94 368.153 1259.54 367.198 1258.58 365.289C1257.62 363.38 1257.14 360.622 1257.14 357.014C1257.14 353.427 1257.62 350.679 1258.58 348.77C1259.54 346.861 1260.94 345.907 1262.76 345.907ZM1258.97 357.014C1258.97 359.573 1259.16 361.576 1259.53 363.024L1265.26 349.085C1264.66 348.099 1263.82 347.606 1262.76 347.606C1261.57 347.606 1260.64 348.382 1259.97 349.934C1259.3 351.466 1258.97 353.826 1258.97 357.014ZM1262.76 366.422C1263.96 366.422 1264.9 365.656 1265.57 364.125C1266.24 362.573 1266.57 360.203 1266.57 357.014C1266.57 354.308 1266.36 352.21 1265.93 350.721L1260.2 364.786C1260.82 365.877 1261.67 366.422 1262.76 366.422Z" fill="url(#paint86_linear_175_198)"/>
<path d="M1264.3 402.131H1268.09V403.798H1258.27V402.131H1262.65V384.447L1258.48 387.499L1257.75 386.083L1262.91 382.182H1264.3V402.131Z" fill="url(#paint87_linear_175_198)"/>
<path d="M1262.76 417.827C1264.6 417.827 1265.99 418.782 1266.93 420.691C1267.9 422.579 1268.38 425.327 1268.38 428.935C1268.38 432.543 1267.9 435.301 1266.93 437.21C1265.99 439.119 1264.6 440.073 1262.76 440.073C1260.94 440.073 1259.54 439.119 1258.58 437.21C1257.62 435.301 1257.14 432.543 1257.14 428.935C1257.14 425.348 1257.62 422.6 1258.58 420.691C1259.54 418.782 1260.94 417.827 1262.76 417.827ZM1258.97 428.935C1258.97 431.494 1259.16 433.497 1259.53 434.945L1265.26 421.005C1264.66 420.02 1263.82 419.527 1262.76 419.527C1261.57 419.527 1260.64 420.303 1259.97 421.855C1259.3 423.386 1258.97 425.746 1258.97 428.935ZM1262.76 438.343C1263.96 438.343 1264.9 437.577 1265.57 436.046C1266.24 434.494 1266.57 432.123 1266.57 428.935C1266.57 426.229 1266.36 424.131 1265.93 422.642L1260.2 436.707C1260.82 437.797 1261.67 438.343 1262.76 438.343Z" fill="url(#paint88_linear_175_198)"/>
<path d="M1310.64 94.1843C1312.48 94.1843 1313.88 95.1388 1314.82 97.0477C1315.78 98.9356 1316.26 101.684 1316.26 105.292C1316.26 108.9 1315.78 111.658 1314.82 113.567C1313.88 115.476 1312.48 116.43 1310.64 116.43C1308.82 116.43 1307.43 115.476 1306.47 113.567C1305.5 111.658 1305.02 108.9 1305.02 105.292C1305.02 101.705 1305.5 98.9566 1306.47 97.0477C1307.43 95.1388 1308.82 94.1843 1310.64 94.1843ZM1306.85 105.292C1306.85 107.851 1307.04 109.854 1307.42 111.301L1313.14 97.3623C1312.54 96.3764 1311.71 95.8835 1310.64 95.8835C1309.46 95.8835 1308.53 96.6596 1307.86 98.2119C1307.19 99.7432 1306.85 102.103 1306.85 105.292ZM1310.64 114.7C1311.85 114.7 1312.78 113.934 1313.45 112.403C1314.12 110.85 1314.46 108.48 1314.46 105.292C1314.46 102.586 1314.24 100.488 1313.82 98.9985L1308.09 113.064C1308.71 114.154 1309.56 114.7 1310.64 114.7Z" fill="url(#paint89_linear_175_198)"/>
<path d="M1312.19 150.408H1315.98V152.076H1306.16V150.408H1310.54V132.725L1306.36 135.777L1305.64 134.361L1310.8 130.459H1312.19V150.408Z" fill="url(#paint90_linear_175_198)"/>
<path d="M1312.19 186.369H1315.98V188.036H1306.16V186.369H1310.54V168.685L1306.36 171.737L1305.64 170.321L1310.8 166.42H1312.19V186.369Z" fill="url(#paint91_linear_175_198)"/>
<path d="M1310.64 202.065C1312.48 202.065 1313.88 203.02 1314.82 204.929C1315.78 206.817 1316.26 209.565 1316.26 213.173C1316.26 216.781 1315.78 219.539 1314.82 221.448C1313.88 223.357 1312.48 224.311 1310.64 224.311C1308.82 224.311 1307.43 223.357 1306.47 221.448C1305.5 219.539 1305.02 216.781 1305.02 213.173C1305.02 209.586 1305.5 206.838 1306.47 204.929C1307.43 203.02 1308.82 202.065 1310.64 202.065ZM1306.85 213.173C1306.85 215.732 1307.04 217.735 1307.42 219.183L1313.14 205.243C1312.54 204.257 1311.71 203.765 1310.64 203.765C1309.46 203.765 1308.53 204.541 1307.86 206.093C1307.19 207.624 1306.85 209.984 1306.85 213.173ZM1310.64 222.581C1311.85 222.581 1312.78 221.815 1313.45 220.284C1314.12 218.732 1314.46 216.361 1314.46 213.173C1314.46 210.467 1314.24 208.369 1313.82 206.88L1308.09 220.945C1308.71 222.035 1309.56 222.581 1310.64 222.581Z" fill="url(#paint92_linear_175_198)"/>
<path d="M1310.64 238.026C1312.48 238.026 1313.88 238.98 1314.82 240.889C1315.78 242.777 1316.26 245.525 1316.26 249.133C1316.26 252.741 1315.78 255.499 1314.82 257.408C1313.88 259.317 1312.48 260.272 1310.64 260.272C1308.82 260.272 1307.43 259.317 1306.47 257.408C1305.5 255.499 1305.02 252.741 1305.02 249.133C1305.02 245.546 1305.5 242.798 1306.47 240.889C1307.43 238.98 1308.82 238.026 1310.64 238.026ZM1306.85 249.133C1306.85 251.692 1307.04 253.695 1307.42 255.143L1313.14 241.204C1312.54 240.218 1311.71 239.725 1310.64 239.725C1309.46 239.725 1308.53 240.501 1307.86 242.053C1307.19 243.585 1306.85 245.945 1306.85 249.133ZM1310.64 258.541C1311.85 258.541 1312.78 257.775 1313.45 256.244C1314.12 254.692 1314.46 252.321 1314.46 249.133C1314.46 246.427 1314.24 244.329 1313.82 242.84L1308.09 256.905C1308.71 257.996 1309.56 258.541 1310.64 258.541Z" fill="url(#paint93_linear_175_198)"/>
</g>
<defs>
<filter id="filter0_f_175_198" x="-706.115" y="-948.115" width="2839.23" height="2214.62" filterUnits="userSpaceOnUse" color-interpolation-filters="sRGB">
<feFlood flood-opacity="0" result="BackgroundImageFix"/>
<feBlend mode="normal" in="SourceGraphic" in2="BackgroundImageFix" result="shape"/>
<feGaussianBlur stdDeviation="277.557" result="effect1_foregroundBlur_175_198"/>
</filter>
<linearGradient id="paint0_linear_175_198" x1="120.405" y1="531.536" x2="120.405" y2="1022.8" gradientUnits="userSpaceOnUse">
<stop stop-color="#F7DD43"/>
<stop offset="1" stop-color="#F7DD43" stop-opacity="0"/>
</linearGradient>
<linearGradient id="paint1_linear_175_198" x1="120.405" y1="531.536" x2="120.405" y2="1022.8" gradientUnits="userSpaceOnUse">
<stop stop-color="#F7DD43"/>
<stop offset="1" stop-color="#F7DD43" stop-opacity="0"/>
</linearGradient>
<linearGradient id="paint2_linear_175_198" x1="120.405" y1="531.536" x2="120.405" y2="1022.8" gradientUnits="userSpaceOnUse">
<stop stop-color="#F7DD43"/>
<stop offset="1" stop-color="#F7DD43" stop-opacity="0"/>
</linearGradient>
<linearGradient id="paint3_linear_175_198" x1="120.405" y1="531.536" x2="120.405" y2="1022.8" gradientUnits="userSpaceOnUse">
<stop stop-color="#F7DD43"/>
<stop offset="1" stop-color="#F7DD43" stop-opacity="0"/>
</linearGradient>
<linearGradient id="paint4_linear_175_198" x1="120.405" y1="531.536" x2="120.405" y2="1022.8" gradientUnits="userSpaceOnUse">
<stop stop-color="#F7DD43"/>
<stop offset="1" stop-color="#F7DD43" stop-opacity="0"/>
</linearGradient>
<linearGradient id="paint5_linear_175_198" x1="120.405" y1="531.536" x2="120.405" y2="1022.8" gradientUnits="userSpaceOnUse">
<stop stop-color="#F7DD43"/>
<stop offset="1" stop-color="#F7DD43" stop-opacity="0"/>
</linearGradient>
<linearGradient id="paint6_linear_175_198" x1="120.405" y1="531.536" x2="120.405" y2="1022.8" gradientUnits="userSpaceOnUse">
<stop stop-color="#F7DD43"/>
<stop offset="1" stop-color="#F7DD43" stop-opacity="0"/>
</linearGradient>
<linearGradient id="paint7_linear_175_198" x1="120.405" y1="531.536" x2="120.405" y2="1022.8" gradientUnits="userSpaceOnUse">
<stop stop-color="#F7DD43"/>
<stop offset="1" stop-color="#F7DD43" stop-opacity="0"/>
</linearGradient>
<linearGradient id="paint8_linear_175_198" x1="120.405" y1="531.536" x2="120.405" y2="1022.8" gradientUnits="userSpaceOnUse">
<stop stop-color="#F7DD43"/>
<stop offset="1" stop-color="#F7DD43" stop-opacity="0"/>
</linearGradient>
<linearGradient id="paint9_linear_175_198" x1="120.405" y1="531.536" x2="120.405" y2="1022.8" gradientUnits="userSpaceOnUse">
<stop stop-color="#F7DD43"/>
<stop offset="1" stop-color="#F7DD43" stop-opacity="0"/>
</linearGradient>
<linearGradient id="paint10_linear_175_198" x1="120.405" y1="531.536" x2="120.405" y2="1022.8" gradientUnits="userSpaceOnUse">
<stop stop-color="#F7DD43"/>
<stop offset="1" stop-color="#F7DD43" stop-opacity="0"/>
</linearGradient>
<linearGradient id="paint11_linear_175_198" x1="120.405" y1="531.536" x2="120.405" y2="1022.8" gradientUnits="userSpaceOnUse">
<stop stop-color="#F7DD43"/>
<stop offset="1" stop-color="#F7DD43" stop-opacity="0"/>
</linearGradient>
<linearGradient id="paint12_linear_175_198" x1="120.405" y1="531.536" x2="120.405" y2="1022.8" gradientUnits="userSpaceOnUse">
<stop stop-color="#F7DD43"/>
<stop offset="1" stop-color="#F7DD43" stop-opacity="0"/>
</linearGradient>
<linearGradient id="paint13_linear_175_198" x1="120.405" y1="531.536" x2="120.405" y2="1022.8" gradientUnits="userSpaceOnUse">
<stop stop-color="#F7DD43"/>
<stop offset="1" stop-color="#F7DD43" stop-opacity="0"/>
</linearGradient>
<linearGradient id="paint14_linear_175_198" x1="120.405" y1="531.536" x2="120.405" y2="1022.8" gradientUnits="userSpaceOnUse">
<stop stop-color="#F7DD43"/>
<stop offset="1" stop-color="#F7DD43" stop-opacity="0"/>
</linearGradient>
<linearGradient id="paint15_linear_175_198" x1="120.405" y1="531.536" x2="120.405" y2="1022.8" gradientUnits="userSpaceOnUse">
<stop stop-color="#F7DD43"/>
<stop offset="1" stop-color="#F7DD43" stop-opacity="0"/>
</linearGradient>
<linearGradient id="paint16_linear_175_198" x1="120.405" y1="531.536" x2="120.405" y2="1022.8" gradientUnits="userSpaceOnUse">
<stop stop-color="#F7DD43"/>
<stop offset="1" stop-color="#F7DD43" stop-opacity="0"/>
</linearGradient>
<linearGradient id="paint17_linear_175_198" x1="120.405" y1="531.536" x2="120.405" y2="1022.8" gradientUnits="userSpaceOnUse">
<stop stop-color="#F7DD43"/>
<stop offset="1" stop-color="#F7DD43" stop-opacity="0"/>
</linearGradient>
<linearGradient id="paint18_linear_175_198" x1="120.405" y1="531.536" x2="120.405" y2="1022.8" gradientUnits="userSpaceOnUse">
<stop stop-color="#F7DD43"/>
<stop offset="1" stop-color="#F7DD43" stop-opacity="0"/>
</linearGradient>
<linearGradient id="paint19_linear_175_198" x1="120.405" y1="531.536" x2="120.405" y2="1022.8" gradientUnits="userSpaceOnUse">
<stop stop-color="#F7DD43"/>
<stop offset="1" stop-color="#F7DD43" stop-opacity="0"/>
</linearGradient>
<linearGradient id="paint20_linear_175_198" x1="120.405" y1="531.536" x2="120.405" y2="1022.8" gradientUnits="userSpaceOnUse">
<stop stop-color="#F7DD43"/>
<stop offset="1" stop-color="#F7DD43" stop-opacity="0"/>
</linearGradient>
<linearGradient id="paint21_linear_175_198" x1="120.405" y1="531.536" x2="120.405" y2="1022.8" gradientUnits="userSpaceOnUse">
<stop stop-color="#F7DD43"/>
<stop offset="1" stop-color="#F7DD43" stop-opacity="0"/>
</linearGradient>
<linearGradient id="paint22_linear_175_198" x1="120.405" y1="531.536" x2="120.405" y2="1022.8" gradientUnits="userSpaceOnUse">
<stop stop-color="#F7DD43"/>
<stop offset="1" stop-color="#F7DD43" stop-opacity="0"/>
</linearGradient>
<linearGradient id="paint23_linear_175_198" x1="120.405" y1="531.536" x2="120.405" y2="1022.8" gradientUnits="userSpaceOnUse">
<stop stop-color="#F7DD43"/>
<stop offset="1" stop-color="#F7DD43" stop-opacity="0"/>
</linearGradient>
<linearGradient id="paint24_linear_175_198" x1="120.405" y1="531.536" x2="120.405" y2="1022.8" gradientUnits="userSpaceOnUse">
<stop stop-color="#F7DD43"/>
<stop offset="1" stop-color="#F7DD43" stop-opacity="0"/>
</linearGradient>
<linearGradient id="paint25_linear_175_198" x1="120.405" y1="531.536" x2="120.405" y2="1022.8" gradientUnits="userSpaceOnUse">
<stop stop-color="#F7DD43"/>
<stop offset="1" stop-color="#F7DD43" stop-opacity="0"/>
</linearGradient>
<linearGradient id="paint26_linear_175_198" x1="120.405" y1="531.536" x2="120.405" y2="1022.8" gradientUnits="userSpaceOnUse">
<stop stop-color="#F7DD43"/>
<stop offset="1" stop-color="#F7DD43" stop-opacity="0"/>
</linearGradient>
<linearGradient id="paint27_linear_175_198" x1="120.405" y1="531.536" x2="120.405" y2="1022.8" gradientUnits="userSpaceOnUse">
<stop stop-color="#F7DD43"/>
<stop offset="1" stop-color="#F7DD43" stop-opacity="0"/>
</linearGradient>
<linearGradient id="paint28_linear_175_198" x1="120.405" y1="531.536" x2="120.405" y2="1022.8" gradientUnits="userSpaceOnUse">
<stop stop-color="#F7DD43"/>
<stop offset="1" stop-color="#F7DD43" stop-opacity="0"/>
</linearGradient>
<linearGradient id="paint29_linear_175_198" x1="120.405" y1="531.536" x2="120.405" y2="1022.8" gradientUnits="userSpaceOnUse">
<stop stop-color="#F7DD43"/>
<stop offset="1" stop-color="#F7DD43" stop-opacity="0"/>
</linearGradient>
<linearGradient id="paint30_linear_175_198" x1="120.405" y1="531.536" x2="120.405" y2="1022.8" gradientUnits="userSpaceOnUse">
<stop stop-color="#F7DD43"/>
<stop offset="1" stop-color="#F7DD43" stop-opacity="0"/>
</linearGradient>
<linearGradient id="paint31_linear_175_198" x1="120.405" y1="531.536" x2="120.405" y2="1022.8" gradientUnits="userSpaceOnUse">
<stop stop-color="#F7DD43"/>
<stop offset="1" stop-color="#F7DD43" stop-opacity="0"/>
</linearGradient>
<linearGradient id="paint32_linear_175_198" x1="120.405" y1="531.536" x2="120.405" y2="1022.8" gradientUnits="userSpaceOnUse">
<stop stop-color="#F7DD43"/>
<stop offset="1" stop-color="#F7DD43" stop-opacity="0"/>
</linearGradient>
<linearGradient id="paint33_linear_175_198" x1="120.405" y1="531.536" x2="120.405" y2="1022.8" gradientUnits="userSpaceOnUse">
<stop stop-color="#F7DD43"/>
<stop offset="1" stop-color="#F7DD43" stop-opacity="0"/>
</linearGradient>
<linearGradient id="paint34_linear_175_198" x1="120.405" y1="531.536" x2="120.405" y2="1022.8" gradientUnits="userSpaceOnUse">
<stop stop-color="#F7DD43"/>
<stop offset="1" stop-color="#F7DD43" stop-opacity="0"/>
</linearGradient>
<linearGradient id="paint35_linear_175_198" x1="120.405" y1="531.536" x2="120.405" y2="1022.8" gradientUnits="userSpaceOnUse">
<stop stop-color="#F7DD43"/>
<stop offset="1" stop-color="#F7DD43" stop-opacity="0"/>
</linearGradient>
<linearGradient id="paint36_linear_175_198" x1="120.405" y1="531.536" x2="120.405" y2="1022.8" gradientUnits="userSpaceOnUse">
<stop stop-color="#F7DD43"/>
<stop offset="1" stop-color="#F7DD43" stop-opacity="0"/>
</linearGradient>
<linearGradient id="paint37_linear_175_198" x1="120.405" y1="531.536" x2="120.405" y2="1022.8" gradientUnits="userSpaceOnUse">
<stop stop-color="#F7DD43"/>
<stop offset="1" stop-color="#F7DD43" stop-opacity="0"/>
</linearGradient>
<linearGradient id="paint38_linear_175_198" x1="120.405" y1="531.536" x2="120.405" y2="1022.8" gradientUnits="userSpaceOnUse">
<stop stop-color="#F7DD43"/>
<stop offset="1" stop-color="#F7DD43" stop-opacity="0"/>
</linearGradient>
<linearGradient id="paint39_linear_175_198" x1="120.405" y1="531.536" x2="120.405" y2="1022.8" gradientUnits="userSpaceOnUse">
<stop stop-color="#F7DD43"/>
<stop offset="1" stop-color="#F7DD43" stop-opacity="0"/>
</linearGradient>
<linearGradient id="paint40_linear_175_198" x1="120.405" y1="531.536" x2="120.405" y2="1022.8" gradientUnits="userSpaceOnUse">
<stop stop-color="#F7DD43"/>
<stop offset="1" stop-color="#F7DD43" stop-opacity="0"/>
</linearGradient>
<linearGradient id="paint41_linear_175_198" x1="120.405" y1="531.536" x2="120.405" y2="1022.8" gradientUnits="userSpaceOnUse">
<stop stop-color="#F7DD43"/>
<stop offset="1" stop-color="#F7DD43" stop-opacity="0"/>
</linearGradient>
<linearGradient id="paint42_linear_175_198" x1="120.405" y1="531.536" x2="120.405" y2="1022.8" gradientUnits="userSpaceOnUse">
<stop stop-color="#F7DD43"/>
<stop offset="1" stop-color="#F7DD43" stop-opacity="0"/>
</linearGradient>
<linearGradient id="paint43_linear_175_198" x1="120.405" y1="531.536" x2="120.405" y2="1022.8" gradientUnits="userSpaceOnUse">
<stop stop-color="#F7DD43"/>
<stop offset="1" stop-color="#F7DD43" stop-opacity="0"/>
</linearGradient>
<linearGradient id="paint44_linear_175_198" x1="120.405" y1="531.536" x2="120.405" y2="1022.8" gradientUnits="userSpaceOnUse">
<stop stop-color="#F7DD43"/>
<stop offset="1" stop-color="#F7DD43" stop-opacity="0"/>
</linearGradient>
<linearGradient id="paint45_linear_175_198" x1="120.405" y1="531.536" x2="120.405" y2="1022.8" gradientUnits="userSpaceOnUse">
<stop stop-color="#F7DD43"/>
<stop offset="1" stop-color="#F7DD43" stop-opacity="0"/>
</linearGradient>
<linearGradient id="paint46_linear_175_198" x1="120.405" y1="531.536" x2="120.405" y2="1022.8" gradientUnits="userSpaceOnUse">
<stop stop-color="#F7DD43"/>
<stop offset="1" stop-color="#F7DD43" stop-opacity="0"/>
</linearGradient>
<linearGradient id="paint47_linear_175_198" x1="1262.76" y1="58.224" x2="1262.76" y2="529.671" gradientUnits="userSpaceOnUse">
<stop stop-color="#F7DD43"/>
<stop offset="1" stop-color="#F7DD43" stop-opacity="0"/>
</linearGradient>
<linearGradient id="paint48_linear_175_198" x1="1262.76" y1="58.224" x2="1262.76" y2="529.671" gradientUnits="userSpaceOnUse">
<stop stop-color="#F7DD43"/>
<stop offset="1" stop-color="#F7DD43" stop-opacity="0"/>
</linearGradient>
<linearGradient id="paint49_linear_175_198" x1="1262.76" y1="58.224" x2="1262.76" y2="529.671" gradientUnits="userSpaceOnUse">
<stop stop-color="#F7DD43"/>
<stop offset="1" stop-color="#F7DD43" stop-opacity="0"/>
</linearGradient>
<linearGradient id="paint50_linear_175_198" x1="1262.76" y1="58.224" x2="1262.76" y2="529.671" gradientUnits="userSpaceOnUse">
<stop stop-color="#F7DD43"/>
<stop offset="1" stop-color="#F7DD43" stop-opacity="0"/>
</linearGradient>
<linearGradient id="paint51_linear_175_198" x1="1262.76" y1="58.224" x2="1262.76" y2="529.671" gradientUnits="userSpaceOnUse">
<stop stop-color="#F7DD43"/>
<stop offset="1" stop-color="#F7DD43" stop-opacity="0"/>
</linearGradient>
<linearGradient id="paint52_linear_175_198" x1="1262.76" y1="58.224" x2="1262.76" y2="529.671" gradientUnits="userSpaceOnUse">
<stop stop-color="#F7DD43"/>
<stop offset="1" stop-color="#F7DD43" stop-opacity="0"/>
</linearGradient>
<linearGradient id="paint53_linear_175_198" x1="1262.76" y1="58.224" x2="1262.76" y2="529.671" gradientUnits="userSpaceOnUse">
<stop stop-color="#F7DD43"/>
<stop offset="1" stop-color="#F7DD43" stop-opacity="0"/>
</linearGradient>
<linearGradient id="paint54_linear_175_198" x1="1262.76" y1="58.224" x2="1262.76" y2="529.671" gradientUnits="userSpaceOnUse">
<stop stop-color="#F7DD43"/>
<stop offset="1" stop-color="#F7DD43" stop-opacity="0"/>
</linearGradient>
<linearGradient id="paint55_linear_175_198" x1="1262.76" y1="58.224" x2="1262.76" y2="529.671" gradientUnits="userSpaceOnUse">
<stop stop-color="#F7DD43"/>
<stop offset="1" stop-color="#F7DD43" stop-opacity="0"/>
</linearGradient>
<linearGradient id="paint56_linear_175_198" x1="1262.76" y1="58.224" x2="1262.76" y2="529.671" gradientUnits="userSpaceOnUse">
<stop stop-color="#F7DD43"/>
<stop offset="1" stop-color="#F7DD43" stop-opacity="0"/>
</linearGradient>
<linearGradient id="paint57_linear_175_198" x1="1262.76" y1="58.224" x2="1262.76" y2="529.671" gradientUnits="userSpaceOnUse">
<stop stop-color="#F7DD43"/>
<stop offset="1" stop-color="#F7DD43" stop-opacity="0"/>
</linearGradient>
<linearGradient id="paint58_linear_175_198" x1="1262.76" y1="58.224" x2="1262.76" y2="529.671" gradientUnits="userSpaceOnUse">
<stop stop-color="#F7DD43"/>
<stop offset="1" stop-color="#F7DD43" stop-opacity="0"/>
</linearGradient>
<linearGradient id="paint59_linear_175_198" x1="1262.76" y1="58.224" x2="1262.76" y2="529.671" gradientUnits="userSpaceOnUse">
<stop stop-color="#F7DD43"/>
<stop offset="1" stop-color="#F7DD43" stop-opacity="0"/>
</linearGradient>
<linearGradient id="paint60_linear_175_198" x1="1262.76" y1="58.224" x2="1262.76" y2="529.671" gradientUnits="userSpaceOnUse">
<stop stop-color="#F7DD43"/>
<stop offset="1" stop-color="#F7DD43" stop-opacity="0"/>
</linearGradient>
<linearGradient id="paint61_linear_175_198" x1="1262.76" y1="58.224" x2="1262.76" y2="529.671" gradientUnits="userSpaceOnUse">
<stop stop-color="#F7DD43"/>
<stop offset="1" stop-color="#F7DD43" stop-opacity="0"/>
</linearGradient>
<linearGradient id="paint62_linear_175_198" x1="1262.76" y1="58.224" x2="1262.76" y2="529.671" gradientUnits="userSpaceOnUse">
<stop stop-color="#F7DD43"/>
<stop offset="1" stop-color="#F7DD43" stop-opacity="0"/>
</linearGradient>
<linearGradient id="paint63_linear_175_198" x1="1262.76" y1="58.224" x2="1262.76" y2="529.671" gradientUnits="userSpaceOnUse">
<stop stop-color="#F7DD43"/>
<stop offset="1" stop-color="#F7DD43" stop-opacity="0"/>
</linearGradient>
<linearGradient id="paint64_linear_175_198" x1="1262.76" y1="58.224" x2="1262.76" y2="529.671" gradientUnits="userSpaceOnUse">
<stop stop-color="#F7DD43"/>
<stop offset="1" stop-color="#F7DD43" stop-opacity="0"/>
</linearGradient>
<linearGradient id="paint65_linear_175_198" x1="1262.76" y1="58.224" x2="1262.76" y2="529.671" gradientUnits="userSpaceOnUse">
<stop stop-color="#F7DD43"/>
<stop offset="1" stop-color="#F7DD43" stop-opacity="0"/>
</linearGradient>
<linearGradient id="paint66_linear_175_198" x1="1262.76" y1="58.224" x2="1262.76" y2="529.671" gradientUnits="userSpaceOnUse">
<stop stop-color="#F7DD43"/>
<stop offset="1" stop-color="#F7DD43" stop-opacity="0"/>
</linearGradient>
<linearGradient id="paint67_linear_175_198" x1="1262.76" y1="58.224" x2="1262.76" y2="529.671" gradientUnits="userSpaceOnUse">
<stop stop-color="#F7DD43"/>
<stop offset="1" stop-color="#F7DD43" stop-opacity="0"/>
</linearGradient>
<linearGradient id="paint68_linear_175_198" x1="1262.76" y1="58.224" x2="1262.76" y2="529.671" gradientUnits="userSpaceOnUse">
<stop stop-color="#F7DD43"/>
<stop offset="1" stop-color="#F7DD43" stop-opacity="0"/>
</linearGradient>
<linearGradient id="paint69_linear_175_198" x1="1262.76" y1="58.224" x2="1262.76" y2="529.671" gradientUnits="userSpaceOnUse">
<stop stop-color="#F7DD43"/>
<stop offset="1" stop-color="#F7DD43" stop-opacity="0"/>
</linearGradient>
<linearGradient id="paint70_linear_175_198" x1="1262.76" y1="58.224" x2="1262.76" y2="529.671" gradientUnits="userSpaceOnUse">
<stop stop-color="#F7DD43"/>
<stop offset="1" stop-color="#F7DD43" stop-opacity="0"/>
</linearGradient>
<linearGradient id="paint71_linear_175_198" x1="1262.76" y1="58.224" x2="1262.76" y2="529.671" gradientUnits="userSpaceOnUse">
<stop stop-color="#F7DD43"/>
<stop offset="1" stop-color="#F7DD43" stop-opacity="0"/>
</linearGradient>
<linearGradient id="paint72_linear_175_198" x1="1262.76" y1="58.224" x2="1262.76" y2="529.671" gradientUnits="userSpaceOnUse">
<stop stop-color="#F7DD43"/>
<stop offset="1" stop-color="#F7DD43" stop-opacity="0"/>
</linearGradient>
<linearGradient id="paint73_linear_175_198" x1="1262.76" y1="58.224" x2="1262.76" y2="529.671" gradientUnits="userSpaceOnUse">
<stop stop-color="#F7DD43"/>
<stop offset="1" stop-color="#F7DD43" stop-opacity="0"/>
</linearGradient>
<linearGradient id="paint74_linear_175_198" x1="1262.76" y1="58.224" x2="1262.76" y2="529.671" gradientUnits="userSpaceOnUse">
<stop stop-color="#F7DD43"/>
<stop offset="1" stop-color="#F7DD43" stop-opacity="0"/>
</linearGradient>
<linearGradient id="paint75_linear_175_198" x1="1262.76" y1="58.224" x2="1262.76" y2="529.671" gradientUnits="userSpaceOnUse">
<stop stop-color="#F7DD43"/>
<stop offset="1" stop-color="#F7DD43" stop-opacity="0"/>
</linearGradient>
<linearGradient id="paint76_linear_175_198" x1="1262.76" y1="58.224" x2="1262.76" y2="529.671" gradientUnits="userSpaceOnUse">
<stop stop-color="#F7DD43"/>
<stop offset="1" stop-color="#F7DD43" stop-opacity="0"/>
</linearGradient>
<linearGradient id="paint77_linear_175_198" x1="1262.76" y1="58.224" x2="1262.76" y2="529.671" gradientUnits="userSpaceOnUse">
<stop stop-color="#F7DD43"/>
<stop offset="1" stop-color="#F7DD43" stop-opacity="0"/>
</linearGradient>
<linearGradient id="paint78_linear_175_198" x1="1262.76" y1="58.224" x2="1262.76" y2="529.671" gradientUnits="userSpaceOnUse">
<stop stop-color="#F7DD43"/>
<stop offset="1" stop-color="#F7DD43" stop-opacity="0"/>
</linearGradient>
<linearGradient id="paint79_linear_175_198" x1="1262.76" y1="58.224" x2="1262.76" y2="529.671" gradientUnits="userSpaceOnUse">
<stop stop-color="#F7DD43"/>
<stop offset="1" stop-color="#F7DD43" stop-opacity="0"/>
</linearGradient>
<linearGradient id="paint80_linear_175_198" x1="1262.76" y1="58.224" x2="1262.76" y2="529.671" gradientUnits="userSpaceOnUse">
<stop stop-color="#F7DD43"/>
<stop offset="1" stop-color="#F7DD43" stop-opacity="0"/>
</linearGradient>
<linearGradient id="paint81_linear_175_198" x1="1262.76" y1="58.224" x2="1262.76" y2="529.671" gradientUnits="userSpaceOnUse">
<stop stop-color="#F7DD43"/>
<stop offset="1" stop-color="#F7DD43" stop-opacity="0"/>
</linearGradient>
<linearGradient id="paint82_linear_175_198" x1="1262.76" y1="58.224" x2="1262.76" y2="529.671" gradientUnits="userSpaceOnUse">
<stop stop-color="#F7DD43"/>
<stop offset="1" stop-color="#F7DD43" stop-opacity="0"/>
</linearGradient>
<linearGradient id="paint83_linear_175_198" x1="1262.76" y1="58.224" x2="1262.76" y2="529.671" gradientUnits="userSpaceOnUse">
<stop stop-color="#F7DD43"/>
<stop offset="1" stop-color="#F7DD43" stop-opacity="0"/>
</linearGradient>
<linearGradient id="paint84_linear_175_198" x1="1262.76" y1="58.224" x2="1262.76" y2="529.671" gradientUnits="userSpaceOnUse">
<stop stop-color="#F7DD43"/>
<stop offset="1" stop-color="#F7DD43" stop-opacity="0"/>
</linearGradient>
<linearGradient id="paint85_linear_175_198" x1="1262.76" y1="58.224" x2="1262.76" y2="529.671" gradientUnits="userSpaceOnUse">
<stop stop-color="#F7DD43"/>
<stop offset="1" stop-color="#F7DD43" stop-opacity="0"/>
</linearGradient>
<linearGradient id="paint86_linear_175_198" x1="1262.76" y1="58.224" x2="1262.76" y2="529.671" gradientUnits="userSpaceOnUse">
<stop stop-color="#F7DD43"/>
<stop offset="1" stop-color="#F7DD43" stop-opacity="0"/>
</linearGradient>
<linearGradient id="paint87_linear_175_198" x1="1262.76" y1="58.224" x2="1262.76" y2="529.671" gradientUnits="userSpaceOnUse">
<stop stop-color="#F7DD43"/>
<stop offset="1" stop-color="#F7DD43" stop-opacity="0"/>
</linearGradient>
<linearGradient id="paint88_linear_175_198" x1="1262.76" y1="58.224" x2="1262.76" y2="529.671" gradientUnits="userSpaceOnUse">
<stop stop-color="#F7DD43"/>
<stop offset="1" stop-color="#F7DD43" stop-opacity="0"/>
</linearGradient>
<linearGradient id="paint89_linear_175_198" x1="1262.76" y1="58.224" x2="1262.76" y2="529.671" gradientUnits="userSpaceOnUse">
<stop stop-color="#F7DD43"/>
<stop offset="1" stop-color="#F7DD43" stop-opacity="0"/>
</linearGradient>
<linearGradient id="paint90_linear_175_198" x1="1262.76" y1="58.224" x2="1262.76" y2="529.671" gradientUnits="userSpaceOnUse">
<stop stop-color="#F7DD43"/>
<stop offset="1" stop-color="#F7DD43" stop-opacity="0"/>
</linearGradient>
<linearGradient id="paint91_linear_175_198" x1="1262.76" y1="58.224" x2="1262.76" y2="529.671" gradientUnits="userSpaceOnUse">
<stop stop-color="#F7DD43"/>
<stop offset="1" stop-color="#F7DD43" stop-opacity="0"/>
</linearGradient>
<linearGradient id="paint92_linear_175_198" x1="1262.76" y1="58.224" x2="1262.76" y2="529.671" gradientUnits="userSpaceOnUse">
<stop stop-color="#F7DD43"/>
<stop offset="1" stop-color="#F7DD43" stop-opacity="0"/>
</linearGradient>
<linearGradient id="paint93_linear_175_198" x1="1262.76" y1="58.224" x2="1262.76" y2="529.671" gradientUnits="userSpaceOnUse">
<stop stop-color="#F7DD43"/>
<stop offset="1" stop-color="#F7DD43" stop-opacity="0"/>
</linearGradient>
</defs>
</svg>
