<svg width="72" height="73" viewBox="0 0 72 73" fill="none" xmlns="http://www.w3.org/2000/svg">
<g clip-path="url(#clip0_408_165)">
<path d="M36.2298 72.2262C55.9595 72.2262 71.9535 56.2322 71.9535 36.5025C71.9535 16.7728 55.9595 0.778687 36.2298 0.778687C16.5001 0.778687 0.505981 16.7728 0.505981 36.5025C0.505981 56.2322 16.5001 72.2262 36.2298 72.2262Z" fill="#6DA544"/>
<path d="M36.2298 14.7576L65.7407 36.5025L36.2298 58.2473L6.71887 36.5025L36.2298 14.7576Z" fill="#FFDA44"/>
<path d="M36.2298 48.9281C43.0923 48.9281 48.6554 43.365 48.6554 36.5025C48.6554 29.64 43.0923 24.0769 36.2298 24.0769C29.3673 24.0769 23.8042 29.64 23.8042 36.5025C23.8042 43.365 29.3673 48.9281 36.2298 48.9281Z" fill="#F0F0F0"/>
<path d="M30.0169 35.726C27.8562 35.726 25.771 36.0546 23.8081 36.6644C23.895 43.4519 29.4216 48.9283 36.2298 48.9283C40.4396 48.9283 44.1577 46.8327 46.4053 43.63C42.5599 38.8161 36.643 35.726 30.0169 35.726V35.726Z" fill="#0052B4"/>
<path d="M48.4251 38.8832C48.5747 38.1123 48.6555 37.317 48.6555 36.5025C48.6555 29.6399 43.0923 24.0769 36.2299 24.0769C31.1094 24.0769 26.7137 27.175 24.8114 31.5983C26.4929 31.2498 28.2339 31.0663 30.0172 31.0663C37.2341 31.0662 43.7629 34.0662 48.4251 38.8832V38.8832Z" fill="#0052B4"/>
</g>
<defs>
<clipPath id="clip0_408_165">
<rect width="71.4475" height="71.4475" fill="white" transform="translate(0.505981 0.778687)"/>
</clipPath>
</defs>
</svg>
