<svg width="72" height="73" viewBox="0 0 72 73" fill="none" xmlns="http://www.w3.org/2000/svg">
<g clip-path="url(#clip0_436_123)">
<path d="M35.8739 72.2263C55.6036 72.2263 71.5977 56.2322 71.5977 36.5025C71.5977 16.7728 55.6036 0.778748 35.8739 0.778748C16.1442 0.778748 0.150146 16.7728 0.150146 36.5025C0.150146 56.2322 16.1442 72.2263 35.8739 72.2263Z" fill="#F0F0F0"/>
<path d="M35.8739 27.1832H70.367C69.4713 23.86 68.1099 20.7285 66.3544 17.8639H35.8739V27.1832Z" fill="#338AF3"/>
<path d="M13.6363 64.4603H58.1114C61.3716 61.8636 64.1676 58.7096 66.3542 55.141H5.39343C7.58026 58.7095 10.3762 61.8636 13.6363 64.4603V64.4603Z" fill="#338AF3"/>
<path d="M35.8739 0.778748V8.54476H58.1115C52.0092 3.68465 44.2814 0.778748 35.8739 0.778748V0.778748Z" fill="#338AF3"/>
<path d="M35.8739 27.1832H70.367C69.4713 23.86 68.1099 20.7285 66.3544 17.8639H35.8739V27.1832Z" fill="#338AF3"/>
<path d="M0.150146 36.5025C0.150146 39.727 0.579948 42.8503 1.3808 45.8218H70.3672C71.1679 42.8503 71.5977 39.727 71.5977 36.5025H0.150146Z" fill="#338AF3"/>
<path d="M31.2142 21.6856L26.8512 23.7379L29.1745 27.9634L24.4369 27.0572L23.8366 31.8429L20.5369 28.323L17.2369 31.8429L16.6367 27.0572L11.8991 27.9631L14.2223 23.7378L9.8595 21.6856L14.2224 19.6336L11.8991 15.4081L16.6365 16.3144L17.237 11.5286L20.5369 15.0485L23.8367 11.5286L24.4369 16.3144L29.1746 15.4081L26.8513 19.6337L31.2142 21.6856Z" fill="#FFDA44"/>
</g>
<defs>
<clipPath id="clip0_436_123">
<rect width="71.4475" height="71.4475" fill="white" transform="translate(0.150146 0.778748)"/>
</clipPath>
</defs>
</svg>
