<svg width="72" height="72" viewBox="0 0 72 72" fill="none" xmlns="http://www.w3.org/2000/svg">
<g clip-path="url(#clip0_408_151)">
<path d="M0.505981 36.1663C0.505981 51.5261 10.2005 64.6204 23.8039 69.6679L26.9105 36.1661L23.8039 2.66449C10.2005 7.71215 0.505981 20.8063 0.505981 36.1663Z" fill="#6DA544"/>
<path d="M71.9535 36.1662C71.9535 16.4366 55.9593 0.442444 36.2298 0.442444C31.86 0.442444 27.6741 1.22851 23.8039 2.66443V69.668C27.6741 71.1041 31.86 71.89 36.2298 71.89C55.9593 71.89 71.9535 55.8958 71.9535 36.1662Z" fill="#D80027"/>
<path d="M23.8041 48.5918C30.6666 48.5918 36.2297 43.0287 36.2297 36.1662C36.2297 29.3037 30.6666 23.7406 23.8041 23.7406C16.9417 23.7406 11.3785 29.3037 11.3785 36.1662C11.3785 43.0287 16.9417 48.5918 23.8041 48.5918Z" fill="#FFDA44"/>
<path d="M16.8148 29.9534V37.7194C16.8148 41.5795 19.9439 44.7088 23.8042 44.7088C27.6645 44.7088 30.7936 41.5796 30.7936 37.7194V29.9534H16.8148Z" fill="#D80027"/>
<path d="M23.8042 40.0493C22.5196 40.0493 21.4744 39.0041 21.4744 37.7194V34.6131H26.1339V37.7195C26.1339 39.0041 25.0887 40.0493 23.8042 40.0493Z" fill="#F0F0F0"/>
</g>
<defs>
<clipPath id="clip0_408_151">
<rect width="71.4475" height="71.4475" fill="white" transform="translate(0.505981 0.442444)"/>
</clipPath>
</defs>
</svg>
