<svg width="73" height="72" viewBox="0 0 73 72" fill="none" xmlns="http://www.w3.org/2000/svg">
<g clip-path="url(#clip0_408_158)">
<path d="M0.875244 36.1663C0.875244 40.536 1.66131 44.7218 3.09724 48.5918L36.599 50.1451L70.1008 48.592C71.5369 44.7218 72.3228 40.536 72.3228 36.1663C72.3228 31.7965 71.5369 27.6107 70.1008 23.7407L36.599 22.1874L3.09724 23.7405C1.66131 27.6107 0.875244 31.7965 0.875244 36.1663H0.875244Z" fill="#FFDA44"/>
<path d="M36.5989 0.442444C21.239 0.442444 8.14469 10.137 3.09717 23.7406H70.1009C65.0532 10.137 51.9589 0.442444 36.5989 0.442444V0.442444Z" fill="#D80027"/>
<path d="M70.1007 48.5919H3.09717C8.14469 62.1954 21.239 71.89 36.599 71.89C51.9589 71.89 65.0532 62.1954 70.1007 48.5919Z" fill="#496E2D"/>
<path d="M36.5987 23.7406L39.6826 33.2325H49.6641L41.5895 39.0995L44.6735 48.5918L36.5987 42.7253L28.5238 48.5918L31.6084 39.0995L23.5338 33.2325H33.5147L36.5987 23.7406Z" fill="black"/>
</g>
<defs>
<clipPath id="clip0_408_158">
<rect width="71.4475" height="71.4475" fill="white" transform="translate(0.875244 0.442444)"/>
</clipPath>
</defs>
</svg>
