<svg width="73" height="73" viewBox="0 0 73 73" fill="none" xmlns="http://www.w3.org/2000/svg">
<g clip-path="url(#clip0_408_173)">
<path d="M36.599 72.2263C56.3287 72.2263 72.3228 56.2322 72.3228 36.5025C72.3228 16.7728 56.3287 0.778748 36.599 0.778748C16.8693 0.778748 0.875244 16.7728 0.875244 36.5025C0.875244 56.2322 16.8693 72.2263 36.599 72.2263Z" fill="#F0F0F0"/>
<path d="M36.599 0.778748C16.8694 0.778748 0.875244 16.773 0.875244 36.5025C0.875244 40.8723 1.66131 45.0582 3.09724 48.9281H70.1009C71.5369 45.0582 72.3228 40.8723 72.3228 36.5025C72.3228 16.773 56.3286 0.778748 36.599 0.778748Z" fill="#0052B4"/>
<path d="M36.5989 0.778748C21.239 0.778748 8.14469 10.4733 3.09717 24.0769H70.1009C65.0532 10.4733 51.9589 0.778748 36.5989 0.778748V0.778748Z" fill="#D80027"/>
<path d="M10.1128 20.9705V38.7914C10.1128 48.9286 23.3558 52.0347 23.3558 52.0347C23.3558 52.0347 36.5988 48.9286 36.5988 38.7914V20.9705H10.1128Z" fill="#D80027"/>
<path d="M15.5896 24.0769H31.1218V17.864L28.0153 19.4171L23.3558 14.7576L18.696 19.4171L15.5896 17.864V24.0769Z" fill="#FFDA44"/>
<path d="M33.4925 41.2726L23.3967 31.1768L13.3008 41.2726L16.5956 44.5675L23.3967 37.7664L30.1977 44.5675L33.4925 41.2726Z" fill="#FFDA44"/>
<path d="M33.4925 31.8429H28.782C29.0469 31.3857 29.2009 30.8563 29.2009 30.29C29.2009 28.5742 27.8101 27.1836 26.0945 27.1836C24.9091 27.1836 23.8796 27.8476 23.3559 28.8237C22.8322 27.8477 21.8028 27.1836 20.6173 27.1836C18.9017 27.1836 17.5109 28.5742 17.5109 30.29C17.5109 30.8563 17.6649 31.3859 17.9298 31.8429H13.3008C13.3008 33.5586 14.7952 34.9493 16.5106 34.9493H16.4072C16.4072 36.665 17.7979 38.0558 19.5136 38.0558C19.5136 39.5749 20.6046 40.8369 22.0454 41.1071L19.5978 46.6334C20.7708 47.1102 22.0527 47.3751 23.3968 47.3751C24.7409 47.3751 26.0228 47.1102 27.1958 46.6334L24.7482 41.1071C26.189 40.8372 27.2799 39.575 27.2799 38.0558C28.9957 38.0558 30.3864 36.665 30.3864 34.9493H30.283C31.9983 34.9493 33.4925 33.5585 33.4925 31.8429V31.8429Z" fill="#F0F0F0"/>
</g>
<defs>
<clipPath id="clip0_408_173">
<rect width="71.4475" height="71.4475" fill="white" transform="translate(0.875244 0.778748)"/>
</clipPath>
</defs>
</svg>
