<svg width="73" height="72" viewBox="0 0 73 72" fill="none" xmlns="http://www.w3.org/2000/svg">
<g clip-path="url(#clip0_436_73)">
<path d="M36.5047 71.5538C56.2344 71.5538 72.2284 55.5597 72.2284 35.83C72.2284 16.1003 56.2344 0.106262 36.5047 0.106262C16.775 0.106262 0.780884 16.1003 0.780884 35.83C0.780884 55.5597 16.775 71.5538 36.5047 71.5538Z" fill="#F0F0F0"/>
<path d="M48.9303 35.83C48.9303 38.9364 43.3672 46.7025 36.5047 46.7025C29.6422 46.7025 24.0791 38.9364 24.0791 35.83C24.0791 28.9674 29.6422 23.4044 36.5047 23.4044C43.3672 23.4044 48.9303 28.9674 48.9303 35.83Z" fill="#D80027"/>
<path d="M48.9303 35.83C48.9303 42.6926 43.3672 48.2556 36.5047 48.2556C29.6422 48.2556 24.0791 42.6926 24.0791 35.83" fill="#0052B4"/>
<path d="M49.6743 46.8134L52.9686 43.5191L55.1649 45.7153L51.8706 49.0097L49.6743 46.8134Z" fill="black"/>
<path d="M44.1821 52.3041L47.4764 49.0098L49.6727 51.2061L46.3784 54.5004L44.1821 52.3041Z" fill="black"/>
<path d="M56.2635 53.4017L59.5579 50.1074L61.7541 52.3037L58.4598 55.598L56.2635 53.4017Z" fill="black"/>
<path d="M50.7715 58.8934L54.0658 55.5991L56.2621 57.7954L52.9677 61.0897L50.7715 58.8934Z" fill="black"/>
<path d="M52.9686 50.1078L56.263 46.8135L58.4592 49.0098L55.1649 52.3041L52.9686 50.1078Z" fill="black"/>
<path d="M47.478 55.5986L50.7724 52.3042L52.9686 54.5005L49.6743 57.7948L47.478 55.5986Z" fill="black"/>
<path d="M56.278 24.8527L47.4931 16.0678L49.6893 13.8715L58.4742 22.6564L56.278 24.8527Z" fill="black"/>
<path d="M47.4915 22.6573L44.1971 19.363L46.3933 17.1669L49.6876 20.4612L47.4915 22.6573Z" fill="black"/>
<path d="M52.9821 28.1492L49.6877 24.8549L51.8839 22.6588L55.1782 25.9531L52.9821 28.1492Z" fill="black"/>
<path d="M54.0795 16.0675L50.7851 12.7732L52.9814 10.5769L56.2757 13.8713L54.0795 16.0675Z" fill="black"/>
<path d="M59.573 21.5601L56.2787 18.2657L58.4749 16.0695L61.7692 19.3638L59.573 21.5601Z" fill="black"/>
<path d="M13.4454 50.1017L22.2303 58.8866L20.0341 61.0828L11.2492 52.2979L13.4454 50.1017Z" fill="black"/>
<path d="M22.2299 52.2962L25.5242 55.5905L23.328 57.7867L20.0337 54.4924L22.2299 52.2962Z" fill="black"/>
<path d="M16.7386 46.8066L20.033 50.101L17.8367 52.2972L14.5424 49.0029L16.7386 46.8066Z" fill="black"/>
<path d="M20.0333 43.5114L28.8182 52.2963L26.622 54.4926L17.8371 45.7077L20.0333 43.5114Z" fill="black"/>
<path d="M22.2292 12.7664L13.4444 21.5513L11.2481 19.3551L20.033 10.5702L22.2292 12.7664Z" fill="black"/>
<path d="M25.5237 16.0604L16.7388 24.8453L14.5425 22.649L23.3274 13.8641L25.5237 16.0604Z" fill="black"/>
<path d="M28.821 19.3566L20.0362 28.1415L17.84 25.9454L26.6249 17.1605L28.821 19.3566Z" fill="black"/>
</g>
<defs>
<clipPath id="clip0_436_73">
<rect width="71.4475" height="71.4475" fill="white" transform="translate(0.780884 0.106262)"/>
</clipPath>
</defs>
</svg>
