<svg width="73" height="72" viewBox="0 0 73 72" fill="none" xmlns="http://www.w3.org/2000/svg">
<g clip-path="url(#clip0_408_144)">
<path d="M52.1311 3.65101C47.4345 1.38004 42.1655 0.106262 36.599 0.106262C31.0325 0.106262 25.7636 1.38004 21.067 3.65101L17.9606 35.83L21.067 68.0091C25.7636 70.28 31.0325 71.5538 36.599 71.5538C42.1655 71.5538 47.4345 70.28 52.1311 68.0091L55.2375 35.83L52.1311 3.65101Z" fill="#D80027"/>
<path d="M36.5987 23.4044L39.6826 32.8962H49.6641L41.5894 38.7633L44.6735 48.2556L36.5987 42.389L28.5238 48.2556L31.6085 38.7633L23.5338 32.8962H33.5146L36.5987 23.4044Z" fill="#FFDA44"/>
<path d="M21.067 3.65228C9.11767 9.43032 0.875244 21.667 0.875244 35.8301C0.875244 49.9931 9.11767 62.2298 21.067 68.0078V3.65228Z" fill="#496E2D"/>
<path d="M52.131 3.65228V68.0078C64.0803 62.2298 72.3227 49.993 72.3227 35.8301C72.3227 21.6671 64.0803 9.43032 52.131 3.65228Z" fill="#FFDA44"/>
</g>
<defs>
<clipPath id="clip0_408_144">
<rect width="71.4475" height="71.4475" fill="white" transform="translate(0.875244 0.106262)"/>
</clipPath>
</defs>
</svg>
