<svg width="261" height="92" viewBox="0 0 261 92" fill="none" xmlns="http://www.w3.org/2000/svg">
<path d="M103.616 25.7184C100.863 25.7184 97.9711 25.1968 95.7046 23.9407V1.77777C97.9356 0.557117 100.828 4.08034e-05 103.616 4.08034e-05C106.404 4.08034e-05 109.227 0.521617 111.456 1.77777V10.2814H105.844V4.49488C105.183 4.21634 104.38 4.11257 103.58 4.11257C102.78 4.11257 102.045 4.21634 101.349 4.49488V21.2235C102.01 21.5021 102.777 21.6059 103.58 21.6059C104.383 21.6059 105.148 21.5021 105.844 21.2235V15.4398H111.456V23.9434C109.26 25.164 106.368 25.6856 103.616 25.7211V25.7184Z" fill="#F7DD43"/>
<path d="M121.98 25.7183C119.017 25.7183 116.161 25.0903 113.894 23.8013V1.8815C116.125 0.628076 118.984 0 121.98 0C124.976 0 127.764 0.592576 129.995 1.8815V23.8013C127.799 25.0903 124.908 25.6828 121.98 25.7183ZM124.386 4.56584C123.725 4.2873 122.922 4.14803 121.947 4.14803C120.972 4.14803 120.205 4.2873 119.542 4.56584V21.1197C120.202 21.4338 121.005 21.573 121.947 21.573C122.889 21.573 123.69 21.4338 124.386 21.1197V4.56584Z" fill="#F7DD43"/>
<path d="M139.787 16.3081H138.288V25.4043H132.608V0.314054H139.787C143.204 0.314054 145.781 1.0104 147.802 2.43859V14.1836C145.817 15.579 143.201 16.3081 139.787 16.3081ZM142.158 4.63412C141.636 4.25182 140.937 4.07705 139.752 4.07705H138.217V12.5451H139.752C140.901 12.5451 141.598 12.3704 142.158 12.0236V4.63412Z" fill="#F7DD43"/>
<path d="M159.684 25.4043V16.3081H155.503V25.4043H149.858V1.846C151.915 0.625345 154.807 0 157.595 0C160.383 0 163.239 0.628076 165.295 1.846V25.4043H159.684ZM159.684 4.35557C159.091 4.07703 158.359 3.93776 157.592 3.93776C156.825 3.93776 156.093 4.07703 155.5 4.35557V12.3349H159.681V4.35557H159.684Z" fill="#F7DD43"/>
<path d="M20.775 69.0427H27.0336C26.908 71.0941 26.3429 72.9151 25.3381 74.506C24.3474 76.0968 22.9589 77.3387 21.1727 78.2318C19.4005 79.1249 17.2654 79.5715 14.7675 79.5715C12.8139 79.5715 11.0626 79.2366 9.51362 78.5667C7.96466 77.883 6.63897 76.9061 5.53656 75.6363C4.4481 74.3664 3.6178 72.8314 3.04567 71.0313C2.47353 69.2311 2.18746 67.2147 2.18746 64.9819V62.8678C2.18746 60.6351 2.4805 58.6186 3.0666 56.8185C3.66664 55.0044 4.51788 53.4624 5.62029 52.1925C6.73666 50.9227 8.06932 49.9459 9.61828 49.2621C11.1672 48.5783 12.8976 48.2364 14.8094 48.2364C17.3491 48.2364 19.4912 48.6969 21.2355 49.6179C22.9938 50.5389 24.3543 51.8088 25.3172 53.4275C26.294 55.0463 26.8801 56.8883 27.0755 58.9535H20.7959C20.7261 57.7255 20.4819 56.6859 20.0633 55.8347C19.6447 54.9695 19.0097 54.3206 18.1585 53.888C17.3212 53.4415 16.2049 53.2182 14.8094 53.2182C13.7628 53.2182 12.8488 53.4136 12.0673 53.8043C11.2859 54.195 10.63 54.7881 10.0997 55.5835C9.56944 56.3789 9.17173 57.3837 8.9066 58.5977C8.65541 59.7978 8.52982 61.2072 8.52982 62.826V64.9819C8.52982 66.5588 8.64844 67.9473 8.88567 69.1474C9.12289 70.3335 9.48571 71.3383 9.97412 72.1616C10.4765 72.9709 11.1184 73.5849 11.8999 74.0036C12.6953 74.4083 13.6512 74.6106 14.7675 74.6106C16.0793 74.6106 17.1607 74.4013 18.012 73.9827C18.8632 73.564 19.5121 72.943 19.9586 72.1197C20.4191 71.2964 20.6913 70.2707 20.775 69.0427ZM43.5489 53.888L35.2599 79.1528H28.5826L39.9067 48.676H44.1559L43.5489 53.888ZM50.4355 79.1528L42.1255 53.888L41.4557 48.676H45.7467L57.1337 79.1528H50.4355ZM50.0587 67.8077V72.7267H33.9621V67.8077H50.0587ZM79.5518 74.2548V79.1528H64.2087V74.2548H79.5518ZM66.2391 48.676V79.1528H59.9595V48.676H66.2391ZM103.603 74.2548V79.1528H87.3803V74.2548H103.603ZM89.4316 48.676V79.1528H83.152V48.676H89.4316ZM101.488 61.0886V65.8611H87.3803V61.0886H101.488ZM103.582 48.676V53.595H87.3803V48.676H103.582ZM132.07 48.676V79.1528H125.79L113.545 58.7233V79.1528H107.266V48.676H113.545L125.811 69.1265V48.676H132.07ZM146.89 79.1528H140.254L140.296 74.2548H146.89C148.536 74.2548 149.925 73.885 151.055 73.1454C152.185 72.3918 153.037 71.2964 153.609 69.8591C154.195 68.4217 154.488 66.6844 154.488 64.647V63.1609C154.488 61.5979 154.32 60.2234 153.986 59.0373C153.665 57.8511 153.183 56.8534 152.541 56.044C151.899 55.2346 151.111 54.6276 150.176 54.2229C149.241 53.8043 148.167 53.595 146.952 53.595H140.129V48.676H146.952C148.99 48.676 150.853 49.0249 152.541 49.7226C154.244 50.4064 155.716 51.3902 156.958 52.674C158.2 53.9578 159.156 55.4928 159.826 57.279C160.509 59.0512 160.851 61.0258 160.851 63.2027V64.647C160.851 66.81 160.509 68.7846 159.826 70.5708C159.156 72.3569 158.2 73.8919 156.958 75.1758C155.73 76.4456 154.258 77.4294 152.541 78.1272C150.839 78.8109 148.955 79.1528 146.89 79.1528ZM143.813 48.676V79.1528H137.533V48.676H143.813ZM177.346 53.888L169.057 79.1528H162.379L173.703 48.676H177.953L177.346 53.888ZM184.232 79.1528L175.922 53.888L175.252 48.676H179.543L190.93 79.1528H184.232ZM183.855 67.8077V72.7267H167.759V67.8077H183.855ZM173.808 46.9596L177.911 40.5125H184.462L178.706 46.9596H173.808ZM193.756 48.676H205.122C207.453 48.676 209.455 49.0249 211.13 49.7226C212.818 50.4203 214.116 51.453 215.023 52.8205C215.93 54.1881 216.384 55.8696 216.384 57.8651C216.384 59.4978 216.104 60.9002 215.546 62.0724C215.002 63.2306 214.228 64.2005 213.223 64.9819C212.232 65.7494 211.067 66.3634 209.727 66.8239L207.739 67.8705H197.859L197.817 62.9725H205.164C206.266 62.9725 207.181 62.7771 207.906 62.3864C208.632 61.9957 209.176 61.4514 209.539 60.7537C209.916 60.056 210.104 59.2466 210.104 58.3256C210.104 57.3488 209.923 56.5045 209.56 55.7928C209.197 55.0811 208.646 54.5369 207.906 54.1601C207.167 53.7834 206.239 53.595 205.122 53.595H200.036V79.1528H193.756V48.676ZM210.795 79.1528L203.845 65.568L210.481 65.5262L217.514 78.8598V79.1528H210.795ZM227.896 48.676V79.1528H221.637V48.676H227.896ZM258.813 63.2027V64.647C258.813 66.9635 258.499 69.0427 257.871 70.8847C257.243 72.7267 256.357 74.2966 255.212 75.5944C254.068 76.8782 252.7 77.862 251.11 78.5458C249.533 79.2296 247.781 79.5715 245.856 79.5715C243.944 79.5715 242.193 79.2296 240.602 78.5458C239.025 77.862 237.657 76.8782 236.499 75.5944C235.341 74.2966 234.441 72.7267 233.799 70.8847C233.171 69.0427 232.857 66.9635 232.857 64.647V63.2027C232.857 60.8723 233.171 58.7931 233.799 56.965C234.427 55.123 235.313 53.5531 236.457 52.2553C237.616 50.9576 238.983 49.9668 240.56 49.283C242.151 48.5992 243.902 48.2573 245.814 48.2573C247.74 48.2573 249.491 48.5992 251.068 49.283C252.659 49.9668 254.026 50.9576 255.17 52.2553C256.329 53.5531 257.222 55.123 257.85 56.965C258.492 58.7931 258.813 60.8723 258.813 63.2027ZM252.47 64.647V63.1609C252.47 61.5421 252.324 60.1188 252.031 58.8908C251.738 57.6627 251.305 56.6301 250.733 55.7928C250.161 54.9556 249.463 54.3276 248.64 53.909C247.816 53.4764 246.874 53.2601 245.814 53.2601C244.753 53.2601 243.811 53.4764 242.988 53.909C242.179 54.3276 241.488 54.9556 240.916 55.7928C240.358 56.6301 239.932 57.6627 239.639 58.8908C239.346 60.1188 239.199 61.5421 239.199 63.1609V64.647C239.199 66.2518 239.346 67.6752 239.639 68.9171C239.932 70.1451 240.365 71.1848 240.937 72.036C241.509 72.8733 242.207 73.5082 243.03 73.9408C243.853 74.3734 244.795 74.5897 245.856 74.5897C246.916 74.5897 247.858 74.3734 248.681 73.9408C249.505 73.5082 250.196 72.8733 250.754 72.036C251.312 71.1848 251.738 70.1451 252.031 68.9171C252.324 67.6752 252.47 66.2518 252.47 64.647Z" fill="url(#paint0_linear_122_251)"/>
<defs>
<linearGradient id="paint0_linear_122_251" x1="130.5" y1="37.1528" x2="130.5" y2="91.1528" gradientUnits="userSpaceOnUse">
<stop stop-color="white"/>
<stop offset="1" stop-color="#D9D9D9" stop-opacity="0.8"/>
</linearGradient>
</defs>
</svg>
